# Blender v3.1.2 OBJ File: 'Cut markers.blend'
# www.blender.org
v -0.035000 -0.035000 0.000000
v 0.035000 -0.035000 0.000000
v -0.035000 0.035000 0.000000
v 0.035000 0.035000 0.000000
v -0.035000 0.025000 0.000000
v -0.035000 0.015000 0.000000
v -0.035000 0.005000 0.000000
v -0.035000 -0.005000 0.000000
v -0.035000 -0.015000 0.000000
v -0.035000 -0.025000 0.000000
v -0.025000 -0.035000 0.000000
v -0.015000 -0.035000 0.000000
v -0.005000 -0.035000 0.000000
v 0.005000 -0.035000 0.000000
v 0.015000 -0.035000 0.000000
v 0.025000 -0.035000 0.000000
v 0.035000 -0.025000 0.000000
v 0.035000 -0.015000 0.000000
v 0.035000 -0.005000 0.000000
v 0.035000 0.005000 0.000000
v 0.035000 0.015000 0.000000
v 0.035000 0.025000 0.000000
v 0.025000 0.035000 0.000000
v 0.015000 0.035000 0.000000
v 0.005000 0.035000 0.000000
v -0.005000 0.035000 0.000000
v -0.015000 0.035000 0.000000
v -0.025000 0.035000 0.000000
v -0.025000 -0.025000 0.000000
v -0.025000 -0.015000 0.000000
v -0.025000 -0.005000 0.000000
v -0.025000 0.005000 0.000000
v -0.025000 0.015000 0.000000
v -0.025000 0.025000 0.000000
v -0.015000 -0.025000 0.000000
v -0.015000 -0.015000 0.000000
v -0.015000 0.005000 0.000000
v -0.015000 0.015000 0.000000
v -0.015000 0.025000 0.000000
v -0.005000 -0.025000 0.000000
v -0.005000 -0.005000 0.000000
v -0.005000 0.005000 0.000000
v -0.005000 0.015000 0.000000
v -0.005000 0.025000 0.000000
v 0.005000 -0.025000 0.000000
v 0.005000 -0.015000 0.000000
v 0.005000 -0.005000 0.000000
v 0.005000 0.005000 0.000000
v 0.005000 0.015000 0.000000
v 0.005000 0.025000 0.000000
v 0.015000 -0.025000 0.000000
v 0.015000 -0.015000 0.000000
v 0.015000 -0.005000 0.000000
v 0.015000 0.005000 0.000000
v 0.015000 0.015000 0.000000
v 0.015000 0.025000 0.000000
v 0.025000 -0.025000 0.000000
v 0.025000 -0.015000 0.000000
v 0.025000 -0.005000 0.000000
v 0.025000 0.005000 0.000000
v 0.025000 0.015000 0.000000
v 0.025000 0.025000 0.000000
v -0.035000 -0.025000 -0.003000
v -0.035000 -0.035000 -0.003000
v 0.025000 -0.035000 -0.003000
v 0.035000 -0.035000 -0.003000
v 0.035000 0.025000 -0.003000
v 0.035000 0.035000 -0.003000
v -0.025000 0.035000 -0.003000
v -0.035000 0.035000 -0.003000
v -0.035000 0.025000 -0.003000
v -0.035000 0.015000 -0.003000
v -0.035000 0.005000 -0.003000
v -0.035000 -0.005000 -0.003000
v -0.035000 -0.015000 -0.003000
v -0.025000 -0.035000 -0.003000
v -0.015000 -0.035000 -0.003000
v -0.005000 -0.035000 -0.003000
v 0.005000 -0.035000 -0.003000
v 0.015000 -0.035000 -0.003000
v 0.035000 -0.025000 -0.003000
v 0.035000 -0.015000 -0.003000
v 0.035000 -0.005000 -0.003000
v 0.035000 0.005000 -0.003000
v 0.035000 0.015000 -0.003000
v 0.025000 0.035000 -0.003000
v 0.015000 0.035000 -0.003000
v 0.005000 0.035000 -0.003000
v -0.005000 0.035000 -0.003000
v -0.015000 0.035000 -0.003000
v -0.025000 0.025000 -0.003000
v -0.025000 -0.025000 -0.003000
v -0.025000 -0.015000 -0.003000
v -0.025000 -0.005000 -0.003000
v -0.025000 0.005000 -0.003000
v -0.025000 0.015000 -0.003000
v -0.015000 0.025000 -0.003000
v -0.015000 -0.025000 -0.003000
v -0.015000 -0.015000 -0.003000
v -0.015000 0.005000 -0.003000
v -0.015000 0.015000 -0.003000
v -0.005000 0.025000 -0.003000
v -0.005000 -0.025000 -0.003000
v -0.005000 -0.005000 -0.003000
v -0.005000 0.005000 -0.003000
v -0.005000 0.015000 -0.003000
v 0.005000 0.025000 -0.003000
v 0.005000 -0.025000 -0.003000
v 0.005000 -0.015000 -0.003000
v 0.005000 -0.005000 -0.003000
v 0.005000 0.005000 -0.003000
v 0.005000 0.015000 -0.003000
v 0.015000 0.025000 -0.003000
v 0.015000 -0.025000 -0.003000
v 0.015000 -0.015000 -0.003000
v 0.015000 -0.005000 -0.003000
v 0.015000 0.005000 -0.003000
v 0.015000 0.015000 -0.003000
v 0.025000 0.025000 -0.003000
v 0.025000 -0.025000 -0.003000
v 0.025000 -0.015000 -0.003000
v 0.025000 -0.005000 -0.003000
v 0.025000 0.005000 -0.003000
v 0.025000 0.015000 -0.003000
vt 1.000000 0.857143
vt 0.857143 1.000000
vt 0.857143 0.857143
vt 0.000000 0.857143
vt 0.142857 1.000000
vt 0.000000 1.000000
vt 0.142857 0.857143
vt 0.285714 1.000000
vt 0.428571 0.857143
vt 0.285714 0.857143
vt 0.571429 0.857143
vt 0.428571 1.000000
vt 0.714286 0.857143
vt 0.571429 1.000000
vt 0.714286 1.000000
vt 0.142857 0.000000
vt 0.000000 0.142857
vt 0.000000 0.000000
vt 0.142857 0.142857
vt 0.000000 0.285714
vt 0.142857 0.285714
vt 0.000000 0.428571
vt 0.142857 0.571429
vt 0.000000 0.571429
vt 0.000000 0.714286
vt 0.142857 0.714286
vt 0.285714 0.000000
vt 0.285714 0.142857
vt 0.428571 0.000000
vt 0.285714 0.571429
vt 0.428571 0.714286
vt 0.285714 0.714286
vt 0.571429 0.000000
vt 0.428571 0.142857
vt 0.571429 0.428571
vt 0.428571 0.571429
vt 0.428571 0.428571
vt 0.571429 0.714286
vt 0.714286 0.000000
vt 0.571429 0.142857
vt 0.714286 0.142857
vt 0.571429 0.285714
vt 0.714286 0.285714
vt 0.714286 0.428571
vt 0.571429 0.571429
vt 0.714286 0.571429
vt 0.857143 0.000000
vt 0.857143 0.285714
vt 0.857143 0.571429
vt 0.714286 0.714286
vt 1.000000 0.000000
vt 0.857143 0.142857
vt 1.000000 0.142857
vt 1.000000 0.285714
vt 0.857143 0.428571
vt 1.000000 0.428571
vt 1.000000 0.571429
vt 0.857143 0.714286
vt 1.000000 0.714286
vt 0.857143 1.000000
vt 1.000000 0.857143
vt 0.857143 0.857143
vt 0.000000 0.857143
vt 0.142857 1.000000
vt 0.142857 0.857143
vt 0.285714 1.000000
vt 0.285714 0.857143
vt 0.428571 0.857143
vt 0.428571 1.000000
vt 0.571429 0.857143
vt 0.571429 1.000000
vt 0.714286 0.857143
vt 0.714286 1.000000
vt 0.000000 0.142857
vt 0.142857 0.000000
vt 0.000000 0.000000
vt 0.000000 0.285714
vt 0.142857 0.142857
vt 0.000000 0.428571
vt 0.142857 0.285714
vt 0.000000 0.571429
vt 0.142857 0.428571
vt 0.000000 0.714286
vt 0.142857 0.571429
vt 0.142857 0.714286
vt 0.285714 0.000000
vt 0.285714 0.142857
vt 0.428571 0.000000
vt 0.285714 0.571429
vt 0.428571 0.714286
vt 0.428571 0.571429
vt 0.428571 0.142857
vt 0.571429 0.000000
vt 0.571429 0.428571
vt 0.428571 0.428571
vt 0.571429 0.714286
vt 0.571429 0.571429
vt 0.571429 0.142857
vt 0.714286 0.000000
vt 0.571429 0.285714
vt 0.714286 0.142857
vt 0.714286 0.285714
vt 0.714286 0.428571
vt 0.714286 0.571429
vt 0.714286 0.714286
vt 0.857143 0.000000
vt 0.857143 0.285714
vt 0.857143 0.571429
vt 0.857143 0.142857
vt 1.000000 0.000000
vt 1.000000 0.142857
vt 0.857143 0.428571
vt 1.000000 0.285714
vt 1.000000 0.428571
vt 0.857143 0.714286
vt 1.000000 0.571429
vt 1.000000 0.714286
vt 1.000000 1.000000
vt 1.000000 1.000000
vt 0.000000 1.000000
vt 0.142857 0.428571
vt 0.285714 0.285714
vt 0.285714 0.714286
vt 0.285714 0.285714
vn 0.0000 0.0000 1.0000
vn 0.0000 0.0000 -1.0000
vn -1.0000 0.0000 0.0000
vn 1.0000 0.0000 0.0000
vn 0.0000 1.0000 0.0000
vn 0.0000 -1.0000 0.0000
s off
f 22/1/1 23/2/1 62/3/1
f 5/4/1 28/5/1 3/6/1
f 34/7/1 27/8/1 28/5/1
f 44/9/1 27/8/1 39/10/1
f 50/11/1 26/12/1 44/9/1
f 56/13/1 25/14/1 50/11/1
f 62/3/1 24/15/1 56/13/1
f 11/16/1 10/17/1 1/18/1
f 29/19/1 9/20/1 10/17/1
f 30/21/1 8/22/1 9/20/1
f 8/22/1 32/23/1 7/24/1
f 32/23/1 6/25/1 7/24/1
f 33/26/1 5/4/1 6/25/1
f 12/27/1 29/19/1 11/16/1
f 35/28/1 30/21/1 29/19/1
f 13/29/1 35/28/1 12/27/1
f 37/30/1 43/31/1 38/32/1
f 14/33/1 40/34/1 13/29/1
f 47/35/1 42/36/1 41/37/1
f 42/36/1 49/38/1 43/31/1
f 49/38/1 44/9/1 43/31/1
f 15/39/1 45/40/1 14/33/1
f 51/41/1 46/42/1 45/40/1
f 52/43/1 47/35/1 46/42/1
f 53/44/1 48/45/1 47/35/1
f 54/46/1 49/38/1 48/45/1
f 49/38/1 56/13/1 50/11/1
f 16/47/1 51/41/1 15/39/1
f 58/48/1 53/44/1 52/43/1
f 60/49/1 55/50/1 54/46/1
f 2/51/1 57/52/1 16/47/1
f 17/53/1 58/48/1 57/52/1
f 18/54/1 59/55/1 58/48/1
f 19/56/1 60/49/1 59/55/1
f 20/57/1 61/58/1 60/49/1
f 21/59/1 62/3/1 61/58/1
f 86/60/2 67/61/2 119/62/2
f 71/63/2 69/64/2 91/65/2
f 91/65/2 90/66/2 97/67/2
f 90/66/2 102/68/2 97/67/2
f 89/69/2 107/70/2 102/68/2
f 88/71/2 113/72/2 107/70/2
f 87/73/2 119/62/2 113/72/2
f 63/74/2 76/75/2 64/76/2
f 75/77/2 92/78/2 63/74/2
f 74/79/2 93/80/2 75/77/2
f 73/81/2 94/82/2 74/79/2
f 72/83/2 95/84/2 73/81/2
f 71/63/2 96/85/2 72/83/2
f 92/78/2 77/86/2 76/75/2
f 93/80/2 98/87/2 92/78/2
f 98/87/2 78/88/2 77/86/2
f 100/89/2 106/90/2 105/91/2
f 103/92/2 79/93/2 78/88/2
f 105/91/2 110/94/2 104/95/2
f 105/91/2 112/96/2 111/97/2
f 106/90/2 107/70/2 112/96/2
f 108/98/2 80/99/2 79/93/2
f 109/100/2 114/101/2 108/98/2
f 110/94/2 115/102/2 109/100/2
f 111/97/2 116/103/2 110/94/2
f 112/96/2 117/104/2 111/97/2
f 112/96/2 113/72/2 118/105/2
f 114/101/2 65/106/2 80/99/2
f 116/103/2 121/107/2 115/102/2
f 118/105/2 123/108/2 117/104/2
f 120/109/2 66/110/2 65/106/2
f 121/107/2 81/111/2 120/109/2
f 122/112/2 82/113/2 121/107/2
f 123/108/2 83/114/2 122/112/2
f 124/115/2 84/116/2 123/108/2
f 119/62/2 85/117/2 124/115/2
f 110/94/3 46/42/3 47/35/3
f 85/117/4 22/1/4 21/59/4
f 103/92/5 35/28/5 40/34/5
f 68/118/5 23/2/5 4/119/5
f 100/89/6 42/36/6 37/30/6
f 86/60/5 24/15/5 23/2/5
f 106/90/5 38/32/5 43/31/5
f 87/73/5 25/14/5 24/15/5
f 97/67/6 44/9/6 39/10/6
f 88/71/5 26/12/5 25/14/5
f 108/98/5 40/34/5 45/40/5
f 89/69/5 27/8/5 26/12/5
f 63/74/3 1/18/3 10/17/3
f 104/95/6 47/35/6 41/37/6
f 114/101/4 52/43/4 51/41/4
f 90/66/5 28/5/5 27/8/5
f 65/106/6 2/51/6 16/47/6
f 67/61/4 4/119/4 22/1/4
f 116/103/4 54/46/4 53/44/4
f 69/64/5 3/6/5 28/5/5
f 70/120/3 5/4/3 3/6/3
f 118/105/4 56/13/4 55/50/4
f 93/80/4 31/121/4 30/21/4
f 71/63/3 6/25/3 5/4/3
f 94/82/4 32/23/4 31/121/4
f 72/83/3 7/24/3 6/25/3
f 95/84/4 33/26/4 32/23/4
f 73/81/3 8/22/3 7/24/3
f 121/107/3 57/52/3 58/48/3
f 96/85/4 34/7/4 33/26/4
f 74/79/3 9/20/3 8/22/3
f 75/77/3 10/17/3 9/20/3
f 123/108/3 59/55/3 60/49/3
f 64/76/6 11/16/6 1/18/6
f 120/109/5 51/41/5 57/52/5
f 98/87/4 36/122/4 35/28/4
f 76/75/6 12/27/6 11/16/6
f 115/102/6 58/48/6 52/43/6
f 119/62/3 61/58/3 62/3/3
f 101/123/3 37/30/3 38/32/3
f 77/86/6 13/29/6 12/27/6
f 122/112/5 53/44/5 59/55/5
f 78/88/6 14/33/6 13/29/6
f 117/104/6 60/49/6 54/46/6
f 79/93/6 15/39/6 14/33/6
f 124/115/5 55/50/5 61/58/5
f 105/91/3 41/37/3 42/36/3
f 80/99/6 16/47/6 15/39/6
f 113/72/6 62/3/6 56/13/6
f 66/110/4 17/53/4 2/51/4
f 102/68/3 43/31/3 44/9/3
f 81/111/4 18/54/4 17/53/4
f 82/113/4 19/56/4 18/54/4
f 83/114/4 20/57/4 19/56/4
f 99/124/5 30/21/5 36/122/5
f 109/100/3 45/40/3 46/42/3
f 84/116/4 21/59/4 20/57/4
f 91/65/6 39/10/6 34/7/6
f 22/1/1 4/119/1 23/2/1
f 5/4/1 34/7/1 28/5/1
f 34/7/1 39/10/1 27/8/1
f 44/9/1 26/12/1 27/8/1
f 50/11/1 25/14/1 26/12/1
f 56/13/1 24/15/1 25/14/1
f 62/3/1 23/2/1 24/15/1
f 11/16/1 29/19/1 10/17/1
f 29/19/1 30/21/1 9/20/1
f 30/21/1 31/121/1 8/22/1
f 8/22/1 31/121/1 32/23/1
f 32/23/1 33/26/1 6/25/1
f 33/26/1 34/7/1 5/4/1
f 12/27/1 35/28/1 29/19/1
f 35/28/1 36/122/1 30/21/1
f 13/29/1 40/34/1 35/28/1
f 37/30/1 42/36/1 43/31/1
f 14/33/1 45/40/1 40/34/1
f 47/35/1 48/45/1 42/36/1
f 42/36/1 48/45/1 49/38/1
f 49/38/1 50/11/1 44/9/1
f 15/39/1 51/41/1 45/40/1
f 51/41/1 52/43/1 46/42/1
f 52/43/1 53/44/1 47/35/1
f 53/44/1 54/46/1 48/45/1
f 54/46/1 55/50/1 49/38/1
f 49/38/1 55/50/1 56/13/1
f 16/47/1 57/52/1 51/41/1
f 58/48/1 59/55/1 53/44/1
f 60/49/1 61/58/1 55/50/1
f 2/51/1 17/53/1 57/52/1
f 17/53/1 18/54/1 58/48/1
f 18/54/1 19/56/1 59/55/1
f 19/56/1 20/57/1 60/49/1
f 20/57/1 21/59/1 61/58/1
f 21/59/1 22/1/1 62/3/1
f 86/60/2 68/118/2 67/61/2
f 71/63/2 70/120/2 69/64/2
f 91/65/2 69/64/2 90/66/2
f 90/66/2 89/69/2 102/68/2
f 89/69/2 88/71/2 107/70/2
f 88/71/2 87/73/2 113/72/2
f 87/73/2 86/60/2 119/62/2
f 63/74/2 92/78/2 76/75/2
f 75/77/2 93/80/2 92/78/2
f 74/79/2 94/82/2 93/80/2
f 73/81/2 95/84/2 94/82/2
f 72/83/2 96/85/2 95/84/2
f 71/63/2 91/65/2 96/85/2
f 92/78/2 98/87/2 77/86/2
f 93/80/2 99/124/2 98/87/2
f 98/87/2 103/92/2 78/88/2
f 100/89/2 101/123/2 106/90/2
f 103/92/2 108/98/2 79/93/2
f 105/91/2 111/97/2 110/94/2
f 105/91/2 106/90/2 112/96/2
f 106/90/2 102/68/2 107/70/2
f 108/98/2 114/101/2 80/99/2
f 109/100/2 115/102/2 114/101/2
f 110/94/2 116/103/2 115/102/2
f 111/97/2 117/104/2 116/103/2
f 112/96/2 118/105/2 117/104/2
f 112/96/2 107/70/2 113/72/2
f 114/101/2 120/109/2 65/106/2
f 116/103/2 122/112/2 121/107/2
f 118/105/2 124/115/2 123/108/2
f 120/109/2 81/111/2 66/110/2
f 121/107/2 82/113/2 81/111/2
f 122/112/2 83/114/2 82/113/2
f 123/108/2 84/116/2 83/114/2
f 124/115/2 85/117/2 84/116/2
f 119/62/2 67/61/2 85/117/2
f 110/94/3 109/100/3 46/42/3
f 85/117/4 67/61/4 22/1/4
f 103/92/5 98/87/5 35/28/5
f 68/118/5 86/60/5 23/2/5
f 100/89/6 105/91/6 42/36/6
f 86/60/5 87/73/5 24/15/5
f 106/90/5 101/123/5 38/32/5
f 87/73/5 88/71/5 25/14/5
f 97/67/6 102/68/6 44/9/6
f 88/71/5 89/69/5 26/12/5
f 108/98/5 103/92/5 40/34/5
f 89/69/5 90/66/5 27/8/5
f 63/74/3 64/76/3 1/18/3
f 104/95/6 110/94/6 47/35/6
f 114/101/4 115/102/4 52/43/4
f 90/66/5 69/64/5 28/5/5
f 65/106/6 66/110/6 2/51/6
f 67/61/4 68/118/4 4/119/4
f 116/103/4 117/104/4 54/46/4
f 69/64/5 70/120/5 3/6/5
f 70/120/3 71/63/3 5/4/3
f 118/105/4 113/72/4 56/13/4
f 93/80/4 94/82/4 31/121/4
f 71/63/3 72/83/3 6/25/3
f 94/82/4 95/84/4 32/23/4
f 72/83/3 73/81/3 7/24/3
f 95/84/4 96/85/4 33/26/4
f 73/81/3 74/79/3 8/22/3
f 121/107/3 120/109/3 57/52/3
f 96/85/4 91/65/4 34/7/4
f 74/79/3 75/77/3 9/20/3
f 75/77/3 63/74/3 10/17/3
f 123/108/3 122/112/3 59/55/3
f 64/76/6 76/75/6 11/16/6
f 120/109/5 114/101/5 51/41/5
f 98/87/4 99/124/4 36/122/4
f 76/75/6 77/86/6 12/27/6
f 115/102/6 121/107/6 58/48/6
f 119/62/3 124/115/3 61/58/3
f 101/123/3 100/89/3 37/30/3
f 77/86/6 78/88/6 13/29/6
f 122/112/5 116/103/5 53/44/5
f 78/88/6 79/93/6 14/33/6
f 117/104/6 123/108/6 60/49/6
f 79/93/6 80/99/6 15/39/6
f 124/115/5 118/105/5 55/50/5
f 105/91/3 104/95/3 41/37/3
f 80/99/6 65/106/6 16/47/6
f 113/72/6 119/62/6 62/3/6
f 66/110/4 81/111/4 17/53/4
f 102/68/3 106/90/3 43/31/3
f 81/111/4 82/113/4 18/54/4
f 82/113/4 83/114/4 19/56/4
f 83/114/4 84/116/4 20/57/4
f 99/124/5 93/80/5 30/21/5
f 109/100/3 108/98/3 45/40/3
f 84/116/4 85/117/4 21/59/4
f 91/65/6 97/67/6 39/10/6
