# Blender v3.1.2 OBJ File: 'Cut markers.blend'
# www.blender.org
v -0.105000 -0.105000 0.000000
v 0.105000 -0.105000 0.000000
v -0.105000 0.105000 0.000000
v 0.105000 0.105000 0.000000
v -0.105000 0.075000 0.000000
v -0.105000 0.045000 0.000000
v -0.105000 0.015000 0.000000
v -0.105000 -0.015000 0.000000
v -0.105000 -0.045000 0.000000
v -0.105000 -0.075000 0.000000
v -0.075000 -0.105000 0.000000
v -0.045000 -0.105000 0.000000
v -0.015000 -0.105000 0.000000
v 0.015000 -0.105000 0.000000
v 0.045000 -0.105000 0.000000
v 0.075000 -0.105000 0.000000
v 0.105000 -0.075000 0.000000
v 0.105000 -0.045000 0.000000
v 0.105000 -0.015000 0.000000
v 0.105000 0.015000 0.000000
v 0.105000 0.045000 0.000000
v 0.105000 0.075000 0.000000
v 0.075000 0.105000 0.000000
v 0.045000 0.105000 0.000000
v 0.015000 0.105000 0.000000
v -0.015000 0.105000 0.000000
v -0.045000 0.105000 0.000000
v -0.075000 0.105000 0.000000
v -0.075000 -0.075000 0.000000
v -0.075000 -0.045000 0.000000
v -0.075000 -0.015000 0.000000
v -0.075000 0.015000 0.000000
v -0.075000 0.045000 0.000000
v -0.075000 0.075000 0.000000
v -0.045000 -0.075000 0.000000
v -0.045000 0.075000 0.000000
v -0.015000 -0.075000 0.000000
v -0.015000 -0.045000 0.000000
v -0.015000 -0.015000 0.000000
v -0.015000 0.015000 0.000000
v -0.015000 0.045000 0.000000
v -0.015000 0.075000 0.000000
v 0.015000 -0.075000 0.000000
v 0.015000 -0.045000 0.000000
v 0.015000 -0.015000 0.000000
v 0.015000 0.015000 0.000000
v 0.015000 0.045000 0.000000
v 0.015000 0.075000 0.000000
v 0.045000 -0.075000 0.000000
v 0.045000 -0.045000 0.000000
v 0.045000 0.015000 0.000000
v 0.045000 0.045000 0.000000
v 0.045000 0.075000 0.000000
v 0.075000 -0.075000 0.000000
v 0.075000 -0.045000 0.000000
v 0.075000 -0.015000 0.000000
v 0.075000 0.015000 0.000000
v 0.075000 0.045000 0.000000
v 0.075000 0.075000 0.000000
v -0.105000 -0.075000 -0.003000
v -0.105000 -0.105000 -0.003000
v 0.075000 -0.105000 -0.003000
v 0.105000 -0.105000 -0.003000
v 0.105000 0.075000 -0.003000
v 0.105000 0.105000 -0.003000
v -0.075000 0.105000 -0.003000
v -0.105000 0.105000 -0.003000
v -0.105000 0.075000 -0.003000
v -0.105000 0.045000 -0.003000
v -0.105000 0.015000 -0.003000
v -0.105000 -0.015000 -0.003000
v -0.105000 -0.045000 -0.003000
v -0.075000 -0.105000 -0.003000
v -0.045000 -0.105000 -0.003000
v -0.015000 -0.105000 -0.003000
v 0.015000 -0.105000 -0.003000
v 0.045000 -0.105000 -0.003000
v 0.105000 -0.075000 -0.003000
v 0.105000 -0.045000 -0.003000
v 0.105000 -0.015000 -0.003000
v 0.105000 0.015000 -0.003000
v 0.105000 0.045000 -0.003000
v 0.075000 0.105000 -0.003000
v 0.045000 0.105000 -0.003000
v 0.015000 0.105000 -0.003000
v -0.015000 0.105000 -0.003000
v -0.045000 0.105000 -0.003000
v -0.075000 0.075000 -0.003000
v -0.075000 -0.075000 -0.003000
v -0.075000 -0.045000 -0.003000
v -0.075000 -0.015000 -0.003000
v -0.075000 0.015000 -0.003000
v -0.075000 0.045000 -0.003000
v -0.045000 0.075000 -0.003000
v -0.045000 -0.075000 -0.003000
v -0.015000 0.075000 -0.003000
v -0.015000 -0.075000 -0.003000
v -0.015000 -0.045000 -0.003000
v -0.015000 -0.015000 -0.003000
v -0.015000 0.015000 -0.003000
v -0.015000 0.045000 -0.003000
v 0.015000 0.075000 -0.003000
v 0.015000 -0.075000 -0.003000
v 0.015000 -0.045000 -0.003000
v 0.015000 -0.015000 -0.003000
v 0.015000 0.015000 -0.003000
v 0.015000 0.045000 -0.003000
v 0.045000 0.075000 -0.003000
v 0.045000 -0.075000 -0.003000
v 0.045000 -0.045000 -0.003000
v 0.045000 0.015000 -0.003000
v 0.045000 0.045000 -0.003000
v 0.075000 0.075000 -0.003000
v 0.075000 -0.075000 -0.003000
v 0.075000 -0.045000 -0.003000
v 0.075000 -0.015000 -0.003000
v 0.075000 0.015000 -0.003000
v 0.075000 0.045000 -0.003000
vt 1.000000 0.857143
vt 0.857143 1.000000
vt 0.857143 0.857143
vt 0.142857 0.857143
vt 0.000000 1.000000
vt 0.000000 0.857143
vt 0.285714 0.857143
vt 0.142857 1.000000
vt 0.428571 0.857143
vt 0.285714 1.000000
vt 0.571429 0.857143
vt 0.428571 1.000000
vt 0.714286 0.857143
vt 0.571429 1.000000
vt 0.714286 1.000000
vt 0.142857 0.000000
vt 0.000000 0.142857
vt 0.000000 0.000000
vt 0.142857 0.142857
vt 0.000000 0.285714
vt 0.142857 0.285714
vt 0.000000 0.428571
vt 0.142857 0.428571
vt 0.000000 0.571429
vt 0.142857 0.571429
vt 0.000000 0.714286
vt 0.142857 0.714286
vt 0.285714 0.000000
vt 0.428571 0.000000
vt 0.285714 0.142857
vt 0.571429 0.000000
vt 0.428571 0.142857
vt 0.571429 0.142857
vt 0.428571 0.285714
vt 0.571429 0.285714
vt 0.428571 0.428571
vt 0.571429 0.428571
vt 0.428571 0.571429
vt 0.571429 0.571429
vt 0.428571 0.714286
vt 0.714286 0.000000
vt 0.714286 0.142857
vt 0.714286 0.571429
vt 0.571429 0.714286
vt 0.714286 0.714286
vt 0.857143 0.000000
vt 0.857143 0.142857
vt 0.714286 0.285714
vt 1.000000 0.000000
vt 1.000000 0.142857
vt 0.857143 0.285714
vt 1.000000 0.285714
vt 0.857143 0.428571
vt 1.000000 0.428571
vt 0.857143 0.571429
vt 1.000000 0.571429
vt 0.857143 0.714286
vt 0.857143 1.000000
vt 1.000000 0.857143
vt 0.857143 0.857143
vt 0.000000 0.857143
vt 0.142857 1.000000
vt 0.142857 0.857143
vt 0.285714 0.857143
vt 0.285714 1.000000
vt 0.428571 0.857143
vt 0.428571 1.000000
vt 0.571429 0.857143
vt 0.571429 1.000000
vt 0.714286 0.857143
vt 0.714286 1.000000
vt 0.000000 0.142857
vt 0.142857 0.000000
vt 0.000000 0.000000
vt 0.000000 0.285714
vt 0.142857 0.142857
vt 0.000000 0.428571
vt 0.142857 0.285714
vt 0.000000 0.571429
vt 0.142857 0.428571
vt 0.000000 0.714286
vt 0.142857 0.571429
vt 0.142857 0.714286
vt 0.285714 0.000000
vt 0.285714 0.142857
vt 0.428571 0.000000
vt 0.428571 0.142857
vt 0.571429 0.000000
vt 0.428571 0.285714
vt 0.571429 0.142857
vt 0.428571 0.428571
vt 0.571429 0.285714
vt 0.428571 0.571429
vt 0.571429 0.428571
vt 0.428571 0.714286
vt 0.571429 0.571429
vt 0.714286 0.000000
vt 0.714286 0.142857
vt 0.571429 0.714286
vt 0.714286 0.571429
vt 0.714286 0.714286
vt 0.857143 0.000000
vt 0.714286 0.285714
vt 0.857143 0.142857
vt 1.000000 0.000000
vt 0.857143 0.285714
vt 1.000000 0.142857
vt 0.857143 0.428571
vt 1.000000 0.285714
vt 0.857143 0.571429
vt 1.000000 0.428571
vt 0.857143 0.714286
vt 1.000000 0.571429
vt 1.000000 0.714286
vt 1.000000 0.714286
vt 1.000000 1.000000
vt 1.000000 1.000000
vt 0.000000 1.000000
vn 0.0000 0.0000 1.0000
vn 0.0000 0.0000 -1.0000
vn 0.0000 -1.0000 0.0000
vn -1.0000 0.0000 0.0000
vn 0.0000 1.0000 0.0000
vn 1.0000 0.0000 0.0000
s off
f 22/1/1 23/2/1 59/3/1
f 34/4/1 3/5/1 5/6/1
f 36/7/1 28/8/1 34/4/1
f 42/9/1 27/10/1 36/7/1
f 48/11/1 26/12/1 42/9/1
f 53/13/1 25/14/1 48/11/1
f 59/3/1 24/15/1 53/13/1
f 11/16/1 10/17/1 1/18/1
f 29/19/1 9/20/1 10/17/1
f 30/21/1 8/22/1 9/20/1
f 31/23/1 7/24/1 8/22/1
f 32/25/1 6/26/1 7/24/1
f 33/27/1 5/6/1 6/26/1
f 12/28/1 29/19/1 11/16/1
f 13/29/1 35/30/1 12/28/1
f 14/31/1 37/32/1 13/29/1
f 43/33/1 38/34/1 37/32/1
f 44/35/1 39/36/1 38/34/1
f 45/37/1 40/38/1 39/36/1
f 46/39/1 41/40/1 40/38/1
f 15/41/1 43/33/1 14/31/1
f 49/42/1 44/35/1 43/33/1
f 51/43/1 47/44/1 46/39/1
f 52/45/1 48/11/1 47/44/1
f 16/46/1 49/42/1 15/41/1
f 54/47/1 50/48/1 49/42/1
f 2/49/1 54/47/1 16/46/1
f 17/50/1 55/51/1 54/47/1
f 18/52/1 56/53/1 55/51/1
f 19/54/1 57/55/1 56/53/1
f 20/56/1 58/57/1 57/55/1
f 58/57/1 22/1/1 59/3/1
f 83/58/2 64/59/2 113/60/2
f 68/61/2 66/62/2 88/63/2
f 66/62/2 94/64/2 88/63/2
f 87/65/2 96/66/2 94/64/2
f 86/67/2 102/68/2 96/66/2
f 85/69/2 108/70/2 102/68/2
f 84/71/2 113/60/2 108/70/2
f 60/72/2 73/73/2 61/74/2
f 72/75/2 89/76/2 60/72/2
f 71/77/2 90/78/2 72/75/2
f 70/79/2 91/80/2 71/77/2
f 69/81/2 92/82/2 70/79/2
f 68/61/2 93/83/2 69/81/2
f 89/76/2 74/84/2 73/73/2
f 95/85/2 75/86/2 74/84/2
f 97/87/2 76/88/2 75/86/2
f 98/89/2 103/90/2 97/87/2
f 99/91/2 104/92/2 98/89/2
f 100/93/2 105/94/2 99/91/2
f 101/95/2 106/96/2 100/93/2
f 103/90/2 77/97/2 76/88/2
f 104/92/2 109/98/2 103/90/2
f 107/99/2 111/100/2 106/96/2
f 102/68/2 112/101/2 107/99/2
f 109/98/2 62/102/2 77/97/2
f 110/103/2 114/104/2 109/98/2
f 114/104/2 63/105/2 62/102/2
f 115/106/2 78/107/2 114/104/2
f 116/108/2 79/109/2 115/106/2
f 117/110/2 80/111/2 116/108/2
f 118/112/2 81/113/2 117/110/2
f 118/112/2 64/59/2 82/114/2
f 74/84/3 13/29/3 12/28/3
f 98/89/4 37/32/4 38/34/4
f 75/86/3 14/31/3 13/29/3
f 99/91/4 38/34/4 39/36/4
f 76/88/3 15/41/3 14/31/3
f 100/93/4 39/36/4 40/38/4
f 77/97/3 16/46/3 15/41/3
f 95/85/5 29/19/5 35/30/5
f 101/95/4 40/38/4 41/40/4
f 63/105/6 17/50/6 2/49/6
f 88/63/3 36/7/3 34/4/3
f 78/107/6 18/52/6 17/50/6
f 97/87/5 35/30/5 37/32/5
f 79/109/6 19/54/6 18/52/6
f 94/64/3 42/9/3 36/7/3
f 80/111/6 20/56/6 19/54/6
f 104/92/6 45/37/6 44/35/6
f 81/113/6 21/115/6 20/56/6
f 105/94/6 46/39/6 45/37/6
f 82/114/6 22/1/6 21/115/6
f 65/116/5 23/2/5 4/117/5
f 102/68/4 47/44/4 48/11/4
f 83/58/5 24/15/5 23/2/5
f 107/99/5 41/40/5 47/44/5
f 84/71/5 25/14/5 24/15/5
f 96/66/3 48/11/3 42/9/3
f 85/69/5 26/12/5 25/14/5
f 86/67/5 27/10/5 26/12/5
f 60/72/4 1/18/4 10/17/4
f 110/103/5 44/35/5 50/48/5
f 111/100/6 52/45/6 51/43/6
f 87/65/5 28/8/5 27/10/5
f 62/102/3 2/49/3 16/46/3
f 106/96/3 51/43/3 46/39/3
f 112/101/6 53/13/6 52/45/6
f 64/59/6 4/117/6 22/1/6
f 66/62/5 3/5/5 28/8/5
f 89/76/6 30/21/6 29/19/6
f 67/118/4 5/6/4 3/5/4
f 90/78/6 31/23/6 30/21/6
f 68/61/4 6/26/4 5/6/4
f 115/106/5 50/48/5 55/51/5
f 116/108/4 55/51/4 56/53/4
f 91/80/6 32/25/6 31/23/6
f 69/81/4 7/24/4 6/26/4
f 108/70/3 59/3/3 53/13/3
f 117/110/4 56/53/4 57/55/4
f 92/82/6 33/27/6 32/25/6
f 70/79/4 8/22/4 7/24/4
f 118/112/4 57/55/4 58/57/4
f 93/83/6 34/4/6 33/27/6
f 71/77/4 9/20/4 8/22/4
f 113/60/4 58/57/4 59/3/4
f 72/75/4 10/17/4 9/20/4
f 61/74/3 11/16/3 1/18/3
f 73/73/3 12/28/3 11/16/3
f 22/1/1 4/117/1 23/2/1
f 34/4/1 28/8/1 3/5/1
f 36/7/1 27/10/1 28/8/1
f 42/9/1 26/12/1 27/10/1
f 48/11/1 25/14/1 26/12/1
f 53/13/1 24/15/1 25/14/1
f 59/3/1 23/2/1 24/15/1
f 11/16/1 29/19/1 10/17/1
f 29/19/1 30/21/1 9/20/1
f 30/21/1 31/23/1 8/22/1
f 31/23/1 32/25/1 7/24/1
f 32/25/1 33/27/1 6/26/1
f 33/27/1 34/4/1 5/6/1
f 12/28/1 35/30/1 29/19/1
f 13/29/1 37/32/1 35/30/1
f 14/31/1 43/33/1 37/32/1
f 43/33/1 44/35/1 38/34/1
f 44/35/1 45/37/1 39/36/1
f 45/37/1 46/39/1 40/38/1
f 46/39/1 47/44/1 41/40/1
f 15/41/1 49/42/1 43/33/1
f 49/42/1 50/48/1 44/35/1
f 51/43/1 52/45/1 47/44/1
f 52/45/1 53/13/1 48/11/1
f 16/46/1 54/47/1 49/42/1
f 54/47/1 55/51/1 50/48/1
f 2/49/1 17/50/1 54/47/1
f 17/50/1 18/52/1 55/51/1
f 18/52/1 19/54/1 56/53/1
f 19/54/1 20/56/1 57/55/1
f 20/56/1 21/115/1 58/57/1
f 58/57/1 21/115/1 22/1/1
f 83/58/2 65/116/2 64/59/2
f 68/61/2 67/118/2 66/62/2
f 66/62/2 87/65/2 94/64/2
f 87/65/2 86/67/2 96/66/2
f 86/67/2 85/69/2 102/68/2
f 85/69/2 84/71/2 108/70/2
f 84/71/2 83/58/2 113/60/2
f 60/72/2 89/76/2 73/73/2
f 72/75/2 90/78/2 89/76/2
f 71/77/2 91/80/2 90/78/2
f 70/79/2 92/82/2 91/80/2
f 69/81/2 93/83/2 92/82/2
f 68/61/2 88/63/2 93/83/2
f 89/76/2 95/85/2 74/84/2
f 95/85/2 97/87/2 75/86/2
f 97/87/2 103/90/2 76/88/2
f 98/89/2 104/92/2 103/90/2
f 99/91/2 105/94/2 104/92/2
f 100/93/2 106/96/2 105/94/2
f 101/95/2 107/99/2 106/96/2
f 103/90/2 109/98/2 77/97/2
f 104/92/2 110/103/2 109/98/2
f 107/99/2 112/101/2 111/100/2
f 102/68/2 108/70/2 112/101/2
f 109/98/2 114/104/2 62/102/2
f 110/103/2 115/106/2 114/104/2
f 114/104/2 78/107/2 63/105/2
f 115/106/2 79/109/2 78/107/2
f 116/108/2 80/111/2 79/109/2
f 117/110/2 81/113/2 80/111/2
f 118/112/2 82/114/2 81/113/2
f 118/112/2 113/60/2 64/59/2
f 74/84/3 75/86/3 13/29/3
f 98/89/4 97/87/4 37/32/4
f 75/86/3 76/88/3 14/31/3
f 99/91/4 98/89/4 38/34/4
f 76/88/3 77/97/3 15/41/3
f 100/93/4 99/91/4 39/36/4
f 77/97/3 62/102/3 16/46/3
f 95/85/5 89/76/5 29/19/5
f 101/95/4 100/93/4 40/38/4
f 63/105/6 78/107/6 17/50/6
f 88/63/3 94/64/3 36/7/3
f 78/107/6 79/109/6 18/52/6
f 97/87/5 95/85/5 35/30/5
f 79/109/6 80/111/6 19/54/6
f 94/64/3 96/66/3 42/9/3
f 80/111/6 81/113/6 20/56/6
f 104/92/6 105/94/6 45/37/6
f 81/113/6 82/114/6 21/115/6
f 105/94/6 106/96/6 46/39/6
f 82/114/6 64/59/6 22/1/6
f 65/116/5 83/58/5 23/2/5
f 102/68/4 107/99/4 47/44/4
f 83/58/5 84/71/5 24/15/5
f 107/99/5 101/95/5 41/40/5
f 84/71/5 85/69/5 25/14/5
f 96/66/3 102/68/3 48/11/3
f 85/69/5 86/67/5 26/12/5
f 86/67/5 87/65/5 27/10/5
f 60/72/4 61/74/4 1/18/4
f 110/103/5 104/92/5 44/35/5
f 111/100/6 112/101/6 52/45/6
f 87/65/5 66/62/5 28/8/5
f 62/102/3 63/105/3 2/49/3
f 106/96/3 111/100/3 51/43/3
f 112/101/6 108/70/6 53/13/6
f 64/59/6 65/116/6 4/117/6
f 66/62/5 67/118/5 3/5/5
f 89/76/6 90/78/6 30/21/6
f 67/118/4 68/61/4 5/6/4
f 90/78/6 91/80/6 31/23/6
f 68/61/4 69/81/4 6/26/4
f 115/106/5 110/103/5 50/48/5
f 116/108/4 115/106/4 55/51/4
f 91/80/6 92/82/6 32/25/6
f 69/81/4 70/79/4 7/24/4
f 108/70/3 113/60/3 59/3/3
f 117/110/4 116/108/4 56/53/4
f 92/82/6 93/83/6 33/27/6
f 70/79/4 71/77/4 8/22/4
f 118/112/4 117/110/4 57/55/4
f 93/83/6 88/63/6 34/4/6
f 71/77/4 72/75/4 9/20/4
f 113/60/4 118/112/4 58/57/4
f 72/75/4 60/72/4 10/17/4
f 61/74/3 73/73/3 11/16/3
f 73/73/3 74/84/3 12/28/3
