# Blender v3.1.2 OBJ File: 'Cut markers.blend'
# www.blender.org
v -0.070000 -0.070000 0.000000
v 0.070000 -0.070000 0.000000
v -0.070000 0.070000 0.000000
v 0.070000 0.070000 0.000000
v -0.070000 0.050000 0.000000
v -0.070000 0.030000 0.000000
v -0.070000 0.010000 0.000000
v -0.070000 -0.010000 0.000000
v -0.070000 -0.030000 0.000000
v -0.070000 -0.050000 0.000000
v -0.050000 -0.070000 0.000000
v -0.030000 -0.070000 0.000000
v -0.010000 -0.070000 0.000000
v 0.010000 -0.070000 0.000000
v 0.030000 -0.070000 0.000000
v 0.050000 -0.070000 0.000000
v 0.070000 -0.050000 0.000000
v 0.070000 -0.030000 0.000000
v 0.070000 -0.010000 0.000000
v 0.070000 0.010000 0.000000
v 0.070000 0.030000 0.000000
v 0.070000 0.050000 0.000000
v 0.050000 0.070000 0.000000
v 0.030000 0.070000 0.000000
v 0.010000 0.070000 0.000000
v -0.010000 0.070000 0.000000
v -0.030000 0.070000 0.000000
v -0.050000 0.070000 0.000000
v -0.050000 -0.050000 0.000000
v -0.050000 -0.030000 0.000000
v -0.050000 -0.010000 0.000000
v -0.050000 0.010000 0.000000
v -0.050000 0.030000 0.000000
v -0.050000 0.050000 0.000000
v -0.030000 -0.050000 0.000000
v -0.030000 -0.030000 0.000000
v -0.030000 -0.010000 0.000000
v -0.030000 0.010000 0.000000
v -0.030000 0.030000 0.000000
v -0.030000 0.050000 0.000000
v -0.010000 -0.050000 0.000000
v -0.010000 -0.030000 0.000000
v -0.010000 -0.010000 0.000000
v -0.010000 0.010000 0.000000
v -0.010000 0.030000 0.000000
v -0.010000 0.050000 0.000000
v 0.010000 -0.050000 0.000000
v 0.010000 -0.030000 0.000000
v 0.010000 -0.010000 0.000000
v 0.010000 0.010000 0.000000
v 0.010000 0.030000 0.000000
v 0.010000 0.050000 0.000000
v 0.030000 -0.050000 0.000000
v 0.030000 -0.030000 0.000000
v 0.030000 -0.010000 0.000000
v 0.030000 0.010000 0.000000
v 0.030000 0.030000 0.000000
v 0.030000 0.050000 0.000000
v 0.050000 -0.050000 0.000000
v 0.050000 -0.030000 0.000000
v 0.050000 -0.010000 0.000000
v 0.050000 0.010000 0.000000
v 0.050000 0.030000 0.000000
v 0.050000 0.050000 0.000000
v -0.070000 -0.050000 -0.003000
v -0.070000 -0.070000 -0.003000
v 0.050000 -0.070000 -0.003000
v 0.070000 -0.070000 -0.003000
v 0.070000 0.050000 -0.003000
v 0.070000 0.070000 -0.003000
v -0.050000 0.070000 -0.003000
v -0.070000 0.070000 -0.003000
v -0.070000 0.050000 -0.003000
v -0.070000 0.030000 -0.003000
v -0.070000 0.010000 -0.003000
v -0.070000 -0.010000 -0.003000
v -0.070000 -0.030000 -0.003000
v -0.050000 -0.070000 -0.003000
v -0.030000 -0.070000 -0.003000
v -0.010000 -0.070000 -0.003000
v 0.010000 -0.070000 -0.003000
v 0.030000 -0.070000 -0.003000
v 0.070000 -0.050000 -0.003000
v 0.070000 -0.030000 -0.003000
v 0.070000 -0.010000 -0.003000
v 0.070000 0.010000 -0.003000
v 0.070000 0.030000 -0.003000
v 0.050000 0.070000 -0.003000
v 0.030000 0.070000 -0.003000
v 0.010000 0.070000 -0.003000
v -0.010000 0.070000 -0.003000
v -0.030000 0.070000 -0.003000
v -0.050000 0.050000 -0.003000
v -0.050000 -0.050000 -0.003000
v -0.050000 -0.030000 -0.003000
v -0.050000 -0.010000 -0.003000
v -0.050000 0.010000 -0.003000
v -0.050000 0.030000 -0.003000
v -0.030000 0.050000 -0.003000
v -0.030000 -0.050000 -0.003000
v -0.030000 -0.030000 -0.003000
v -0.030000 -0.010000 -0.003000
v -0.030000 0.010000 -0.003000
v -0.030000 0.030000 -0.003000
v -0.010000 0.050000 -0.003000
v -0.010000 -0.050000 -0.003000
v -0.010000 -0.030000 -0.003000
v -0.010000 -0.010000 -0.003000
v -0.010000 0.010000 -0.003000
v -0.010000 0.030000 -0.003000
v 0.010000 0.050000 -0.003000
v 0.010000 -0.050000 -0.003000
v 0.010000 -0.030000 -0.003000
v 0.010000 -0.010000 -0.003000
v 0.010000 0.010000 -0.003000
v 0.010000 0.030000 -0.003000
v 0.030000 0.050000 -0.003000
v 0.030000 -0.050000 -0.003000
v 0.030000 -0.030000 -0.003000
v 0.030000 -0.010000 -0.003000
v 0.030000 0.010000 -0.003000
v 0.030000 0.030000 -0.003000
v 0.050000 0.050000 -0.003000
v 0.050000 -0.050000 -0.003000
v 0.050000 -0.030000 -0.003000
v 0.050000 -0.010000 -0.003000
v 0.050000 0.010000 -0.003000
v 0.050000 0.030000 -0.003000
vt 1.000000 0.857143
vt 0.857143 1.000000
vt 0.857143 0.857143
vt 0.000000 0.857143
vt 0.142857 1.000000
vt 0.000000 1.000000
vt 0.142857 0.857143
vt 0.285714 1.000000
vt 0.428571 0.857143
vt 0.285714 0.857143
vt 0.571429 0.857143
vt 0.428571 1.000000
vt 0.714286 0.857143
vt 0.571429 1.000000
vt 0.714286 1.000000
vt 0.142857 0.000000
vt 0.000000 0.142857
vt 0.000000 0.000000
vt 0.142857 0.142857
vt 0.000000 0.285714
vt 0.142857 0.285714
vt 0.000000 0.428571
vt 0.142857 0.571429
vt 0.000000 0.571429
vt 0.000000 0.714286
vt 0.142857 0.714286
vt 0.285714 0.000000
vt 0.285714 0.142857
vt 0.285714 0.285714
vt 0.142857 0.428571
vt 0.428571 0.000000
vt 0.428571 0.142857
vt 0.428571 0.285714
vt 0.285714 0.428571
vt 0.428571 0.428571
vt 0.285714 0.571429
vt 0.428571 0.714286
vt 0.285714 0.714286
vt 0.571429 0.000000
vt 0.571429 0.142857
vt 0.571429 0.285714
vt 0.571429 0.428571
vt 0.428571 0.571429
vt 0.571429 0.714286
vt 0.714286 0.000000
vt 0.714286 0.285714
vt 0.714286 0.571429
vt 0.571429 0.571429
vt 0.857143 0.000000
vt 0.714286 0.142857
vt 0.857143 0.285714
vt 0.714286 0.428571
vt 0.714286 0.714286
vt 1.000000 0.000000
vt 0.857143 0.142857
vt 1.000000 0.142857
vt 1.000000 0.285714
vt 0.857143 0.428571
vt 1.000000 0.428571
vt 0.857143 0.571429
vt 1.000000 0.571429
vt 0.857143 0.714286
vt 1.000000 0.714286
vt 0.857143 1.000000
vt 1.000000 0.857143
vt 0.857143 0.857143
vt 0.000000 0.857143
vt 0.142857 1.000000
vt 0.142857 0.857143
vt 0.285714 1.000000
vt 0.285714 0.857143
vt 0.428571 0.857143
vt 0.428571 1.000000
vt 0.571429 0.857143
vt 0.571429 1.000000
vt 0.714286 0.857143
vt 0.714286 1.000000
vt 0.000000 0.142857
vt 0.142857 0.000000
vt 0.000000 0.000000
vt 0.000000 0.285714
vt 0.142857 0.142857
vt 0.000000 0.428571
vt 0.142857 0.285714
vt 0.000000 0.571429
vt 0.142857 0.428571
vt 0.000000 0.714286
vt 0.142857 0.571429
vt 0.142857 0.714286
vt 0.285714 0.000000
vt 0.285714 0.142857
vt 0.285714 0.285714
vt 0.428571 0.000000
vt 0.428571 0.142857
vt 0.285714 0.428571
vt 0.428571 0.285714
vt 0.285714 0.571429
vt 0.428571 0.428571
vt 0.428571 0.714286
vt 0.285714 0.714286
vt 0.571429 0.000000
vt 0.571429 0.142857
vt 0.571429 0.285714
vt 0.428571 0.571429
vt 0.571429 0.428571
vt 0.571429 0.714286
vt 0.571429 0.571429
vt 0.714286 0.000000
vt 0.714286 0.285714
vt 0.714286 0.571429
vt 0.714286 0.714286
vt 0.714286 0.142857
vt 0.857143 0.000000
vt 0.714286 0.428571
vt 0.857143 0.285714
vt 0.857143 0.714286
vt 0.857143 0.142857
vt 1.000000 0.000000
vt 1.000000 0.142857
vt 0.857143 0.428571
vt 1.000000 0.285714
vt 0.857143 0.571429
vt 1.000000 0.428571
vt 1.000000 0.571429
vt 1.000000 0.714286
vt 0.000000 1.000000
vt 1.000000 1.000000
vt 1.000000 1.000000
vn 0.0000 0.0000 1.0000
vn 0.0000 0.0000 -1.0000
vn -1.0000 0.0000 0.0000
vn 1.0000 0.0000 0.0000
vn 0.0000 -1.0000 0.0000
vn 0.0000 1.0000 0.0000
s off
f 22/1/1 23/2/1 64/3/1
f 5/4/1 28/5/1 3/6/1
f 34/7/1 27/8/1 28/5/1
f 46/9/1 27/8/1 40/10/1
f 52/11/1 26/12/1 46/9/1
f 58/13/1 25/14/1 52/11/1
f 64/3/1 24/15/1 58/13/1
f 11/16/1 10/17/1 1/18/1
f 29/19/1 9/20/1 10/17/1
f 30/21/1 8/22/1 9/20/1
f 8/22/1 32/23/1 7/24/1
f 32/23/1 6/25/1 7/24/1
f 33/26/1 5/4/1 6/25/1
f 12/27/1 29/19/1 11/16/1
f 35/28/1 30/21/1 29/19/1
f 36/29/1 31/30/1 30/21/1
f 13/31/1 35/28/1 12/27/1
f 41/32/1 36/29/1 35/28/1
f 42/33/1 37/34/1 36/29/1
f 43/35/1 38/36/1 37/34/1
f 45/37/1 40/10/1 39/38/1
f 14/39/1 41/32/1 13/31/1
f 47/40/1 42/33/1 41/32/1
f 48/41/1 43/35/1 42/33/1
f 49/42/1 44/43/1 43/35/1
f 44/43/1 51/44/1 45/37/1
f 51/44/1 46/9/1 45/37/1
f 15/45/1 47/40/1 14/39/1
f 54/46/1 49/42/1 48/41/1
f 56/47/1 51/44/1 50/48/1
f 51/44/1 58/13/1 52/11/1
f 16/49/1 53/50/1 15/45/1
f 60/51/1 55/52/1 54/46/1
f 57/53/1 64/3/1 58/13/1
f 2/54/1 59/55/1 16/49/1
f 17/56/1 60/51/1 59/55/1
f 18/57/1 61/58/1 60/51/1
f 19/59/1 62/60/1 61/58/1
f 20/61/1 63/62/1 62/60/1
f 21/63/1 64/3/1 63/62/1
f 88/64/2 69/65/2 123/66/2
f 73/67/2 71/68/2 93/69/2
f 93/69/2 92/70/2 99/71/2
f 92/70/2 105/72/2 99/71/2
f 91/73/2 111/74/2 105/72/2
f 90/75/2 117/76/2 111/74/2
f 89/77/2 123/66/2 117/76/2
f 65/78/2 78/79/2 66/80/2
f 77/81/2 94/82/2 65/78/2
f 76/83/2 95/84/2 77/81/2
f 75/85/2 96/86/2 76/83/2
f 74/87/2 97/88/2 75/85/2
f 73/67/2 98/89/2 74/87/2
f 94/82/2 79/90/2 78/79/2
f 95/84/2 100/91/2 94/82/2
f 96/86/2 101/92/2 95/84/2
f 100/91/2 80/93/2 79/90/2
f 101/92/2 106/94/2 100/91/2
f 102/95/2 107/96/2 101/92/2
f 103/97/2 108/98/2 102/95/2
f 99/71/2 110/99/2 104/100/2
f 106/94/2 81/101/2 80/93/2
f 107/96/2 112/102/2 106/94/2
f 108/98/2 113/103/2 107/96/2
f 109/104/2 114/105/2 108/98/2
f 109/104/2 116/106/2 115/107/2
f 110/99/2 111/74/2 116/106/2
f 112/102/2 82/108/2 81/101/2
f 114/105/2 119/109/2 113/103/2
f 116/106/2 121/110/2 115/107/2
f 116/106/2 117/76/2 122/111/2
f 118/112/2 67/113/2 82/108/2
f 120/114/2 125/115/2 119/109/2
f 122/111/2 123/66/2 128/116/2
f 124/117/2 68/118/2 67/113/2
f 125/115/2 83/119/2 124/117/2
f 126/120/2 84/121/2 125/115/2
f 127/122/2 85/123/2 126/120/2
f 128/116/2 86/124/2 127/122/2
f 123/66/2 87/125/2 128/116/2
f 72/126/3 5/4/3 3/6/3
f 73/67/3 6/25/3 5/4/3
f 121/110/4 57/53/4 56/47/4
f 96/86/4 32/23/4 31/30/4
f 74/87/3 7/24/3 6/25/3
f 97/88/4 33/26/4 32/23/4
f 75/85/3 8/22/3 7/24/3
f 98/89/4 34/7/4 33/26/4
f 76/83/3 9/20/3 8/22/3
f 77/81/3 10/17/3 9/20/3
f 125/115/3 59/55/3 60/51/3
f 66/80/5 11/16/5 1/18/5
f 118/112/6 47/40/6 53/50/6
f 78/79/5 12/27/5 11/16/5
f 113/103/5 54/46/5 48/41/5
f 127/122/3 61/58/3 62/60/3
f 79/90/5 13/31/5 12/27/5
f 120/114/6 49/42/6 55/52/6
f 128/116/3 62/60/3 63/62/3
f 103/97/3 37/34/3 38/36/3
f 80/93/5 14/39/5 13/31/5
f 115/107/5 56/47/5 50/48/5
f 99/71/3 39/38/3 40/10/3
f 81/101/5 15/45/5 14/39/5
f 82/108/5 16/49/5 15/45/5
f 68/118/4 17/56/4 2/54/4
f 124/117/6 53/50/6 59/55/6
f 83/119/4 18/57/4 17/56/4
f 119/109/5 60/51/5 54/46/5
f 84/121/4 19/59/4 18/57/4
f 126/120/6 55/52/6 61/58/6
f 85/123/4 20/61/4 19/59/4
f 122/111/5 63/62/5 57/53/5
f 110/99/3 44/43/3 45/37/3
f 86/124/4 21/63/4 20/61/4
f 87/125/4 22/1/4 21/63/4
f 70/127/6 23/2/6 4/128/6
f 102/95/6 31/30/6 37/34/6
f 88/64/6 24/15/6 23/2/6
f 93/69/5 40/10/5 34/7/5
f 112/102/4 48/41/4 47/40/4
f 89/77/6 25/14/6 24/15/6
f 90/75/6 26/12/6 25/14/6
f 114/105/4 50/48/4 49/42/4
f 91/73/6 27/8/6 26/12/6
f 65/78/3 1/18/3 10/17/3
f 92/70/6 28/5/6 27/8/6
f 67/113/5 2/54/5 16/49/5
f 109/104/6 38/36/6 44/43/6
f 69/65/4 4/128/4 22/1/4
f 104/100/5 45/37/5 39/38/5
f 71/68/6 3/6/6 28/5/6
f 22/1/1 4/128/1 23/2/1
f 5/4/1 34/7/1 28/5/1
f 34/7/1 40/10/1 27/8/1
f 46/9/1 26/12/1 27/8/1
f 52/11/1 25/14/1 26/12/1
f 58/13/1 24/15/1 25/14/1
f 64/3/1 23/2/1 24/15/1
f 11/16/1 29/19/1 10/17/1
f 29/19/1 30/21/1 9/20/1
f 30/21/1 31/30/1 8/22/1
f 8/22/1 31/30/1 32/23/1
f 32/23/1 33/26/1 6/25/1
f 33/26/1 34/7/1 5/4/1
f 12/27/1 35/28/1 29/19/1
f 35/28/1 36/29/1 30/21/1
f 36/29/1 37/34/1 31/30/1
f 13/31/1 41/32/1 35/28/1
f 41/32/1 42/33/1 36/29/1
f 42/33/1 43/35/1 37/34/1
f 43/35/1 44/43/1 38/36/1
f 45/37/1 46/9/1 40/10/1
f 14/39/1 47/40/1 41/32/1
f 47/40/1 48/41/1 42/33/1
f 48/41/1 49/42/1 43/35/1
f 49/42/1 50/48/1 44/43/1
f 44/43/1 50/48/1 51/44/1
f 51/44/1 52/11/1 46/9/1
f 15/45/1 53/50/1 47/40/1
f 54/46/1 55/52/1 49/42/1
f 56/47/1 57/53/1 51/44/1
f 51/44/1 57/53/1 58/13/1
f 16/49/1 59/55/1 53/50/1
f 60/51/1 61/58/1 55/52/1
f 57/53/1 63/62/1 64/3/1
f 2/54/1 17/56/1 59/55/1
f 17/56/1 18/57/1 60/51/1
f 18/57/1 19/59/1 61/58/1
f 19/59/1 20/61/1 62/60/1
f 20/61/1 21/63/1 63/62/1
f 21/63/1 22/1/1 64/3/1
f 88/64/2 70/127/2 69/65/2
f 73/67/2 72/126/2 71/68/2
f 93/69/2 71/68/2 92/70/2
f 92/70/2 91/73/2 105/72/2
f 91/73/2 90/75/2 111/74/2
f 90/75/2 89/77/2 117/76/2
f 89/77/2 88/64/2 123/66/2
f 65/78/2 94/82/2 78/79/2
f 77/81/2 95/84/2 94/82/2
f 76/83/2 96/86/2 95/84/2
f 75/85/2 97/88/2 96/86/2
f 74/87/2 98/89/2 97/88/2
f 73/67/2 93/69/2 98/89/2
f 94/82/2 100/91/2 79/90/2
f 95/84/2 101/92/2 100/91/2
f 96/86/2 102/95/2 101/92/2
f 100/91/2 106/94/2 80/93/2
f 101/92/2 107/96/2 106/94/2
f 102/95/2 108/98/2 107/96/2
f 103/97/2 109/104/2 108/98/2
f 99/71/2 105/72/2 110/99/2
f 106/94/2 112/102/2 81/101/2
f 107/96/2 113/103/2 112/102/2
f 108/98/2 114/105/2 113/103/2
f 109/104/2 115/107/2 114/105/2
f 109/104/2 110/99/2 116/106/2
f 110/99/2 105/72/2 111/74/2
f 112/102/2 118/112/2 82/108/2
f 114/105/2 120/114/2 119/109/2
f 116/106/2 122/111/2 121/110/2
f 116/106/2 111/74/2 117/76/2
f 118/112/2 124/117/2 67/113/2
f 120/114/2 126/120/2 125/115/2
f 122/111/2 117/76/2 123/66/2
f 124/117/2 83/119/2 68/118/2
f 125/115/2 84/121/2 83/119/2
f 126/120/2 85/123/2 84/121/2
f 127/122/2 86/124/2 85/123/2
f 128/116/2 87/125/2 86/124/2
f 123/66/2 69/65/2 87/125/2
f 72/126/3 73/67/3 5/4/3
f 73/67/3 74/87/3 6/25/3
f 121/110/4 122/111/4 57/53/4
f 96/86/4 97/88/4 32/23/4
f 74/87/3 75/85/3 7/24/3
f 97/88/4 98/89/4 33/26/4
f 75/85/3 76/83/3 8/22/3
f 98/89/4 93/69/4 34/7/4
f 76/83/3 77/81/3 9/20/3
f 77/81/3 65/78/3 10/17/3
f 125/115/3 124/117/3 59/55/3
f 66/80/5 78/79/5 11/16/5
f 118/112/6 112/102/6 47/40/6
f 78/79/5 79/90/5 12/27/5
f 113/103/5 119/109/5 54/46/5
f 127/122/3 126/120/3 61/58/3
f 79/90/5 80/93/5 13/31/5
f 120/114/6 114/105/6 49/42/6
f 128/116/3 127/122/3 62/60/3
f 103/97/3 102/95/3 37/34/3
f 80/93/5 81/101/5 14/39/5
f 115/107/5 121/110/5 56/47/5
f 99/71/3 104/100/3 39/38/3
f 81/101/5 82/108/5 15/45/5
f 82/108/5 67/113/5 16/49/5
f 68/118/4 83/119/4 17/56/4
f 124/117/6 118/112/6 53/50/6
f 83/119/4 84/121/4 18/57/4
f 119/109/5 125/115/5 60/51/5
f 84/121/4 85/123/4 19/59/4
f 126/120/6 120/114/6 55/52/6
f 85/123/4 86/124/4 20/61/4
f 122/111/5 128/116/5 63/62/5
f 110/99/3 109/104/3 44/43/3
f 86/124/4 87/125/4 21/63/4
f 87/125/4 69/65/4 22/1/4
f 70/127/6 88/64/6 23/2/6
f 102/95/6 96/86/6 31/30/6
f 88/64/6 89/77/6 24/15/6
f 93/69/5 99/71/5 40/10/5
f 112/102/4 113/103/4 48/41/4
f 89/77/6 90/75/6 25/14/6
f 90/75/6 91/73/6 26/12/6
f 114/105/4 115/107/4 50/48/4
f 91/73/6 92/70/6 27/8/6
f 65/78/3 66/80/3 1/18/3
f 92/70/6 71/68/6 28/5/6
f 67/113/5 68/118/5 2/54/5
f 109/104/6 103/97/6 38/36/6
f 69/65/4 70/127/4 4/128/4
f 104/100/5 110/99/5 45/37/5
f 71/68/6 72/126/6 3/6/6
