# Blender v3.1.2 OBJ File: 'Cut markers.blend'
# www.blender.org
v -0.035000 -0.035000 0.000000
v 0.035000 -0.035000 0.000000
v -0.035000 0.035000 0.000000
v 0.035000 0.035000 0.000000
v -0.035000 0.025000 0.000000
v -0.035000 0.015000 0.000000
v -0.035000 0.005000 0.000000
v -0.035000 -0.005000 0.000000
v -0.035000 -0.015000 0.000000
v -0.035000 -0.025000 0.000000
v -0.025000 -0.035000 0.000000
v -0.015000 -0.035000 0.000000
v -0.005000 -0.035000 0.000000
v 0.005000 -0.035000 0.000000
v 0.015000 -0.035000 0.000000
v 0.025000 -0.035000 0.000000
v 0.035000 -0.025000 0.000000
v 0.035000 -0.015000 0.000000
v 0.035000 -0.005000 0.000000
v 0.035000 0.005000 0.000000
v 0.035000 0.015000 0.000000
v 0.035000 0.025000 0.000000
v 0.025000 0.035000 0.000000
v 0.015000 0.035000 0.000000
v 0.005000 0.035000 0.000000
v -0.005000 0.035000 0.000000
v -0.015000 0.035000 0.000000
v -0.025000 0.035000 0.000000
v -0.025000 -0.025000 0.000000
v -0.025000 -0.015000 0.000000
v -0.025000 -0.005000 0.000000
v -0.025000 0.005000 0.000000
v -0.025000 0.015000 0.000000
v -0.025000 0.025000 0.000000
v -0.015000 -0.025000 0.000000
v -0.015000 -0.015000 0.000000
v -0.015000 -0.005000 0.000000
v -0.015000 0.005000 0.000000
v -0.015000 0.015000 0.000000
v -0.015000 0.025000 0.000000
v -0.005000 -0.025000 0.000000
v -0.005000 -0.015000 0.000000
v -0.005000 -0.005000 0.000000
v -0.005000 0.005000 0.000000
v -0.005000 0.015000 0.000000
v -0.005000 0.025000 0.000000
v 0.005000 -0.025000 0.000000
v 0.005000 -0.015000 0.000000
v 0.005000 -0.005000 0.000000
v 0.005000 0.005000 0.000000
v 0.005000 0.025000 0.000000
v 0.015000 -0.025000 0.000000
v 0.015000 -0.015000 0.000000
v 0.015000 -0.005000 0.000000
v 0.015000 0.005000 0.000000
v 0.015000 0.015000 0.000000
v 0.015000 0.025000 0.000000
v 0.025000 -0.025000 0.000000
v 0.025000 -0.015000 0.000000
v 0.025000 -0.005000 0.000000
v 0.025000 0.005000 0.000000
v 0.025000 0.015000 0.000000
v 0.025000 0.025000 0.000000
v -0.035000 -0.025000 -0.003000
v -0.035000 -0.035000 -0.003000
v 0.025000 -0.035000 -0.003000
v 0.035000 -0.035000 -0.003000
v 0.035000 0.025000 -0.003000
v 0.035000 0.035000 -0.003000
v -0.025000 0.035000 -0.003000
v -0.035000 0.035000 -0.003000
v -0.035000 0.025000 -0.003000
v -0.035000 0.015000 -0.003000
v -0.035000 0.005000 -0.003000
v -0.035000 -0.005000 -0.003000
v -0.035000 -0.015000 -0.003000
v -0.025000 -0.035000 -0.003000
v -0.015000 -0.035000 -0.003000
v -0.005000 -0.035000 -0.003000
v 0.005000 -0.035000 -0.003000
v 0.015000 -0.035000 -0.003000
v 0.035000 -0.025000 -0.003000
v 0.035000 -0.015000 -0.003000
v 0.035000 -0.005000 -0.003000
v 0.035000 0.005000 -0.003000
v 0.035000 0.015000 -0.003000
v 0.025000 0.035000 -0.003000
v 0.015000 0.035000 -0.003000
v 0.005000 0.035000 -0.003000
v -0.005000 0.035000 -0.003000
v -0.015000 0.035000 -0.003000
v -0.025000 0.025000 -0.003000
v -0.025000 -0.025000 -0.003000
v -0.025000 -0.015000 -0.003000
v -0.025000 -0.005000 -0.003000
v -0.025000 0.005000 -0.003000
v -0.025000 0.015000 -0.003000
v -0.015000 0.025000 -0.003000
v -0.015000 -0.025000 -0.003000
v -0.015000 -0.015000 -0.003000
v -0.015000 -0.005000 -0.003000
v -0.015000 0.005000 -0.003000
v -0.015000 0.015000 -0.003000
v -0.005000 0.025000 -0.003000
v -0.005000 -0.025000 -0.003000
v -0.005000 -0.015000 -0.003000
v -0.005000 -0.005000 -0.003000
v -0.005000 0.005000 -0.003000
v -0.005000 0.015000 -0.003000
v 0.005000 0.025000 -0.003000
v 0.005000 -0.025000 -0.003000
v 0.005000 -0.015000 -0.003000
v 0.005000 -0.005000 -0.003000
v 0.005000 0.005000 -0.003000
v 0.015000 0.025000 -0.003000
v 0.015000 -0.025000 -0.003000
v 0.015000 -0.015000 -0.003000
v 0.015000 -0.005000 -0.003000
v 0.015000 0.005000 -0.003000
v 0.015000 0.015000 -0.003000
v 0.025000 0.025000 -0.003000
v 0.025000 -0.025000 -0.003000
v 0.025000 -0.015000 -0.003000
v 0.025000 -0.005000 -0.003000
v 0.025000 0.005000 -0.003000
v 0.025000 0.015000 -0.003000
vt 1.000000 0.857143
vt 0.857143 1.000000
vt 0.857143 0.857143
vt 0.000000 0.857143
vt 0.142857 1.000000
vt 0.000000 1.000000
vt 0.142857 0.857143
vt 0.285714 1.000000
vt 0.428571 0.857143
vt 0.285714 0.857143
vt 0.571429 0.857143
vt 0.428571 1.000000
vt 0.714286 0.857143
vt 0.571429 1.000000
vt 0.714286 1.000000
vt 0.142857 0.000000
vt 0.000000 0.142857
vt 0.000000 0.000000
vt 0.142857 0.142857
vt 0.000000 0.285714
vt 0.142857 0.285714
vt 0.000000 0.428571
vt 0.142857 0.571429
vt 0.000000 0.571429
vt 0.000000 0.714286
vt 0.142857 0.714286
vt 0.285714 0.000000
vt 0.285714 0.142857
vt 0.285714 0.285714
vt 0.142857 0.428571
vt 0.285714 0.428571
vt 0.285714 0.571429
vt 0.285714 0.714286
vt 0.428571 0.000000
vt 0.428571 0.285714
vt 0.428571 0.428571
vt 0.428571 0.714286
vt 0.571429 0.000000
vt 0.428571 0.142857
vt 0.571429 0.285714
vt 0.571429 0.428571
vt 0.428571 0.571429
vt 0.714286 0.000000
vt 0.571429 0.142857
vt 0.714286 0.428571
vt 0.571429 0.571429
vt 0.857143 0.000000
vt 0.714286 0.142857
vt 0.857143 0.142857
vt 0.714286 0.285714
vt 0.857143 0.428571
vt 0.714286 0.571429
vt 0.714286 0.714286
vt 1.000000 0.000000
vt 1.000000 0.142857
vt 0.857143 0.285714
vt 1.000000 0.285714
vt 1.000000 0.428571
vt 0.857143 0.571429
vt 1.000000 0.571429
vt 0.857143 0.714286
vt 1.000000 0.714286
vt 0.857143 1.000000
vt 1.000000 0.857143
vt 0.857143 0.857143
vt 0.000000 0.857143
vt 0.142857 1.000000
vt 0.142857 0.857143
vt 0.285714 1.000000
vt 0.285714 0.857143
vt 0.428571 0.857143
vt 0.428571 1.000000
vt 0.571429 0.857143
vt 0.571429 1.000000
vt 0.714286 0.857143
vt 0.714286 1.000000
vt 0.000000 0.142857
vt 0.142857 0.000000
vt 0.000000 0.000000
vt 0.000000 0.285714
vt 0.142857 0.142857
vt 0.000000 0.428571
vt 0.142857 0.285714
vt 0.000000 0.571429
vt 0.142857 0.428571
vt 0.000000 0.714286
vt 0.142857 0.571429
vt 0.142857 0.714286
vt 0.285714 0.000000
vt 0.285714 0.142857
vt 0.285714 0.285714
vt 0.285714 0.428571
vt 0.285714 0.571429
vt 0.285714 0.714286
vt 0.428571 0.000000
vt 0.428571 0.285714
vt 0.428571 0.428571
vt 0.428571 0.714286
vt 0.428571 0.142857
vt 0.571429 0.000000
vt 0.571429 0.285714
vt 0.428571 0.571429
vt 0.571429 0.428571
vt 0.571429 0.142857
vt 0.714286 0.000000
vt 0.571429 0.571429
vt 0.714286 0.428571
vt 0.714286 0.142857
vt 0.857143 0.000000
vt 0.714286 0.285714
vt 0.857143 0.142857
vt 0.714286 0.571429
vt 0.857143 0.428571
vt 0.714286 0.714286
vt 0.857143 0.714286
vt 1.000000 0.000000
vt 0.857143 0.285714
vt 1.000000 0.142857
vt 1.000000 0.285714
vt 0.857143 0.571429
vt 1.000000 0.428571
vt 1.000000 0.571429
vt 1.000000 0.714286
vt 0.000000 1.000000
vt 1.000000 1.000000
vt 1.000000 1.000000
vn 0.0000 0.0000 1.0000
vn 0.0000 0.0000 -1.0000
vn -1.0000 -0.0000 0.0000
vn 0.0000 1.0000 0.0000
vn 0.0000 -1.0000 0.0000
vn 1.0000 0.0000 0.0000
s off
f 22/1/1 23/2/1 63/3/1
f 5/4/1 28/5/1 3/6/1
f 34/7/1 27/8/1 28/5/1
f 46/9/1 27/8/1 40/10/1
f 51/11/1 26/12/1 46/9/1
f 57/13/1 25/14/1 51/11/1
f 63/3/1 24/15/1 57/13/1
f 11/16/1 10/17/1 1/18/1
f 29/19/1 9/20/1 10/17/1
f 30/21/1 8/22/1 9/20/1
f 8/22/1 32/23/1 7/24/1
f 32/23/1 6/25/1 7/24/1
f 33/26/1 5/4/1 6/25/1
f 12/27/1 29/19/1 11/16/1
f 35/28/1 30/21/1 29/19/1
f 36/29/1 31/30/1 30/21/1
f 37/31/1 32/23/1 31/30/1
f 38/32/1 33/26/1 32/23/1
f 39/33/1 34/7/1 33/26/1
f 13/34/1 35/28/1 12/27/1
f 42/35/1 37/31/1 36/29/1
f 43/36/1 38/32/1 37/31/1
f 45/37/1 40/10/1 39/33/1
f 14/38/1 41/39/1 13/34/1
f 48/40/1 43/36/1 42/35/1
f 49/41/1 44/42/1 43/36/1
f 15/43/1 47/44/1 14/38/1
f 54/45/1 50/46/1 49/41/1
f 16/47/1 52/48/1 15/43/1
f 58/49/1 53/50/1 52/48/1
f 60/51/1 55/52/1 54/45/1
f 56/53/1 63/3/1 57/13/1
f 2/54/1 58/49/1 16/47/1
f 17/55/1 59/56/1 58/49/1
f 18/57/1 60/51/1 59/56/1
f 19/58/1 61/59/1 60/51/1
f 20/60/1 62/61/1 61/59/1
f 21/62/1 63/3/1 62/61/1
f 87/63/2 68/64/2 121/65/2
f 72/66/2 70/67/2 92/68/2
f 92/68/2 91/69/2 98/70/2
f 91/69/2 104/71/2 98/70/2
f 90/72/2 110/73/2 104/71/2
f 89/74/2 115/75/2 110/73/2
f 88/76/2 121/65/2 115/75/2
f 64/77/2 77/78/2 65/79/2
f 76/80/2 93/81/2 64/77/2
f 75/82/2 94/83/2 76/80/2
f 74/84/2 95/85/2 75/82/2
f 73/86/2 96/87/2 74/84/2
f 72/66/2 97/88/2 73/86/2
f 93/81/2 78/89/2 77/78/2
f 94/83/2 99/90/2 93/81/2
f 95/85/2 100/91/2 94/83/2
f 96/87/2 101/92/2 95/85/2
f 97/88/2 102/93/2 96/87/2
f 92/68/2 103/94/2 97/88/2
f 99/90/2 79/95/2 78/89/2
f 101/92/2 106/96/2 100/91/2
f 102/93/2 107/97/2 101/92/2
f 98/70/2 109/98/2 103/94/2
f 105/99/2 80/100/2 79/95/2
f 107/97/2 112/101/2 106/96/2
f 108/102/2 113/103/2 107/97/2
f 111/104/2 81/105/2 80/100/2
f 114/106/2 118/107/2 113/103/2
f 116/108/2 66/109/2 81/105/2
f 117/110/2 122/111/2 116/108/2
f 119/112/2 124/113/2 118/107/2
f 120/114/2 121/65/2 126/115/2
f 122/111/2 67/116/2 66/109/2
f 123/117/2 82/118/2 122/111/2
f 124/113/2 83/119/2 123/117/2
f 125/120/2 84/121/2 124/113/2
f 126/115/2 85/122/2 125/120/2
f 121/65/2 86/123/2 126/115/2
f 115/75/3 56/53/3 57/13/3
f 70/67/4 3/6/4 28/5/4
f 106/96/5 48/40/5 42/35/5
f 71/124/3 5/4/3 3/6/3
f 72/66/3 6/25/3 5/4/3
f 114/106/4 44/42/4 50/46/4
f 73/86/3 7/24/3 6/25/3
f 104/71/5 51/11/5 46/9/5
f 124/113/3 59/56/3 60/51/3
f 74/84/3 8/22/3 7/24/3
f 116/108/4 47/44/4 52/48/4
f 75/82/3 9/20/3 8/22/3
f 113/103/5 54/45/5 49/41/5
f 126/115/3 61/59/3 62/61/3
f 76/80/3 10/17/3 9/20/3
f 119/112/4 50/46/4 55/52/4
f 65/79/5 11/16/5 1/18/5
f 110/73/5 57/13/5 51/11/5
f 99/90/6 36/29/6 35/28/6
f 77/78/5 12/27/5 11/16/5
f 78/89/5 13/34/5 12/27/5
f 123/117/4 53/50/4 59/56/4
f 79/95/5 14/38/5 13/34/5
f 118/107/5 60/51/5 54/45/5
f 102/93/6 39/33/6 38/32/6
f 80/100/5 15/43/5 14/38/5
f 125/120/4 55/52/4 61/59/4
f 81/105/5 16/47/5 15/43/5
f 120/114/5 62/61/5 56/53/5
f 67/116/6 17/55/6 2/54/6
f 82/118/6 18/57/6 17/55/6
f 83/119/6 19/58/6 18/57/6
f 84/121/6 20/60/6 19/58/6
f 109/98/6 46/9/6 45/37/6
f 85/122/6 21/62/6 20/60/6
f 86/123/6 22/1/6 21/62/6
f 69/125/4 23/2/4 4/126/4
f 105/99/4 35/28/4 41/39/4
f 112/101/6 49/41/6 48/40/6
f 87/63/4 24/15/4 23/2/4
f 100/91/5 42/35/5 36/29/5
f 88/76/4 25/14/4 24/15/4
f 89/74/4 26/12/4 25/14/4
f 108/102/4 38/32/4 44/42/4
f 90/72/4 27/8/4 26/12/4
f 64/77/3 1/18/3 10/17/3
f 103/94/5 45/37/5 39/33/5
f 117/110/3 52/48/3 53/50/3
f 91/69/4 28/5/4 27/8/4
f 66/109/5 2/54/5 16/47/5
f 68/64/6 4/126/6 22/1/6
f 111/104/4 41/39/4 47/44/4
f 22/1/1 4/126/1 23/2/1
f 5/4/1 34/7/1 28/5/1
f 34/7/1 40/10/1 27/8/1
f 46/9/1 26/12/1 27/8/1
f 51/11/1 25/14/1 26/12/1
f 57/13/1 24/15/1 25/14/1
f 63/3/1 23/2/1 24/15/1
f 11/16/1 29/19/1 10/17/1
f 29/19/1 30/21/1 9/20/1
f 30/21/1 31/30/1 8/22/1
f 8/22/1 31/30/1 32/23/1
f 32/23/1 33/26/1 6/25/1
f 33/26/1 34/7/1 5/4/1
f 12/27/1 35/28/1 29/19/1
f 35/28/1 36/29/1 30/21/1
f 36/29/1 37/31/1 31/30/1
f 37/31/1 38/32/1 32/23/1
f 38/32/1 39/33/1 33/26/1
f 39/33/1 40/10/1 34/7/1
f 13/34/1 41/39/1 35/28/1
f 42/35/1 43/36/1 37/31/1
f 43/36/1 44/42/1 38/32/1
f 45/37/1 46/9/1 40/10/1
f 14/38/1 47/44/1 41/39/1
f 48/40/1 49/41/1 43/36/1
f 49/41/1 50/46/1 44/42/1
f 15/43/1 52/48/1 47/44/1
f 54/45/1 55/52/1 50/46/1
f 16/47/1 58/49/1 52/48/1
f 58/49/1 59/56/1 53/50/1
f 60/51/1 61/59/1 55/52/1
f 56/53/1 62/61/1 63/3/1
f 2/54/1 17/55/1 58/49/1
f 17/55/1 18/57/1 59/56/1
f 18/57/1 19/58/1 60/51/1
f 19/58/1 20/60/1 61/59/1
f 20/60/1 21/62/1 62/61/1
f 21/62/1 22/1/1 63/3/1
f 87/63/2 69/125/2 68/64/2
f 72/66/2 71/124/2 70/67/2
f 92/68/2 70/67/2 91/69/2
f 91/69/2 90/72/2 104/71/2
f 90/72/2 89/74/2 110/73/2
f 89/74/2 88/76/2 115/75/2
f 88/76/2 87/63/2 121/65/2
f 64/77/2 93/81/2 77/78/2
f 76/80/2 94/83/2 93/81/2
f 75/82/2 95/85/2 94/83/2
f 74/84/2 96/87/2 95/85/2
f 73/86/2 97/88/2 96/87/2
f 72/66/2 92/68/2 97/88/2
f 93/81/2 99/90/2 78/89/2
f 94/83/2 100/91/2 99/90/2
f 95/85/2 101/92/2 100/91/2
f 96/87/2 102/93/2 101/92/2
f 97/88/2 103/94/2 102/93/2
f 92/68/2 98/70/2 103/94/2
f 99/90/2 105/99/2 79/95/2
f 101/92/2 107/97/2 106/96/2
f 102/93/2 108/102/2 107/97/2
f 98/70/2 104/71/2 109/98/2
f 105/99/2 111/104/2 80/100/2
f 107/97/2 113/103/2 112/101/2
f 108/102/2 114/106/2 113/103/2
f 111/104/2 116/108/2 81/105/2
f 114/106/2 119/112/2 118/107/2
f 116/108/2 122/111/2 66/109/2
f 117/110/2 123/117/2 122/111/2
f 119/112/2 125/120/2 124/113/2
f 120/114/2 115/75/2 121/65/2
f 122/111/2 82/118/2 67/116/2
f 123/117/2 83/119/2 82/118/2
f 124/113/2 84/121/2 83/119/2
f 125/120/2 85/122/2 84/121/2
f 126/115/2 86/123/2 85/122/2
f 121/65/2 68/64/2 86/123/2
f 115/75/3 120/114/3 56/53/3
f 70/67/4 71/124/4 3/6/4
f 106/96/5 112/101/5 48/40/5
f 71/124/3 72/66/3 5/4/3
f 72/66/3 73/86/3 6/25/3
f 114/106/4 108/102/4 44/42/4
f 73/86/3 74/84/3 7/24/3
f 104/71/5 110/73/5 51/11/5
f 124/113/3 123/117/3 59/56/3
f 74/84/3 75/82/3 8/22/3
f 116/108/4 111/104/4 47/44/4
f 75/82/3 76/80/3 9/20/3
f 113/103/5 118/107/5 54/45/5
f 126/115/3 125/120/3 61/59/3
f 76/80/3 64/77/3 10/17/3
f 119/112/4 114/106/4 50/46/4
f 65/79/5 77/78/5 11/16/5
f 110/73/5 115/75/5 57/13/5
f 99/90/6 100/91/6 36/29/6
f 77/78/5 78/89/5 12/27/5
f 78/89/5 79/95/5 13/34/5
f 123/117/4 117/110/4 53/50/4
f 79/95/5 80/100/5 14/38/5
f 118/107/5 124/113/5 60/51/5
f 102/93/6 103/94/6 39/33/6
f 80/100/5 81/105/5 15/43/5
f 125/120/4 119/112/4 55/52/4
f 81/105/5 66/109/5 16/47/5
f 120/114/5 126/115/5 62/61/5
f 67/116/6 82/118/6 17/55/6
f 82/118/6 83/119/6 18/57/6
f 83/119/6 84/121/6 19/58/6
f 84/121/6 85/122/6 20/60/6
f 109/98/6 104/71/6 46/9/6
f 85/122/6 86/123/6 21/62/6
f 86/123/6 68/64/6 22/1/6
f 69/125/4 87/63/4 23/2/4
f 105/99/4 99/90/4 35/28/4
f 112/101/6 113/103/6 49/41/6
f 87/63/4 88/76/4 24/15/4
f 100/91/5 106/96/5 42/35/5
f 88/76/4 89/74/4 25/14/4
f 89/74/4 90/72/4 26/12/4
f 108/102/4 102/93/4 38/32/4
f 90/72/4 91/69/4 27/8/4
f 64/77/3 65/79/3 1/18/3
f 103/94/5 109/98/5 45/37/5
f 117/110/3 116/108/3 52/48/3
f 91/69/4 70/67/4 28/5/4
f 66/109/5 67/116/5 2/54/5
f 68/64/6 69/125/6 4/126/6
f 111/104/4 105/99/4 41/39/4
