# Blender v3.1.2 OBJ File: 'Cut markers.blend'
# www.blender.org
v -0.035000 -0.035000 0.000000
v 0.035000 -0.035000 0.000000
v -0.035000 0.035000 0.000000
v 0.035000 0.035000 0.000000
v -0.035000 0.025000 0.000000
v -0.035000 0.015000 0.000000
v -0.035000 0.005000 0.000000
v -0.035000 -0.005000 0.000000
v -0.035000 -0.015000 0.000000
v -0.035000 -0.025000 0.000000
v -0.025000 -0.035000 0.000000
v -0.015000 -0.035000 0.000000
v -0.005000 -0.035000 0.000000
v 0.005000 -0.035000 0.000000
v 0.015000 -0.035000 0.000000
v 0.025000 -0.035000 0.000000
v 0.035000 -0.025000 0.000000
v 0.035000 -0.015000 0.000000
v 0.035000 -0.005000 0.000000
v 0.035000 0.005000 0.000000
v 0.035000 0.015000 0.000000
v 0.035000 0.025000 0.000000
v 0.025000 0.035000 0.000000
v 0.015000 0.035000 0.000000
v 0.005000 0.035000 0.000000
v -0.005000 0.035000 0.000000
v -0.015000 0.035000 0.000000
v -0.025000 0.035000 0.000000
v -0.025000 -0.025000 0.000000
v -0.025000 -0.015000 0.000000
v -0.025000 -0.005000 0.000000
v -0.025000 0.005000 0.000000
v -0.025000 0.015000 0.000000
v -0.025000 0.025000 0.000000
v -0.015000 -0.025000 0.000000
v -0.015000 -0.015000 0.000000
v -0.015000 -0.005000 0.000000
v -0.015000 0.005000 0.000000
v -0.015000 0.025000 0.000000
v -0.005000 -0.025000 0.000000
v -0.005000 -0.015000 0.000000
v -0.005000 -0.005000 0.000000
v -0.005000 0.005000 0.000000
v -0.005000 0.025000 0.000000
v 0.005000 -0.025000 0.000000
v 0.005000 -0.015000 0.000000
v 0.005000 -0.005000 0.000000
v 0.005000 0.005000 0.000000
v 0.005000 0.015000 0.000000
v 0.005000 0.025000 0.000000
v 0.015000 -0.025000 0.000000
v 0.015000 -0.015000 0.000000
v 0.015000 -0.005000 0.000000
v 0.015000 0.005000 0.000000
v 0.015000 0.015000 0.000000
v 0.015000 0.025000 0.000000
v 0.025000 -0.025000 0.000000
v 0.025000 -0.015000 0.000000
v 0.025000 -0.005000 0.000000
v 0.025000 0.005000 0.000000
v 0.025000 0.015000 0.000000
v 0.025000 0.025000 0.000000
v -0.035000 -0.025000 -0.003000
v -0.035000 -0.035000 -0.003000
v 0.025000 -0.035000 -0.003000
v 0.035000 -0.035000 -0.003000
v 0.035000 0.025000 -0.003000
v 0.035000 0.035000 -0.003000
v -0.025000 0.035000 -0.003000
v -0.035000 0.035000 -0.003000
v -0.035000 0.025000 -0.003000
v -0.035000 0.015000 -0.003000
v -0.035000 0.005000 -0.003000
v -0.035000 -0.005000 -0.003000
v -0.035000 -0.015000 -0.003000
v -0.025000 -0.035000 -0.003000
v -0.015000 -0.035000 -0.003000
v -0.005000 -0.035000 -0.003000
v 0.005000 -0.035000 -0.003000
v 0.015000 -0.035000 -0.003000
v 0.035000 -0.025000 -0.003000
v 0.035000 -0.015000 -0.003000
v 0.035000 -0.005000 -0.003000
v 0.035000 0.005000 -0.003000
v 0.035000 0.015000 -0.003000
v 0.025000 0.035000 -0.003000
v 0.015000 0.035000 -0.003000
v 0.005000 0.035000 -0.003000
v -0.005000 0.035000 -0.003000
v -0.015000 0.035000 -0.003000
v -0.025000 0.025000 -0.003000
v -0.025000 -0.025000 -0.003000
v -0.025000 -0.015000 -0.003000
v -0.025000 -0.005000 -0.003000
v -0.025000 0.005000 -0.003000
v -0.025000 0.015000 -0.003000
v -0.015000 0.025000 -0.003000
v -0.015000 -0.025000 -0.003000
v -0.015000 -0.015000 -0.003000
v -0.015000 -0.005000 -0.003000
v -0.015000 0.005000 -0.003000
v -0.005000 0.025000 -0.003000
v -0.005000 -0.025000 -0.003000
v -0.005000 -0.015000 -0.003000
v -0.005000 -0.005000 -0.003000
v -0.005000 0.005000 -0.003000
v 0.005000 0.025000 -0.003000
v 0.005000 -0.025000 -0.003000
v 0.005000 -0.015000 -0.003000
v 0.005000 -0.005000 -0.003000
v 0.005000 0.005000 -0.003000
v 0.005000 0.015000 -0.003000
v 0.015000 0.025000 -0.003000
v 0.015000 -0.025000 -0.003000
v 0.015000 -0.015000 -0.003000
v 0.015000 -0.005000 -0.003000
v 0.015000 0.005000 -0.003000
v 0.015000 0.015000 -0.003000
v 0.025000 0.025000 -0.003000
v 0.025000 -0.025000 -0.003000
v 0.025000 -0.015000 -0.003000
v 0.025000 -0.005000 -0.003000
v 0.025000 0.005000 -0.003000
v 0.025000 0.015000 -0.003000
vt 1.000000 0.857143
vt 0.857143 1.000000
vt 0.857143 0.857143
vt 0.000000 0.857143
vt 0.142857 1.000000
vt 0.000000 1.000000
vt 0.142857 0.857143
vt 0.285714 1.000000
vt 0.428571 0.857143
vt 0.285714 0.857143
vt 0.571429 0.857143
vt 0.428571 1.000000
vt 0.714286 0.857143
vt 0.571429 1.000000
vt 0.714286 1.000000
vt 0.142857 0.000000
vt 0.000000 0.142857
vt 0.000000 0.000000
vt 0.142857 0.142857
vt 0.000000 0.285714
vt 0.142857 0.285714
vt 0.000000 0.428571
vt 0.142857 0.571429
vt 0.000000 0.571429
vt 0.000000 0.714286
vt 0.142857 0.714286
vt 0.285714 0.000000
vt 0.285714 0.142857
vt 0.285714 0.428571
vt 0.142857 0.428571
vt 0.428571 0.000000
vt 0.571429 0.000000
vt 0.428571 0.142857
vt 0.571429 0.142857
vt 0.428571 0.285714
vt 0.571429 0.285714
vt 0.428571 0.428571
vt 0.571429 0.428571
vt 0.428571 0.571429
vt 0.714286 0.000000
vt 0.714286 0.142857
vt 0.714286 0.428571
vt 0.571429 0.571429
vt 0.714286 0.571429
vt 0.571429 0.714286
vt 0.857143 0.000000
vt 0.857143 0.428571
vt 0.857143 0.571429
vt 0.714286 0.714286
vt 1.000000 0.000000
vt 0.857143 0.142857
vt 1.000000 0.142857
vt 0.857143 0.285714
vt 1.000000 0.285714
vt 1.000000 0.428571
vt 1.000000 0.571429
vt 0.857143 0.714286
vt 1.000000 0.714286
vt 0.857143 1.000000
vt 1.000000 0.857143
vt 0.857143 0.857143
vt 0.000000 0.857143
vt 0.142857 1.000000
vt 0.142857 0.857143
vt 0.285714 1.000000
vt 0.285714 0.857143
vt 0.428571 0.857143
vt 0.428571 1.000000
vt 0.571429 0.857143
vt 0.571429 1.000000
vt 0.714286 0.857143
vt 0.714286 1.000000
vt 0.000000 0.142857
vt 0.142857 0.000000
vt 0.000000 0.000000
vt 0.000000 0.285714
vt 0.142857 0.142857
vt 0.000000 0.428571
vt 0.142857 0.285714
vt 0.000000 0.571429
vt 0.142857 0.428571
vt 0.000000 0.714286
vt 0.142857 0.571429
vt 0.142857 0.714286
vt 0.285714 0.000000
vt 0.285714 0.142857
vt 0.285714 0.428571
vt 0.428571 0.000000
vt 0.428571 0.142857
vt 0.571429 0.000000
vt 0.428571 0.285714
vt 0.571429 0.142857
vt 0.428571 0.428571
vt 0.571429 0.285714
vt 0.428571 0.571429
vt 0.571429 0.428571
vt 0.714286 0.000000
vt 0.714286 0.142857
vt 0.571429 0.571429
vt 0.714286 0.428571
vt 0.571429 0.714286
vt 0.714286 0.571429
vt 0.714286 0.714286
vt 0.857143 0.000000
vt 0.857143 0.428571
vt 0.857143 0.571429
vt 0.857143 0.714286
vt 0.857143 0.142857
vt 1.000000 0.000000
vt 0.857143 0.285714
vt 1.000000 0.142857
vt 1.000000 0.285714
vt 1.000000 0.428571
vt 1.000000 0.571429
vt 1.000000 0.714286
vt 0.285714 0.285714
vt 0.285714 0.285714
vt 0.285714 0.571429
vt 0.285714 0.571429
vt 1.000000 1.000000
vt 1.000000 1.000000
vt 0.714286 0.285714
vt 0.000000 1.000000
vt 0.714286 0.285714
vn 0.0000 0.0000 1.0000
vn 0.0000 0.0000 -1.0000
vn 1.0000 0.0000 0.0000
vn 0.0000 1.0000 0.0000
vn 0.0000 -1.0000 0.0000
vn -1.0000 0.0000 0.0000
s off
f 22/1/1 23/2/1 62/3/1
f 5/4/1 28/5/1 3/6/1
f 34/7/1 27/8/1 28/5/1
f 44/9/1 27/8/1 39/10/1
f 50/11/1 26/12/1 44/9/1
f 56/13/1 25/14/1 50/11/1
f 62/3/1 24/15/1 56/13/1
f 11/16/1 10/17/1 1/18/1
f 29/19/1 9/20/1 10/17/1
f 30/21/1 8/22/1 9/20/1
f 8/22/1 32/23/1 7/24/1
f 32/23/1 6/25/1 7/24/1
f 33/26/1 5/4/1 6/25/1
f 12/27/1 29/19/1 11/16/1
f 35/28/1 30/21/1 29/19/1
f 37/29/1 32/23/1 31/30/1
f 13/31/1 35/28/1 12/27/1
f 14/32/1 40/33/1 13/31/1
f 45/34/1 41/35/1 40/33/1
f 46/36/1 42/37/1 41/35/1
f 47/38/1 43/39/1 42/37/1
f 15/40/1 45/34/1 14/32/1
f 51/41/1 46/36/1 45/34/1
f 53/42/1 48/43/1 47/38/1
f 54/44/1 49/45/1 48/43/1
f 49/45/1 56/13/1 50/11/1
f 16/46/1 51/41/1 15/40/1
f 59/47/1 54/44/1 53/42/1
f 60/48/1 55/49/1 54/44/1
f 55/49/1 62/3/1 56/13/1
f 2/50/1 57/51/1 16/46/1
f 17/52/1 58/53/1 57/51/1
f 18/54/1 59/47/1 58/53/1
f 19/55/1 60/48/1 59/47/1
f 20/56/1 61/57/1 60/48/1
f 21/58/1 62/3/1 61/57/1
f 86/59/2 67/60/2 119/61/2
f 71/62/2 69/63/2 91/64/2
f 91/64/2 90/65/2 97/66/2
f 90/65/2 102/67/2 97/66/2
f 89/68/2 107/69/2 102/67/2
f 88/70/2 113/71/2 107/69/2
f 87/72/2 119/61/2 113/71/2
f 63/73/2 76/74/2 64/75/2
f 75/76/2 92/77/2 63/73/2
f 74/78/2 93/79/2 75/76/2
f 73/80/2 94/81/2 74/78/2
f 72/82/2 95/83/2 73/80/2
f 71/62/2 96/84/2 72/82/2
f 92/77/2 77/85/2 76/74/2
f 93/79/2 98/86/2 92/77/2
f 95/83/2 100/87/2 94/81/2
f 98/86/2 78/88/2 77/85/2
f 103/89/2 79/90/2 78/88/2
f 104/91/2 108/92/2 103/89/2
f 105/93/2 109/94/2 104/91/2
f 106/95/2 110/96/2 105/93/2
f 108/92/2 80/97/2 79/90/2
f 109/94/2 114/98/2 108/92/2
f 111/99/2 116/100/2 110/96/2
f 112/101/2 117/102/2 111/99/2
f 112/101/2 113/71/2 118/103/2
f 114/98/2 65/104/2 80/97/2
f 117/102/2 122/105/2 116/100/2
f 118/103/2 123/106/2 117/102/2
f 118/103/2 119/61/2 124/107/2
f 120/108/2 66/109/2 65/104/2
f 121/110/2 81/111/2 120/108/2
f 122/105/2 82/112/2 121/110/2
f 123/106/2 83/113/2 122/105/2
f 124/107/2 84/114/2 123/106/2
f 119/61/2 85/115/2 124/107/2
f 82/112/3 19/55/3 18/54/3
f 99/116/4 30/21/4 36/117/4
f 83/113/3 20/56/3 19/55/3
f 94/81/5 37/29/5 31/30/5
f 84/114/3 21/58/3 20/56/3
f 101/118/4 32/23/4 38/119/4
f 109/94/3 47/38/3 46/36/3
f 85/115/3 22/1/3 21/58/3
f 91/64/5 39/10/5 34/7/5
f 68/120/4 23/2/4 4/121/4
f 103/89/4 35/28/4 40/33/4
f 112/101/6 48/43/6 49/45/6
f 86/59/4 24/15/4 23/2/4
f 97/66/5 44/9/5 39/10/5
f 107/69/6 49/45/6 50/11/6
f 87/72/4 25/14/4 24/15/4
f 88/70/4 26/12/4 25/14/4
f 89/68/4 27/8/4 26/12/4
f 63/73/6 1/18/6 10/17/6
f 114/98/3 52/122/3 51/41/3
f 90/65/4 28/5/4 27/8/4
f 65/104/5 2/50/5 16/46/5
f 111/99/4 43/39/4 48/43/4
f 67/60/3 4/121/3 22/1/3
f 102/67/5 50/11/5 44/9/5
f 69/63/4 3/6/4 28/5/4
f 70/123/6 5/4/6 3/6/6
f 115/124/4 46/36/4 52/122/4
f 93/79/3 31/30/3 30/21/3
f 71/62/6 6/25/6 5/4/6
f 110/96/5 53/42/5 47/38/5
f 72/82/6 7/24/6 6/25/6
f 121/110/6 57/51/6 58/53/6
f 95/83/3 33/26/3 32/23/3
f 73/80/6 8/22/6 7/24/6
f 122/105/6 58/53/6 59/47/6
f 96/84/3 34/7/3 33/26/3
f 74/78/6 9/20/6 8/22/6
f 75/76/6 10/17/6 9/20/6
f 120/108/4 51/41/4 57/51/4
f 64/75/5 11/16/5 1/18/5
f 116/100/5 59/47/5 53/42/5
f 98/86/3 36/117/3 35/28/3
f 76/74/5 12/27/5 11/16/5
f 100/87/3 38/119/3 37/29/3
f 77/85/5 13/31/5 12/27/5
f 78/88/5 14/32/5 13/31/5
f 79/90/5 15/40/5 14/32/5
f 104/91/6 40/33/6 41/35/6
f 80/97/5 16/46/5 15/40/5
f 105/93/6 41/35/6 42/37/6
f 66/109/3 17/52/3 2/50/3
f 106/95/6 42/37/6 43/39/6
f 81/111/3 18/54/3 17/52/3
f 22/1/1 4/121/1 23/2/1
f 5/4/1 34/7/1 28/5/1
f 34/7/1 39/10/1 27/8/1
f 44/9/1 26/12/1 27/8/1
f 50/11/1 25/14/1 26/12/1
f 56/13/1 24/15/1 25/14/1
f 62/3/1 23/2/1 24/15/1
f 11/16/1 29/19/1 10/17/1
f 29/19/1 30/21/1 9/20/1
f 30/21/1 31/30/1 8/22/1
f 8/22/1 31/30/1 32/23/1
f 32/23/1 33/26/1 6/25/1
f 33/26/1 34/7/1 5/4/1
f 12/27/1 35/28/1 29/19/1
f 35/28/1 36/117/1 30/21/1
f 37/29/1 38/119/1 32/23/1
f 13/31/1 40/33/1 35/28/1
f 14/32/1 45/34/1 40/33/1
f 45/34/1 46/36/1 41/35/1
f 46/36/1 47/38/1 42/37/1
f 47/38/1 48/43/1 43/39/1
f 15/40/1 51/41/1 45/34/1
f 51/41/1 52/122/1 46/36/1
f 53/42/1 54/44/1 48/43/1
f 54/44/1 55/49/1 49/45/1
f 49/45/1 55/49/1 56/13/1
f 16/46/1 57/51/1 51/41/1
f 59/47/1 60/48/1 54/44/1
f 60/48/1 61/57/1 55/49/1
f 55/49/1 61/57/1 62/3/1
f 2/50/1 17/52/1 57/51/1
f 17/52/1 18/54/1 58/53/1
f 18/54/1 19/55/1 59/47/1
f 19/55/1 20/56/1 60/48/1
f 20/56/1 21/58/1 61/57/1
f 21/58/1 22/1/1 62/3/1
f 86/59/2 68/120/2 67/60/2
f 71/62/2 70/123/2 69/63/2
f 91/64/2 69/63/2 90/65/2
f 90/65/2 89/68/2 102/67/2
f 89/68/2 88/70/2 107/69/2
f 88/70/2 87/72/2 113/71/2
f 87/72/2 86/59/2 119/61/2
f 63/73/2 92/77/2 76/74/2
f 75/76/2 93/79/2 92/77/2
f 74/78/2 94/81/2 93/79/2
f 73/80/2 95/83/2 94/81/2
f 72/82/2 96/84/2 95/83/2
f 71/62/2 91/64/2 96/84/2
f 92/77/2 98/86/2 77/85/2
f 93/79/2 99/116/2 98/86/2
f 95/83/2 101/118/2 100/87/2
f 98/86/2 103/89/2 78/88/2
f 103/89/2 108/92/2 79/90/2
f 104/91/2 109/94/2 108/92/2
f 105/93/2 110/96/2 109/94/2
f 106/95/2 111/99/2 110/96/2
f 108/92/2 114/98/2 80/97/2
f 109/94/2 115/124/2 114/98/2
f 111/99/2 117/102/2 116/100/2
f 112/101/2 118/103/2 117/102/2
f 112/101/2 107/69/2 113/71/2
f 114/98/2 120/108/2 65/104/2
f 117/102/2 123/106/2 122/105/2
f 118/103/2 124/107/2 123/106/2
f 118/103/2 113/71/2 119/61/2
f 120/108/2 81/111/2 66/109/2
f 121/110/2 82/112/2 81/111/2
f 122/105/2 83/113/2 82/112/2
f 123/106/2 84/114/2 83/113/2
f 124/107/2 85/115/2 84/114/2
f 119/61/2 67/60/2 85/115/2
f 82/112/3 83/113/3 19/55/3
f 99/116/4 93/79/4 30/21/4
f 83/113/3 84/114/3 20/56/3
f 94/81/5 100/87/5 37/29/5
f 84/114/3 85/115/3 21/58/3
f 101/118/4 95/83/4 32/23/4
f 109/94/3 110/96/3 47/38/3
f 85/115/3 67/60/3 22/1/3
f 91/64/5 97/66/5 39/10/5
f 68/120/4 86/59/4 23/2/4
f 103/89/4 98/86/4 35/28/4
f 112/101/6 111/99/6 48/43/6
f 86/59/4 87/72/4 24/15/4
f 97/66/5 102/67/5 44/9/5
f 107/69/6 112/101/6 49/45/6
f 87/72/4 88/70/4 25/14/4
f 88/70/4 89/68/4 26/12/4
f 89/68/4 90/65/4 27/8/4
f 63/73/6 64/75/6 1/18/6
f 114/98/3 115/124/3 52/122/3
f 90/65/4 69/63/4 28/5/4
f 65/104/5 66/109/5 2/50/5
f 111/99/4 106/95/4 43/39/4
f 67/60/3 68/120/3 4/121/3
f 102/67/5 107/69/5 50/11/5
f 69/63/4 70/123/4 3/6/4
f 70/123/6 71/62/6 5/4/6
f 115/124/4 109/94/4 46/36/4
f 93/79/3 94/81/3 31/30/3
f 71/62/6 72/82/6 6/25/6
f 110/96/5 116/100/5 53/42/5
f 72/82/6 73/80/6 7/24/6
f 121/110/6 120/108/6 57/51/6
f 95/83/3 96/84/3 33/26/3
f 73/80/6 74/78/6 8/22/6
f 122/105/6 121/110/6 58/53/6
f 96/84/3 91/64/3 34/7/3
f 74/78/6 75/76/6 9/20/6
f 75/76/6 63/73/6 10/17/6
f 120/108/4 114/98/4 51/41/4
f 64/75/5 76/74/5 11/16/5
f 116/100/5 122/105/5 59/47/5
f 98/86/3 99/116/3 36/117/3
f 76/74/5 77/85/5 12/27/5
f 100/87/3 101/118/3 38/119/3
f 77/85/5 78/88/5 13/31/5
f 78/88/5 79/90/5 14/32/5
f 79/90/5 80/97/5 15/40/5
f 104/91/6 103/89/6 40/33/6
f 80/97/5 65/104/5 16/46/5
f 105/93/6 104/91/6 41/35/6
f 66/109/3 81/111/3 17/52/3
f 106/95/6 105/93/6 42/37/6
f 81/111/3 82/112/3 18/54/3
