# Blender v3.1.2 OBJ File: 'Cut markers.blend'
# www.blender.org
v -0.105000 -0.105000 0.000000
v 0.105000 -0.105000 0.000000
v -0.105000 0.105000 0.000000
v 0.105000 0.105000 0.000000
v -0.105000 0.075000 0.000000
v -0.105000 0.045000 0.000000
v -0.105000 0.015000 0.000000
v -0.105000 -0.015000 0.000000
v -0.105000 -0.045000 0.000000
v -0.105000 -0.075000 0.000000
v -0.075000 -0.105000 0.000000
v -0.045000 -0.105000 0.000000
v -0.015000 -0.105000 0.000000
v 0.015000 -0.105000 0.000000
v 0.045000 -0.105000 0.000000
v 0.075000 -0.105000 0.000000
v 0.105000 -0.075000 0.000000
v 0.105000 -0.045000 0.000000
v 0.105000 -0.015000 0.000000
v 0.105000 0.015000 0.000000
v 0.105000 0.045000 0.000000
v 0.105000 0.075000 0.000000
v 0.075000 0.105000 0.000000
v 0.045000 0.105000 0.000000
v 0.015000 0.105000 0.000000
v -0.015000 0.105000 0.000000
v -0.045000 0.105000 0.000000
v -0.075000 0.105000 0.000000
v -0.075000 -0.075000 0.000000
v -0.075000 -0.045000 0.000000
v -0.075000 -0.015000 0.000000
v -0.075000 0.015000 0.000000
v -0.075000 0.045000 0.000000
v -0.075000 0.075000 0.000000
v -0.045000 -0.075000 0.000000
v -0.045000 -0.045000 0.000000
v -0.045000 -0.015000 0.000000
v -0.045000 0.015000 0.000000
v -0.045000 0.045000 0.000000
v -0.045000 0.075000 0.000000
v -0.015000 -0.075000 0.000000
v -0.015000 -0.045000 0.000000
v -0.015000 -0.015000 0.000000
v -0.015000 0.015000 0.000000
v -0.015000 0.045000 0.000000
v -0.015000 0.075000 0.000000
v 0.015000 -0.075000 0.000000
v 0.015000 -0.045000 0.000000
v 0.015000 -0.015000 0.000000
v 0.015000 0.015000 0.000000
v 0.015000 0.045000 0.000000
v 0.015000 0.075000 0.000000
v 0.045000 -0.075000 0.000000
v 0.045000 -0.045000 0.000000
v 0.045000 -0.015000 0.000000
v 0.045000 0.015000 0.000000
v 0.045000 0.045000 0.000000
v 0.045000 0.075000 0.000000
v 0.075000 -0.075000 0.000000
v 0.075000 -0.045000 0.000000
v 0.075000 -0.015000 0.000000
v 0.075000 0.015000 0.000000
v 0.075000 0.045000 0.000000
v 0.075000 0.075000 0.000000
v -0.105000 -0.075000 -0.003000
v -0.105000 -0.105000 -0.003000
v 0.075000 -0.105000 -0.003000
v 0.105000 -0.105000 -0.003000
v 0.105000 0.075000 -0.003000
v 0.105000 0.105000 -0.003000
v -0.075000 0.105000 -0.003000
v -0.105000 0.105000 -0.003000
v -0.105000 0.075000 -0.003000
v -0.105000 0.045000 -0.003000
v -0.105000 0.015000 -0.003000
v -0.105000 -0.015000 -0.003000
v -0.105000 -0.045000 -0.003000
v -0.075000 -0.105000 -0.003000
v -0.045000 -0.105000 -0.003000
v -0.015000 -0.105000 -0.003000
v 0.015000 -0.105000 -0.003000
v 0.045000 -0.105000 -0.003000
v 0.105000 -0.075000 -0.003000
v 0.105000 -0.045000 -0.003000
v 0.105000 -0.015000 -0.003000
v 0.105000 0.015000 -0.003000
v 0.105000 0.045000 -0.003000
v 0.075000 0.105000 -0.003000
v 0.045000 0.105000 -0.003000
v 0.015000 0.105000 -0.003000
v -0.015000 0.105000 -0.003000
v -0.045000 0.105000 -0.003000
v -0.075000 0.075000 -0.003000
v -0.075000 -0.075000 -0.003000
v -0.075000 -0.045000 -0.003000
v -0.075000 -0.015000 -0.003000
v -0.075000 0.015000 -0.003000
v -0.075000 0.045000 -0.003000
v -0.045000 0.075000 -0.003000
v -0.045000 -0.075000 -0.003000
v -0.045000 -0.045000 -0.003000
v -0.045000 -0.015000 -0.003000
v -0.045000 0.015000 -0.003000
v -0.045000 0.045000 -0.003000
v -0.015000 0.075000 -0.003000
v -0.015000 -0.075000 -0.003000
v -0.015000 -0.045000 -0.003000
v -0.015000 -0.015000 -0.003000
v -0.015000 0.015000 -0.003000
v -0.015000 0.045000 -0.003000
v 0.015000 0.075000 -0.003000
v 0.015000 -0.075000 -0.003000
v 0.015000 -0.045000 -0.003000
v 0.015000 -0.015000 -0.003000
v 0.015000 0.015000 -0.003000
v 0.015000 0.045000 -0.003000
v 0.045000 0.075000 -0.003000
v 0.045000 -0.075000 -0.003000
v 0.045000 -0.045000 -0.003000
v 0.045000 -0.015000 -0.003000
v 0.045000 0.015000 -0.003000
v 0.045000 0.045000 -0.003000
v 0.075000 0.075000 -0.003000
v 0.075000 -0.075000 -0.003000
v 0.075000 -0.045000 -0.003000
v 0.075000 -0.015000 -0.003000
v 0.075000 0.015000 -0.003000
v 0.075000 0.045000 -0.003000
vt 1.000000 0.857143
vt 0.857143 1.000000
vt 0.857143 0.857143
vt 0.142857 0.857143
vt 0.000000 1.000000
vt 0.000000 0.857143
vt 0.285714 0.857143
vt 0.142857 1.000000
vt 0.428571 0.857143
vt 0.285714 1.000000
vt 0.571429 0.857143
vt 0.428571 1.000000
vt 0.714286 0.857143
vt 0.571429 1.000000
vt 0.714286 1.000000
vt 0.142857 0.000000
vt 0.000000 0.142857
vt 0.000000 0.000000
vt 0.142857 0.142857
vt 0.000000 0.285714
vt 0.142857 0.285714
vt 0.000000 0.428571
vt 0.142857 0.428571
vt 0.000000 0.571429
vt 0.142857 0.571429
vt 0.000000 0.714286
vt 0.142857 0.714286
vt 0.285714 0.000000
vt 0.285714 0.142857
vt 0.285714 0.428571
vt 0.285714 0.571429
vt 0.428571 0.000000
vt 0.428571 0.428571
vt 0.428571 0.714286
vt 0.285714 0.714286
vt 0.571429 0.000000
vt 0.428571 0.142857
vt 0.571429 0.142857
vt 0.428571 0.285714
vt 0.571429 0.428571
vt 0.428571 0.571429
vt 0.571429 0.571429
vt 0.571429 0.714286
vt 0.714286 0.000000
vt 0.714286 0.142857
vt 0.571429 0.285714
vt 0.714286 0.285714
vt 0.714286 0.428571
vt 0.714286 0.571429
vt 0.714286 0.714286
vt 0.857143 0.000000
vt 0.857143 0.142857
vt 0.857143 0.571429
vt 0.857143 0.714286
vt 1.000000 0.000000
vt 1.000000 0.142857
vt 0.857143 0.285714
vt 1.000000 0.285714
vt 0.857143 0.428571
vt 1.000000 0.428571
vt 1.000000 0.571429
vt 1.000000 0.714286
vt 0.857143 1.000000
vt 1.000000 0.857143
vt 0.857143 0.857143
vt 0.000000 1.000000
vt 0.142857 0.857143
vt 0.000000 0.857143
vt 0.142857 1.000000
vt 0.285714 0.857143
vt 0.285714 1.000000
vt 0.428571 0.857143
vt 0.428571 1.000000
vt 0.571429 0.857143
vt 0.571429 1.000000
vt 0.714286 0.857143
vt 0.000000 0.142857
vt 0.142857 0.000000
vt 0.000000 0.000000
vt 0.000000 0.285714
vt 0.142857 0.142857
vt 0.000000 0.428571
vt 0.142857 0.285714
vt 0.000000 0.571429
vt 0.142857 0.428571
vt 0.000000 0.714286
vt 0.142857 0.571429
vt 0.142857 0.714286
vt 0.285714 0.000000
vt 0.285714 0.142857
vt 0.285714 0.428571
vt 0.285714 0.571429
vt 0.428571 0.000000
vt 0.428571 0.428571
vt 0.428571 0.714286
vt 0.428571 0.571429
vt 0.428571 0.142857
vt 0.571429 0.000000
vt 0.428571 0.285714
vt 0.571429 0.142857
vt 0.571429 0.428571
vt 0.571429 0.571429
vt 0.571429 0.714286
vt 0.714286 0.000000
vt 0.571429 0.285714
vt 0.714286 0.142857
vt 0.714286 0.285714
vt 0.714286 0.428571
vt 0.714286 0.571429
vt 0.714286 0.714286
vt 0.857143 0.000000
vt 0.857143 0.142857
vt 0.857143 0.571429
vt 0.857143 0.714286
vt 1.000000 0.000000
vt 0.857143 0.285714
vt 1.000000 0.142857
vt 0.857143 0.428571
vt 1.000000 0.285714
vt 1.000000 0.428571
vt 1.000000 0.571429
vt 1.000000 0.714286
vt 1.000000 1.000000
vt 0.285714 0.285714
vt 0.285714 0.285714
vt 1.000000 1.000000
vt 0.285714 0.714286
vt 0.714286 1.000000
vn 0.0000 0.0000 1.0000
vn 0.0000 0.0000 -1.0000
vn 0.0000 1.0000 0.0000
vn 0.0000 -1.0000 0.0000
vn -1.0000 0.0000 0.0000
vn 1.0000 0.0000 0.0000
s off
f 22/1/1 23/2/1 64/3/1
f 34/4/1 3/5/1 5/6/1
f 40/7/1 28/8/1 34/4/1
f 46/9/1 27/10/1 40/7/1
f 52/11/1 26/12/1 46/9/1
f 58/13/1 25/14/1 52/11/1
f 58/13/1 23/2/1 24/15/1
f 11/16/1 10/17/1 1/18/1
f 29/19/1 9/20/1 10/17/1
f 30/21/1 8/22/1 9/20/1
f 31/23/1 7/24/1 8/22/1
f 32/25/1 6/26/1 7/24/1
f 33/27/1 5/6/1 6/26/1
f 12/28/1 29/19/1 11/16/1
f 35/29/1 30/21/1 29/19/1
f 37/30/1 32/25/1 31/23/1
f 38/31/1 33/27/1 32/25/1
f 13/32/1 35/29/1 12/28/1
f 43/33/1 38/31/1 37/30/1
f 38/31/1 45/34/1 39/35/1
f 14/36/1 41/37/1 13/32/1
f 47/38/1 42/39/1 41/37/1
f 49/40/1 44/41/1 43/33/1
f 50/42/1 45/34/1 44/41/1
f 51/43/1 46/9/1 45/34/1
f 15/44/1 47/38/1 14/36/1
f 53/45/1 48/46/1 47/38/1
f 54/47/1 49/40/1 48/46/1
f 55/48/1 50/42/1 49/40/1
f 56/49/1 51/43/1 50/42/1
f 57/50/1 52/11/1 51/43/1
f 16/51/1 53/45/1 15/44/1
f 59/52/1 54/47/1 53/45/1
f 62/53/1 57/50/1 56/49/1
f 63/54/1 58/13/1 57/50/1
f 2/55/1 59/52/1 16/51/1
f 17/56/1 60/57/1 59/52/1
f 18/58/1 61/59/1 60/57/1
f 19/60/1 62/53/1 61/59/1
f 20/61/1 63/54/1 62/53/1
f 21/62/1 64/3/1 63/54/1
f 88/63/2 69/64/2 123/65/2
f 72/66/2 93/67/2 73/68/2
f 71/69/2 99/70/2 93/67/2
f 92/71/2 105/72/2 99/70/2
f 91/73/2 111/74/2 105/72/2
f 90/75/2 117/76/2 111/74/2
f 117/76/2 88/63/2 123/65/2
f 65/77/2 78/78/2 66/79/2
f 77/80/2 94/81/2 65/77/2
f 76/82/2 95/83/2 77/80/2
f 75/84/2 96/85/2 76/82/2
f 74/86/2 97/87/2 75/84/2
f 73/68/2 98/88/2 74/86/2
f 94/81/2 79/89/2 78/78/2
f 95/83/2 100/90/2 94/81/2
f 97/87/2 102/91/2 96/85/2
f 98/88/2 103/92/2 97/87/2
f 100/90/2 80/93/2 79/89/2
f 103/92/2 108/94/2 102/91/2
f 103/92/2 110/95/2 109/96/2
f 106/97/2 81/98/2 80/93/2
f 107/99/2 112/100/2 106/97/2
f 109/96/2 114/101/2 108/94/2
f 110/95/2 115/102/2 109/96/2
f 105/72/2 116/103/2 110/95/2
f 112/100/2 82/104/2 81/98/2
f 113/105/2 118/106/2 112/100/2
f 114/101/2 119/107/2 113/105/2
f 115/102/2 120/108/2 114/101/2
f 116/103/2 121/109/2 115/102/2
f 111/74/2 122/110/2 116/103/2
f 118/106/2 67/111/2 82/104/2
f 119/107/2 124/112/2 118/106/2
f 122/110/2 127/113/2 121/109/2
f 117/76/2 128/114/2 122/110/2
f 124/112/2 68/115/2 67/111/2
f 125/116/2 83/117/2 124/112/2
f 126/118/2 84/119/2 125/116/2
f 127/113/2 85/120/2 126/118/2
f 128/114/2 86/121/2 127/113/2
f 123/65/2 87/122/2 128/114/2
f 91/73/3 27/10/3 26/12/3
f 102/91/4 43/33/4 37/30/4
f 80/93/4 14/36/4 13/32/4
f 65/77/5 1/18/5 10/17/5
f 92/71/3 28/8/3 27/10/3
f 81/98/4 15/44/4 14/36/4
f 67/111/4 2/55/4 16/51/4
f 110/95/3 39/35/3 45/34/3
f 82/104/4 16/51/4 15/44/4
f 107/99/5 41/37/5 42/39/5
f 69/64/6 4/123/6 22/1/6
f 119/107/6 55/48/6 54/47/6
f 99/70/4 46/9/4 40/7/4
f 68/115/6 17/56/6 2/55/6
f 71/69/3 3/5/3 28/8/3
f 125/116/3 54/47/3 60/57/3
f 120/108/6 56/49/6 55/48/6
f 83/117/6 18/58/6 17/56/6
f 72/66/5 5/6/5 3/5/5
f 121/109/4 62/53/4 56/49/4
f 95/83/6 31/23/6 30/21/6
f 113/105/3 42/39/3 48/46/3
f 84/119/6 19/60/6 18/58/6
f 105/72/5 45/34/5 46/9/5
f 73/68/5 6/26/5 5/6/5
f 108/94/4 49/40/4 43/33/4
f 85/120/6 20/61/6 19/60/6
f 74/86/5 7/24/5 6/26/5
f 86/121/6 21/62/6 20/61/6
f 101/124/3 30/21/3 36/125/3
f 75/84/5 8/22/5 7/24/5
f 98/88/6 34/4/6 33/27/6
f 87/122/6 22/1/6 21/62/6
f 96/85/4 37/30/4 31/23/4
f 76/82/5 9/20/5 8/22/5
f 70/126/3 23/2/3 4/123/3
f 114/101/5 48/46/5 49/40/5
f 77/80/5 10/17/5 9/20/5
f 126/118/5 60/57/5 61/59/5
f 88/63/3 24/15/3 23/2/3
f 104/127/3 33/27/3 39/35/3
f 66/79/4 11/16/4 1/18/4
f 100/90/6 36/125/6 35/29/6
f 127/113/5 61/59/5 62/53/5
f 89/128/3 25/14/3 24/15/3
f 93/67/4 40/7/4 34/4/4
f 78/78/4 12/28/4 11/16/4
f 90/75/3 26/12/3 25/14/3
f 106/97/3 35/29/3 41/37/3
f 79/89/4 13/32/4 12/28/4
f 22/1/1 4/123/1 23/2/1
f 34/4/1 28/8/1 3/5/1
f 40/7/1 27/10/1 28/8/1
f 46/9/1 26/12/1 27/10/1
f 52/11/1 25/14/1 26/12/1
f 58/13/1 24/15/1 25/14/1
f 58/13/1 64/3/1 23/2/1
f 11/16/1 29/19/1 10/17/1
f 29/19/1 30/21/1 9/20/1
f 30/21/1 31/23/1 8/22/1
f 31/23/1 32/25/1 7/24/1
f 32/25/1 33/27/1 6/26/1
f 33/27/1 34/4/1 5/6/1
f 12/28/1 35/29/1 29/19/1
f 35/29/1 36/125/1 30/21/1
f 37/30/1 38/31/1 32/25/1
f 38/31/1 39/35/1 33/27/1
f 13/32/1 41/37/1 35/29/1
f 43/33/1 44/41/1 38/31/1
f 38/31/1 44/41/1 45/34/1
f 14/36/1 47/38/1 41/37/1
f 47/38/1 48/46/1 42/39/1
f 49/40/1 50/42/1 44/41/1
f 50/42/1 51/43/1 45/34/1
f 51/43/1 52/11/1 46/9/1
f 15/44/1 53/45/1 47/38/1
f 53/45/1 54/47/1 48/46/1
f 54/47/1 55/48/1 49/40/1
f 55/48/1 56/49/1 50/42/1
f 56/49/1 57/50/1 51/43/1
f 57/50/1 58/13/1 52/11/1
f 16/51/1 59/52/1 53/45/1
f 59/52/1 60/57/1 54/47/1
f 62/53/1 63/54/1 57/50/1
f 63/54/1 64/3/1 58/13/1
f 2/55/1 17/56/1 59/52/1
f 17/56/1 18/58/1 60/57/1
f 18/58/1 19/60/1 61/59/1
f 19/60/1 20/61/1 62/53/1
f 20/61/1 21/62/1 63/54/1
f 21/62/1 22/1/1 64/3/1
f 88/63/2 70/126/2 69/64/2
f 72/66/2 71/69/2 93/67/2
f 71/69/2 92/71/2 99/70/2
f 92/71/2 91/73/2 105/72/2
f 91/73/2 90/75/2 111/74/2
f 90/75/2 89/128/2 117/76/2
f 117/76/2 89/128/2 88/63/2
f 65/77/2 94/81/2 78/78/2
f 77/80/2 95/83/2 94/81/2
f 76/82/2 96/85/2 95/83/2
f 75/84/2 97/87/2 96/85/2
f 74/86/2 98/88/2 97/87/2
f 73/68/2 93/67/2 98/88/2
f 94/81/2 100/90/2 79/89/2
f 95/83/2 101/124/2 100/90/2
f 97/87/2 103/92/2 102/91/2
f 98/88/2 104/127/2 103/92/2
f 100/90/2 106/97/2 80/93/2
f 103/92/2 109/96/2 108/94/2
f 103/92/2 104/127/2 110/95/2
f 106/97/2 112/100/2 81/98/2
f 107/99/2 113/105/2 112/100/2
f 109/96/2 115/102/2 114/101/2
f 110/95/2 116/103/2 115/102/2
f 105/72/2 111/74/2 116/103/2
f 112/100/2 118/106/2 82/104/2
f 113/105/2 119/107/2 118/106/2
f 114/101/2 120/108/2 119/107/2
f 115/102/2 121/109/2 120/108/2
f 116/103/2 122/110/2 121/109/2
f 111/74/2 117/76/2 122/110/2
f 118/106/2 124/112/2 67/111/2
f 119/107/2 125/116/2 124/112/2
f 122/110/2 128/114/2 127/113/2
f 117/76/2 123/65/2 128/114/2
f 124/112/2 83/117/2 68/115/2
f 125/116/2 84/119/2 83/117/2
f 126/118/2 85/120/2 84/119/2
f 127/113/2 86/121/2 85/120/2
f 128/114/2 87/122/2 86/121/2
f 123/65/2 69/64/2 87/122/2
f 91/73/3 92/71/3 27/10/3
f 102/91/4 108/94/4 43/33/4
f 80/93/4 81/98/4 14/36/4
f 65/77/5 66/79/5 1/18/5
f 92/71/3 71/69/3 28/8/3
f 81/98/4 82/104/4 15/44/4
f 67/111/4 68/115/4 2/55/4
f 110/95/3 104/127/3 39/35/3
f 82/104/4 67/111/4 16/51/4
f 107/99/5 106/97/5 41/37/5
f 69/64/6 70/126/6 4/123/6
f 119/107/6 120/108/6 55/48/6
f 99/70/4 105/72/4 46/9/4
f 68/115/6 83/117/6 17/56/6
f 71/69/3 72/66/3 3/5/3
f 125/116/3 119/107/3 54/47/3
f 120/108/6 121/109/6 56/49/6
f 83/117/6 84/119/6 18/58/6
f 72/66/5 73/68/5 5/6/5
f 121/109/4 127/113/4 62/53/4
f 95/83/6 96/85/6 31/23/6
f 113/105/3 107/99/3 42/39/3
f 84/119/6 85/120/6 19/60/6
f 105/72/5 110/95/5 45/34/5
f 73/68/5 74/86/5 6/26/5
f 108/94/4 114/101/4 49/40/4
f 85/120/6 86/121/6 20/61/6
f 74/86/5 75/84/5 7/24/5
f 86/121/6 87/122/6 21/62/6
f 101/124/3 95/83/3 30/21/3
f 75/84/5 76/82/5 8/22/5
f 98/88/6 93/67/6 34/4/6
f 87/122/6 69/64/6 22/1/6
f 96/85/4 102/91/4 37/30/4
f 76/82/5 77/80/5 9/20/5
f 70/126/3 88/63/3 23/2/3
f 114/101/5 113/105/5 48/46/5
f 77/80/5 65/77/5 10/17/5
f 126/118/5 125/116/5 60/57/5
f 88/63/3 89/128/3 24/15/3
f 104/127/3 98/88/3 33/27/3
f 66/79/4 78/78/4 11/16/4
f 100/90/6 101/124/6 36/125/6
f 127/113/5 126/118/5 61/59/5
f 89/128/3 90/75/3 25/14/3
f 93/67/4 99/70/4 40/7/4
f 78/78/4 79/89/4 12/28/4
f 90/75/3 91/73/3 26/12/3
f 106/97/3 100/90/3 35/29/3
f 79/89/4 80/93/4 13/32/4
