# Blender v3.1.2 OBJ File: 'Cut markers.blend'
# www.blender.org
v -0.105000 -0.105000 0.000000
v 0.105000 -0.105000 0.000000
v -0.105000 0.105000 0.000000
v 0.105000 0.105000 0.000000
v -0.105000 0.075000 0.000000
v -0.105000 0.045000 0.000000
v -0.105000 0.015000 0.000000
v -0.105000 -0.015000 0.000000
v -0.105000 -0.045000 0.000000
v -0.105000 -0.075000 0.000000
v -0.075000 -0.105000 0.000000
v -0.045000 -0.105000 0.000000
v -0.015000 -0.105000 0.000000
v 0.015000 -0.105000 0.000000
v 0.045000 -0.105000 0.000000
v 0.075000 -0.105000 0.000000
v 0.105000 -0.075000 0.000000
v 0.105000 -0.045000 0.000000
v 0.105000 -0.015000 0.000000
v 0.105000 0.015000 0.000000
v 0.105000 0.045000 0.000000
v 0.105000 0.075000 0.000000
v 0.075000 0.105000 0.000000
v 0.045000 0.105000 0.000000
v 0.015000 0.105000 0.000000
v -0.015000 0.105000 0.000000
v -0.045000 0.105000 0.000000
v -0.075000 0.105000 0.000000
v -0.075000 -0.075000 0.000000
v -0.075000 -0.045000 0.000000
v -0.075000 -0.015000 0.000000
v -0.075000 0.015000 0.000000
v -0.075000 0.045000 0.000000
v -0.075000 0.075000 0.000000
v -0.045000 -0.075000 0.000000
v -0.045000 -0.045000 0.000000
v -0.045000 -0.015000 0.000000
v -0.045000 0.015000 0.000000
v -0.045000 0.075000 0.000000
v -0.015000 -0.075000 0.000000
v -0.015000 -0.045000 0.000000
v -0.015000 -0.015000 0.000000
v -0.015000 0.015000 0.000000
v -0.015000 0.045000 0.000000
v -0.015000 0.075000 0.000000
v 0.015000 -0.075000 0.000000
v 0.015000 -0.045000 0.000000
v 0.015000 -0.015000 0.000000
v 0.015000 0.015000 0.000000
v 0.015000 0.045000 0.000000
v 0.015000 0.075000 0.000000
v 0.045000 -0.075000 0.000000
v 0.045000 -0.045000 0.000000
v 0.045000 -0.015000 0.000000
v 0.045000 0.015000 0.000000
v 0.045000 0.045000 0.000000
v 0.045000 0.075000 0.000000
v 0.075000 -0.075000 0.000000
v 0.075000 -0.045000 0.000000
v 0.075000 -0.015000 0.000000
v 0.075000 0.015000 0.000000
v 0.075000 0.045000 0.000000
v 0.075000 0.075000 0.000000
v -0.105000 -0.075000 -0.003000
v -0.105000 -0.105000 -0.003000
v 0.075000 -0.105000 -0.003000
v 0.105000 -0.105000 -0.003000
v 0.105000 0.075000 -0.003000
v 0.105000 0.105000 -0.003000
v -0.075000 0.105000 -0.003000
v -0.105000 0.105000 -0.003000
v -0.105000 0.075000 -0.003000
v -0.105000 0.045000 -0.003000
v -0.105000 0.015000 -0.003000
v -0.105000 -0.015000 -0.003000
v -0.105000 -0.045000 -0.003000
v -0.075000 -0.105000 -0.003000
v -0.045000 -0.105000 -0.003000
v -0.015000 -0.105000 -0.003000
v 0.015000 -0.105000 -0.003000
v 0.045000 -0.105000 -0.003000
v 0.105000 -0.075000 -0.003000
v 0.105000 -0.045000 -0.003000
v 0.105000 -0.015000 -0.003000
v 0.105000 0.015000 -0.003000
v 0.105000 0.045000 -0.003000
v 0.075000 0.105000 -0.003000
v 0.045000 0.105000 -0.003000
v 0.015000 0.105000 -0.003000
v -0.015000 0.105000 -0.003000
v -0.045000 0.105000 -0.003000
v -0.075000 0.075000 -0.003000
v -0.075000 -0.075000 -0.003000
v -0.075000 -0.045000 -0.003000
v -0.075000 -0.015000 -0.003000
v -0.075000 0.015000 -0.003000
v -0.075000 0.045000 -0.003000
v -0.045000 0.075000 -0.003000
v -0.045000 -0.075000 -0.003000
v -0.045000 -0.045000 -0.003000
v -0.045000 -0.015000 -0.003000
v -0.045000 0.015000 -0.003000
v -0.015000 0.075000 -0.003000
v -0.015000 -0.075000 -0.003000
v -0.015000 -0.045000 -0.003000
v -0.015000 -0.015000 -0.003000
v -0.015000 0.015000 -0.003000
v -0.015000 0.045000 -0.003000
v 0.015000 0.075000 -0.003000
v 0.015000 -0.075000 -0.003000
v 0.015000 -0.045000 -0.003000
v 0.015000 -0.015000 -0.003000
v 0.015000 0.015000 -0.003000
v 0.015000 0.045000 -0.003000
v 0.045000 0.075000 -0.003000
v 0.045000 -0.075000 -0.003000
v 0.045000 -0.045000 -0.003000
v 0.045000 -0.015000 -0.003000
v 0.045000 0.015000 -0.003000
v 0.045000 0.045000 -0.003000
v 0.075000 0.075000 -0.003000
v 0.075000 -0.075000 -0.003000
v 0.075000 -0.045000 -0.003000
v 0.075000 -0.015000 -0.003000
v 0.075000 0.015000 -0.003000
v 0.075000 0.045000 -0.003000
vt 1.000000 0.857143
vt 0.857143 1.000000
vt 0.857143 0.857143
vt 0.142857 0.857143
vt 0.000000 1.000000
vt 0.000000 0.857143
vt 0.285714 0.857143
vt 0.142857 1.000000
vt 0.428571 0.857143
vt 0.285714 1.000000
vt 0.571429 0.857143
vt 0.428571 1.000000
vt 0.714286 0.857143
vt 0.571429 1.000000
vt 0.714286 1.000000
vt 0.142857 0.000000
vt 0.000000 0.142857
vt 0.000000 0.000000
vt 0.142857 0.142857
vt 0.000000 0.285714
vt 0.142857 0.285714
vt 0.000000 0.428571
vt 0.142857 0.428571
vt 0.000000 0.571429
vt 0.142857 0.571429
vt 0.000000 0.714286
vt 0.142857 0.714286
vt 0.285714 0.000000
vt 0.285714 0.142857
vt 0.285714 0.285714
vt 0.285714 0.428571
vt 0.428571 0.000000
vt 0.428571 0.428571
vt 0.285714 0.571429
vt 0.571429 0.000000
vt 0.428571 0.142857
vt 0.571429 0.142857
vt 0.428571 0.285714
vt 0.571429 0.428571
vt 0.428571 0.571429
vt 0.571429 0.571429
vt 0.428571 0.714286
vt 0.714286 0.000000
vt 0.857143 0.000000
vt 0.714286 0.142857
vt 0.857143 0.142857
vt 0.714286 0.285714
vt 0.857143 0.428571
vt 0.714286 0.571429
vt 0.714286 0.428571
vt 0.714286 0.714286
vt 1.000000 0.000000
vt 1.000000 0.142857
vt 0.857143 0.285714
vt 1.000000 0.285714
vt 1.000000 0.428571
vt 0.857143 0.571429
vt 1.000000 0.571429
vt 0.857143 0.714286
vt 0.857143 1.000000
vt 1.000000 0.857143
vt 0.857143 0.857143
vt 0.000000 0.857143
vt 0.142857 1.000000
vt 0.142857 0.857143
vt 0.285714 0.857143
vt 0.285714 1.000000
vt 0.428571 0.857143
vt 0.428571 1.000000
vt 0.571429 0.857143
vt 0.571429 1.000000
vt 0.714286 0.857143
vt 0.714286 1.000000
vt 0.000000 0.142857
vt 0.142857 0.000000
vt 0.000000 0.000000
vt 0.000000 0.285714
vt 0.142857 0.142857
vt 0.000000 0.428571
vt 0.142857 0.285714
vt 0.000000 0.571429
vt 0.142857 0.428571
vt 0.000000 0.714286
vt 0.142857 0.571429
vt 0.142857 0.714286
vt 0.285714 0.000000
vt 0.285714 0.142857
vt 0.285714 0.285714
vt 0.285714 0.428571
vt 0.428571 0.000000
vt 0.285714 0.571429
vt 0.428571 0.428571
vt 0.428571 0.142857
vt 0.571429 0.000000
vt 0.428571 0.285714
vt 0.571429 0.142857
vt 0.428571 0.571429
vt 0.571429 0.428571
vt 0.428571 0.714286
vt 0.571429 0.571429
vt 0.714286 0.000000
vt 0.714286 0.142857
vt 0.857143 0.000000
vt 0.714286 0.285714
vt 0.857143 0.142857
vt 0.714286 0.571429
vt 0.857143 0.428571
vt 0.714286 0.428571
vt 0.714286 0.714286
vt 0.857143 0.714286
vt 1.000000 0.000000
vt 0.857143 0.285714
vt 1.000000 0.142857
vt 1.000000 0.285714
vt 0.857143 0.571429
vt 1.000000 0.428571
vt 1.000000 0.571429
vt 1.000000 0.714286
vt 1.000000 0.714286
vt 0.571429 0.285714
vt 1.000000 1.000000
vt 1.000000 1.000000
vt 0.571429 0.714286
vt 0.571429 0.285714
vt 0.571429 0.714286
vt 0.000000 1.000000
vn 0.0000 0.0000 1.0000
vn 0.0000 0.0000 -1.0000
vn -1.0000 0.0000 0.0000
vn 1.0000 0.0000 0.0000
vn 0.0000 1.0000 0.0000
vn 0.0000 -1.0000 0.0000
s off
f 22/1/1 23/2/1 63/3/1
f 34/4/1 3/5/1 5/6/1
f 39/7/1 28/8/1 34/4/1
f 45/9/1 27/10/1 39/7/1
f 51/11/1 26/12/1 45/9/1
f 57/13/1 25/14/1 51/11/1
f 63/3/1 24/15/1 57/13/1
f 11/16/1 10/17/1 1/18/1
f 29/19/1 9/20/1 10/17/1
f 30/21/1 8/22/1 9/20/1
f 31/23/1 7/24/1 8/22/1
f 32/25/1 6/26/1 7/24/1
f 33/27/1 5/6/1 6/26/1
f 12/28/1 29/19/1 11/16/1
f 35/29/1 30/21/1 29/19/1
f 36/30/1 31/23/1 30/21/1
f 37/31/1 32/25/1 31/23/1
f 13/32/1 35/29/1 12/28/1
f 42/33/1 38/34/1 37/31/1
f 14/35/1 40/36/1 13/32/1
f 46/37/1 41/38/1 40/36/1
f 48/39/1 43/40/1 42/33/1
f 49/41/1 44/42/1 43/40/1
f 15/43/1 46/37/1 14/35/1
f 16/44/1 52/45/1 15/43/1
f 58/46/1 53/47/1 52/45/1
f 60/48/1 55/49/1 54/50/1
f 56/51/1 63/3/1 57/13/1
f 2/52/1 58/46/1 16/44/1
f 17/53/1 59/54/1 58/46/1
f 18/55/1 60/48/1 59/54/1
f 19/56/1 61/57/1 60/48/1
f 20/58/1 62/59/1 61/57/1
f 62/59/1 22/1/1 63/3/1
f 87/60/2 68/61/2 121/62/2
f 72/63/2 70/64/2 92/65/2
f 70/64/2 98/66/2 92/65/2
f 91/67/2 103/68/2 98/66/2
f 90/69/2 109/70/2 103/68/2
f 89/71/2 115/72/2 109/70/2
f 88/73/2 121/62/2 115/72/2
f 64/74/2 77/75/2 65/76/2
f 76/77/2 93/78/2 64/74/2
f 75/79/2 94/80/2 76/77/2
f 74/81/2 95/82/2 75/79/2
f 73/83/2 96/84/2 74/81/2
f 72/63/2 97/85/2 73/83/2
f 93/78/2 78/86/2 77/75/2
f 94/80/2 99/87/2 93/78/2
f 95/82/2 100/88/2 94/80/2
f 96/84/2 101/89/2 95/82/2
f 99/87/2 79/90/2 78/86/2
f 102/91/2 106/92/2 101/89/2
f 104/93/2 80/94/2 79/90/2
f 105/95/2 110/96/2 104/93/2
f 107/97/2 112/98/2 106/92/2
f 108/99/2 113/100/2 107/97/2
f 110/96/2 81/101/2 80/94/2
f 116/102/2 66/103/2 81/101/2
f 117/104/2 122/105/2 116/102/2
f 119/106/2 124/107/2 118/108/2
f 120/109/2 121/62/2 126/110/2
f 122/105/2 67/111/2 66/103/2
f 123/112/2 82/113/2 122/105/2
f 124/107/2 83/114/2 123/112/2
f 125/115/2 84/116/2 124/107/2
f 126/110/2 85/117/2 125/115/2
f 126/110/2 68/61/2 86/118/2
f 105/95/3 40/36/3 41/38/3
f 67/111/4 17/53/4 2/52/4
f 82/113/4 18/55/4 17/53/4
f 108/99/3 43/40/3 44/42/3
f 83/114/4 19/56/4 18/55/4
f 102/91/5 32/25/5 38/34/5
f 84/116/4 20/58/4 19/56/4
f 92/65/6 39/7/6 34/4/6
f 85/117/4 21/119/4 20/58/4
f 104/93/5 35/29/5 40/36/5
f 110/96/4 47/120/4 46/37/4
f 86/118/4 22/1/4 21/119/4
f 101/89/6 42/33/6 37/31/6
f 112/98/4 49/41/4 48/39/4
f 69/121/5 23/2/5 4/122/5
f 107/97/5 38/34/5 43/40/5
f 113/100/4 50/123/4 49/41/4
f 87/60/5 24/15/5 23/2/5
f 98/66/6 45/9/6 39/7/6
f 88/73/5 25/14/5 24/15/5
f 89/71/5 26/12/5 25/14/5
f 111/124/5 41/38/5 47/120/5
f 117/104/3 52/45/3 53/47/3
f 90/69/5 27/10/5 26/12/5
f 64/74/3 1/18/3 10/17/3
f 106/92/6 48/39/6 42/33/6
f 119/106/3 54/50/3 55/49/3
f 91/67/5 28/8/5 27/10/5
f 66/103/6 2/52/6 16/44/6
f 115/72/3 56/51/3 57/13/3
f 68/61/4 4/122/4 22/1/4
f 114/125/5 44/42/5 50/123/5
f 70/64/5 3/5/5 28/8/5
f 103/68/6 51/11/6 45/9/6
f 71/126/3 5/6/3 3/5/3
f 116/102/5 46/37/5 52/45/5
f 72/63/3 6/26/3 5/6/3
f 109/70/6 57/13/6 51/11/6
f 124/107/3 59/54/3 60/48/3
f 73/83/3 7/24/3 6/26/3
f 96/84/4 33/27/4 32/25/4
f 74/81/3 8/22/3 7/24/3
f 123/112/5 53/47/5 59/54/5
f 126/110/3 61/57/3 62/59/3
f 97/85/4 34/4/4 33/27/4
f 75/79/3 9/20/3 8/22/3
f 118/108/6 60/48/6 54/50/6
f 76/77/3 10/17/3 9/20/3
f 125/115/5 55/49/5 61/57/5
f 65/76/6 11/16/6 1/18/6
f 120/109/6 62/59/6 56/51/6
f 99/87/4 36/30/4 35/29/4
f 77/75/6 12/28/6 11/16/6
f 100/88/4 37/31/4 36/30/4
f 78/86/6 13/32/6 12/28/6
f 79/90/6 14/35/6 13/32/6
f 80/94/6 15/43/6 14/35/6
f 81/101/6 16/44/6 15/43/6
f 22/1/1 4/122/1 23/2/1
f 34/4/1 28/8/1 3/5/1
f 39/7/1 27/10/1 28/8/1
f 45/9/1 26/12/1 27/10/1
f 51/11/1 25/14/1 26/12/1
f 57/13/1 24/15/1 25/14/1
f 63/3/1 23/2/1 24/15/1
f 11/16/1 29/19/1 10/17/1
f 29/19/1 30/21/1 9/20/1
f 30/21/1 31/23/1 8/22/1
f 31/23/1 32/25/1 7/24/1
f 32/25/1 33/27/1 6/26/1
f 33/27/1 34/4/1 5/6/1
f 12/28/1 35/29/1 29/19/1
f 35/29/1 36/30/1 30/21/1
f 36/30/1 37/31/1 31/23/1
f 37/31/1 38/34/1 32/25/1
f 13/32/1 40/36/1 35/29/1
f 42/33/1 43/40/1 38/34/1
f 14/35/1 46/37/1 40/36/1
f 46/37/1 47/120/1 41/38/1
f 48/39/1 49/41/1 43/40/1
f 49/41/1 50/123/1 44/42/1
f 15/43/1 52/45/1 46/37/1
f 16/44/1 58/46/1 52/45/1
f 58/46/1 59/54/1 53/47/1
f 60/48/1 61/57/1 55/49/1
f 56/51/1 62/59/1 63/3/1
f 2/52/1 17/53/1 58/46/1
f 17/53/1 18/55/1 59/54/1
f 18/55/1 19/56/1 60/48/1
f 19/56/1 20/58/1 61/57/1
f 20/58/1 21/119/1 62/59/1
f 62/59/1 21/119/1 22/1/1
f 87/60/2 69/121/2 68/61/2
f 72/63/2 71/126/2 70/64/2
f 70/64/2 91/67/2 98/66/2
f 91/67/2 90/69/2 103/68/2
f 90/69/2 89/71/2 109/70/2
f 89/71/2 88/73/2 115/72/2
f 88/73/2 87/60/2 121/62/2
f 64/74/2 93/78/2 77/75/2
f 76/77/2 94/80/2 93/78/2
f 75/79/2 95/82/2 94/80/2
f 74/81/2 96/84/2 95/82/2
f 73/83/2 97/85/2 96/84/2
f 72/63/2 92/65/2 97/85/2
f 93/78/2 99/87/2 78/86/2
f 94/80/2 100/88/2 99/87/2
f 95/82/2 101/89/2 100/88/2
f 96/84/2 102/91/2 101/89/2
f 99/87/2 104/93/2 79/90/2
f 102/91/2 107/97/2 106/92/2
f 104/93/2 110/96/2 80/94/2
f 105/95/2 111/124/2 110/96/2
f 107/97/2 113/100/2 112/98/2
f 108/99/2 114/125/2 113/100/2
f 110/96/2 116/102/2 81/101/2
f 116/102/2 122/105/2 66/103/2
f 117/104/2 123/112/2 122/105/2
f 119/106/2 125/115/2 124/107/2
f 120/109/2 115/72/2 121/62/2
f 122/105/2 82/113/2 67/111/2
f 123/112/2 83/114/2 82/113/2
f 124/107/2 84/116/2 83/114/2
f 125/115/2 85/117/2 84/116/2
f 126/110/2 86/118/2 85/117/2
f 126/110/2 121/62/2 68/61/2
f 105/95/3 104/93/3 40/36/3
f 67/111/4 82/113/4 17/53/4
f 82/113/4 83/114/4 18/55/4
f 108/99/3 107/97/3 43/40/3
f 83/114/4 84/116/4 19/56/4
f 102/91/5 96/84/5 32/25/5
f 84/116/4 85/117/4 20/58/4
f 92/65/6 98/66/6 39/7/6
f 85/117/4 86/118/4 21/119/4
f 104/93/5 99/87/5 35/29/5
f 110/96/4 111/124/4 47/120/4
f 86/118/4 68/61/4 22/1/4
f 101/89/6 106/92/6 42/33/6
f 112/98/4 113/100/4 49/41/4
f 69/121/5 87/60/5 23/2/5
f 107/97/5 102/91/5 38/34/5
f 113/100/4 114/125/4 50/123/4
f 87/60/5 88/73/5 24/15/5
f 98/66/6 103/68/6 45/9/6
f 88/73/5 89/71/5 25/14/5
f 89/71/5 90/69/5 26/12/5
f 111/124/5 105/95/5 41/38/5
f 117/104/3 116/102/3 52/45/3
f 90/69/5 91/67/5 27/10/5
f 64/74/3 65/76/3 1/18/3
f 106/92/6 112/98/6 48/39/6
f 119/106/3 118/108/3 54/50/3
f 91/67/5 70/64/5 28/8/5
f 66/103/6 67/111/6 2/52/6
f 115/72/3 120/109/3 56/51/3
f 68/61/4 69/121/4 4/122/4
f 114/125/5 108/99/5 44/42/5
f 70/64/5 71/126/5 3/5/5
f 103/68/6 109/70/6 51/11/6
f 71/126/3 72/63/3 5/6/3
f 116/102/5 110/96/5 46/37/5
f 72/63/3 73/83/3 6/26/3
f 109/70/6 115/72/6 57/13/6
f 124/107/3 123/112/3 59/54/3
f 73/83/3 74/81/3 7/24/3
f 96/84/4 97/85/4 33/27/4
f 74/81/3 75/79/3 8/22/3
f 123/112/5 117/104/5 53/47/5
f 126/110/3 125/115/3 61/57/3
f 97/85/4 92/65/4 34/4/4
f 75/79/3 76/77/3 9/20/3
f 118/108/6 124/107/6 60/48/6
f 76/77/3 64/74/3 10/17/3
f 125/115/5 119/106/5 55/49/5
f 65/76/6 77/75/6 11/16/6
f 120/109/6 126/110/6 62/59/6
f 99/87/4 100/88/4 36/30/4
f 77/75/6 78/86/6 12/28/6
f 100/88/4 101/89/4 37/31/4
f 78/86/6 79/90/6 13/32/6
f 79/90/6 80/94/6 14/35/6
f 80/94/6 81/101/6 15/43/6
f 81/101/6 66/103/6 16/44/6
