# Blender v3.1.2 OBJ File: 'Cut markers.blend'
# www.blender.org
v -0.035000 -0.035000 0.000000
v 0.035000 -0.035000 0.000000
v -0.035000 0.035000 0.000000
v 0.035000 0.035000 0.000000
v -0.035000 0.025000 0.000000
v -0.035000 0.015000 0.000000
v -0.035000 0.005000 0.000000
v -0.035000 -0.005000 0.000000
v -0.035000 -0.015000 0.000000
v -0.035000 -0.025000 0.000000
v -0.025000 -0.035000 0.000000
v -0.015000 -0.035000 0.000000
v -0.005000 -0.035000 0.000000
v 0.005000 -0.035000 0.000000
v 0.015000 -0.035000 0.000000
v 0.025000 -0.035000 0.000000
v 0.035000 -0.025000 0.000000
v 0.035000 -0.015000 0.000000
v 0.035000 -0.005000 0.000000
v 0.035000 0.005000 0.000000
v 0.035000 0.015000 0.000000
v 0.035000 0.025000 0.000000
v 0.025000 0.035000 0.000000
v 0.015000 0.035000 0.000000
v 0.005000 0.035000 0.000000
v -0.005000 0.035000 0.000000
v -0.015000 0.035000 0.000000
v -0.025000 0.035000 0.000000
v -0.025000 -0.025000 0.000000
v -0.025000 -0.015000 0.000000
v -0.025000 -0.005000 0.000000
v -0.025000 0.005000 0.000000
v -0.025000 0.015000 0.000000
v -0.025000 0.025000 0.000000
v -0.015000 -0.025000 0.000000
v -0.015000 -0.015000 0.000000
v -0.015000 -0.005000 0.000000
v -0.015000 0.005000 0.000000
v -0.015000 0.015000 0.000000
v -0.015000 0.025000 0.000000
v -0.005000 -0.025000 0.000000
v -0.005000 -0.015000 0.000000
v -0.005000 -0.005000 0.000000
v -0.005000 0.005000 0.000000
v -0.005000 0.015000 0.000000
v -0.005000 0.025000 0.000000
v 0.005000 -0.025000 0.000000
v 0.005000 -0.015000 0.000000
v 0.005000 -0.005000 0.000000
v 0.005000 0.005000 0.000000
v 0.005000 0.015000 0.000000
v 0.005000 0.025000 0.000000
v 0.015000 -0.025000 0.000000
v 0.015000 -0.015000 0.000000
v 0.015000 -0.005000 0.000000
v 0.015000 0.005000 0.000000
v 0.015000 0.015000 0.000000
v 0.015000 0.025000 0.000000
v 0.025000 -0.025000 0.000000
v 0.025000 -0.015000 0.000000
v 0.025000 -0.005000 0.000000
v 0.025000 0.005000 0.000000
v 0.025000 0.015000 0.000000
v 0.025000 0.025000 0.000000
v -0.035000 -0.025000 -0.003000
v -0.035000 -0.035000 -0.003000
v 0.025000 -0.035000 -0.003000
v 0.035000 -0.035000 -0.003000
v 0.035000 0.025000 -0.003000
v 0.035000 0.035000 -0.003000
v -0.025000 0.035000 -0.003000
v -0.035000 0.035000 -0.003000
v -0.035000 0.025000 -0.003000
v -0.035000 0.015000 -0.003000
v -0.035000 0.005000 -0.003000
v -0.035000 -0.005000 -0.003000
v -0.035000 -0.015000 -0.003000
v -0.025000 -0.035000 -0.003000
v -0.015000 -0.035000 -0.003000
v -0.005000 -0.035000 -0.003000
v 0.005000 -0.035000 -0.003000
v 0.015000 -0.035000 -0.003000
v 0.035000 -0.025000 -0.003000
v 0.035000 -0.015000 -0.003000
v 0.035000 -0.005000 -0.003000
v 0.035000 0.005000 -0.003000
v 0.035000 0.015000 -0.003000
v 0.025000 0.035000 -0.003000
v 0.015000 0.035000 -0.003000
v 0.005000 0.035000 -0.003000
v -0.005000 0.035000 -0.003000
v -0.015000 0.035000 -0.003000
v -0.025000 0.025000 -0.003000
v -0.025000 -0.025000 -0.003000
v -0.025000 -0.015000 -0.003000
v -0.025000 -0.005000 -0.003000
v -0.025000 0.005000 -0.003000
v -0.025000 0.015000 -0.003000
v -0.015000 0.025000 -0.003000
v -0.015000 -0.025000 -0.003000
v -0.015000 -0.015000 -0.003000
v -0.015000 -0.005000 -0.003000
v -0.015000 0.005000 -0.003000
v -0.015000 0.015000 -0.003000
v -0.005000 0.025000 -0.003000
v -0.005000 -0.025000 -0.003000
v -0.005000 -0.015000 -0.003000
v -0.005000 -0.005000 -0.003000
v -0.005000 0.005000 -0.003000
v -0.005000 0.015000 -0.003000
v 0.005000 0.025000 -0.003000
v 0.005000 -0.025000 -0.003000
v 0.005000 -0.015000 -0.003000
v 0.005000 -0.005000 -0.003000
v 0.005000 0.005000 -0.003000
v 0.005000 0.015000 -0.003000
v 0.015000 0.025000 -0.003000
v 0.015000 -0.025000 -0.003000
v 0.015000 -0.015000 -0.003000
v 0.015000 -0.005000 -0.003000
v 0.015000 0.005000 -0.003000
v 0.015000 0.015000 -0.003000
v 0.025000 0.025000 -0.003000
v 0.025000 -0.025000 -0.003000
v 0.025000 -0.015000 -0.003000
v 0.025000 -0.005000 -0.003000
v 0.025000 0.005000 -0.003000
v 0.025000 0.015000 -0.003000
vt 1.000000 0.857143
vt 0.857143 1.000000
vt 0.857143 0.857143
vt 0.000000 0.857143
vt 0.142857 1.000000
vt 0.000000 1.000000
vt 0.142857 0.857143
vt 0.285714 1.000000
vt 0.428571 0.857143
vt 0.285714 0.857143
vt 0.571429 0.857143
vt 0.428571 1.000000
vt 0.714286 0.857143
vt 0.571429 1.000000
vt 0.714286 1.000000
vt 0.142857 0.000000
vt 0.000000 0.142857
vt 0.000000 0.000000
vt 0.142857 0.142857
vt 0.000000 0.285714
vt 0.142857 0.285714
vt 0.000000 0.428571
vt 0.142857 0.571429
vt 0.000000 0.571429
vt 0.000000 0.714286
vt 0.142857 0.714286
vt 0.285714 0.000000
vt 0.285714 0.142857
vt 0.285714 0.428571
vt 0.142857 0.428571
vt 0.285714 0.571429
vt 0.285714 0.714286
vt 0.428571 0.000000
vt 0.428571 0.142857
vt 0.285714 0.285714
vt 0.428571 0.285714
vt 0.428571 0.428571
vt 0.428571 0.714286
vt 0.571429 0.000000
vt 0.571429 0.285714
vt 0.571429 0.428571
vt 0.428571 0.571429
vt 0.571429 0.714286
vt 0.714286 0.000000
vt 0.571429 0.142857
vt 0.714286 0.142857
vt 0.714286 0.285714
vt 0.714286 0.571429
vt 0.571429 0.571429
vt 0.857143 0.000000
vt 0.857143 0.285714
vt 0.714286 0.428571
vt 0.857143 0.571429
vt 0.714286 0.714286
vt 1.000000 0.000000
vt 0.857143 0.142857
vt 1.000000 0.142857
vt 1.000000 0.285714
vt 0.857143 0.428571
vt 1.000000 0.428571
vt 1.000000 0.571429
vt 0.857143 0.714286
vt 1.000000 0.714286
vt 0.857143 1.000000
vt 1.000000 0.857143
vt 0.857143 0.857143
vt 0.000000 0.857143
vt 0.142857 1.000000
vt 0.142857 0.857143
vt 0.285714 1.000000
vt 0.285714 0.857143
vt 0.428571 0.857143
vt 0.428571 1.000000
vt 0.571429 0.857143
vt 0.571429 1.000000
vt 0.714286 0.857143
vt 0.714286 1.000000
vt 0.000000 0.142857
vt 0.142857 0.000000
vt 0.000000 0.000000
vt 0.000000 0.285714
vt 0.142857 0.142857
vt 0.000000 0.428571
vt 0.142857 0.285714
vt 0.000000 0.571429
vt 0.142857 0.428571
vt 0.000000 0.714286
vt 0.142857 0.571429
vt 0.142857 0.714286
vt 0.285714 0.000000
vt 0.285714 0.142857
vt 0.285714 0.428571
vt 0.285714 0.571429
vt 0.285714 0.714286
vt 0.428571 0.000000
vt 0.285714 0.285714
vt 0.428571 0.142857
vt 0.428571 0.285714
vt 0.428571 0.428571
vt 0.428571 0.714286
vt 0.428571 0.571429
vt 0.571429 0.000000
vt 0.571429 0.285714
vt 0.571429 0.428571
vt 0.571429 0.714286
vt 0.571429 0.571429
vt 0.571429 0.142857
vt 0.714286 0.000000
vt 0.714286 0.142857
vt 0.714286 0.285714
vt 0.714286 0.571429
vt 0.857143 0.000000
vt 0.714286 0.428571
vt 0.857143 0.285714
vt 0.714286 0.714286
vt 0.857143 0.571429
vt 0.857143 0.714286
vt 0.857143 0.142857
vt 1.000000 0.000000
vt 1.000000 0.142857
vt 0.857143 0.428571
vt 1.000000 0.285714
vt 1.000000 0.428571
vt 1.000000 0.571429
vt 1.000000 0.714286
vt 1.000000 1.000000
vt 0.000000 1.000000
vt 1.000000 1.000000
vn 0.0000 0.0000 1.0000
vn 0.0000 0.0000 -1.0000
vn 0.0000 1.0000 0.0000
vn 0.0000 -1.0000 0.0000
vn -1.0000 0.0000 0.0000
vn 1.0000 0.0000 0.0000
s off
f 22/1/1 23/2/1 64/3/1
f 5/4/1 28/5/1 3/6/1
f 34/7/1 27/8/1 28/5/1
f 46/9/1 27/8/1 40/10/1
f 52/11/1 26/12/1 46/9/1
f 58/13/1 25/14/1 52/11/1
f 64/3/1 24/15/1 58/13/1
f 11/16/1 10/17/1 1/18/1
f 29/19/1 9/20/1 10/17/1
f 30/21/1 8/22/1 9/20/1
f 8/22/1 32/23/1 7/24/1
f 32/23/1 6/25/1 7/24/1
f 33/26/1 5/4/1 6/25/1
f 12/27/1 29/19/1 11/16/1
f 35/28/1 30/21/1 29/19/1
f 37/29/1 32/23/1 31/30/1
f 38/31/1 33/26/1 32/23/1
f 39/32/1 34/7/1 33/26/1
f 13/33/1 35/28/1 12/27/1
f 41/34/1 36/35/1 35/28/1
f 42/36/1 37/29/1 36/35/1
f 43/37/1 38/31/1 37/29/1
f 38/31/1 45/38/1 39/32/1
f 45/38/1 40/10/1 39/32/1
f 14/39/1 41/34/1 13/33/1
f 48/40/1 43/37/1 42/36/1
f 49/41/1 44/42/1 43/37/1
f 44/42/1 51/43/1 45/38/1
f 51/43/1 46/9/1 45/38/1
f 15/44/1 47/45/1 14/39/1
f 53/46/1 48/40/1 47/45/1
f 54/47/1 49/41/1 48/40/1
f 56/48/1 51/43/1 50/49/1
f 16/50/1 53/46/1 15/44/1
f 60/51/1 55/52/1 54/47/1
f 62/53/1 57/54/1 56/48/1
f 57/54/1 64/3/1 58/13/1
f 2/55/1 59/56/1 16/50/1
f 17/57/1 60/51/1 59/56/1
f 18/58/1 61/59/1 60/51/1
f 19/60/1 62/53/1 61/59/1
f 20/61/1 63/62/1 62/53/1
f 21/63/1 64/3/1 63/62/1
f 88/64/2 69/65/2 123/66/2
f 73/67/2 71/68/2 93/69/2
f 93/69/2 92/70/2 99/71/2
f 92/70/2 105/72/2 99/71/2
f 91/73/2 111/74/2 105/72/2
f 90/75/2 117/76/2 111/74/2
f 89/77/2 123/66/2 117/76/2
f 65/78/2 78/79/2 66/80/2
f 77/81/2 94/82/2 65/78/2
f 76/83/2 95/84/2 77/81/2
f 75/85/2 96/86/2 76/83/2
f 74/87/2 97/88/2 75/85/2
f 73/67/2 98/89/2 74/87/2
f 94/82/2 79/90/2 78/79/2
f 95/84/2 100/91/2 94/82/2
f 97/88/2 102/92/2 96/86/2
f 98/89/2 103/93/2 97/88/2
f 93/69/2 104/94/2 98/89/2
f 100/91/2 80/95/2 79/90/2
f 101/96/2 106/97/2 100/91/2
f 102/92/2 107/98/2 101/96/2
f 103/93/2 108/99/2 102/92/2
f 103/93/2 110/100/2 109/101/2
f 99/71/2 110/100/2 104/94/2
f 106/97/2 81/102/2 80/95/2
f 108/99/2 113/103/2 107/98/2
f 109/101/2 114/104/2 108/99/2
f 109/101/2 116/105/2 115/106/2
f 110/100/2 111/74/2 116/105/2
f 112/107/2 82/108/2 81/102/2
f 113/103/2 118/109/2 112/107/2
f 114/104/2 119/110/2 113/103/2
f 116/105/2 121/111/2 115/106/2
f 118/109/2 67/112/2 82/108/2
f 120/113/2 125/114/2 119/110/2
f 122/115/2 127/116/2 121/111/2
f 122/115/2 123/66/2 128/117/2
f 124/118/2 68/119/2 67/112/2
f 125/114/2 83/120/2 124/118/2
f 126/121/2 84/122/2 125/114/2
f 127/116/2 85/123/2 126/121/2
f 128/117/2 86/124/2 127/116/2
f 123/66/2 87/125/2 128/117/2
f 88/64/3 24/15/3 23/2/3
f 96/86/4 37/29/4 31/30/4
f 66/80/4 11/16/4 1/18/4
f 125/114/5 59/56/5 60/51/5
f 89/77/3 25/14/3 24/15/3
f 113/103/5 47/45/5 48/40/5
f 78/79/4 12/27/4 11/16/4
f 102/92/5 36/35/5 37/29/5
f 90/75/3 26/12/3 25/14/3
f 79/90/4 13/33/4 12/27/4
f 127/116/5 61/59/5 62/53/5
f 91/73/3 27/8/3 26/12/3
f 114/104/6 50/49/6 49/41/6
f 80/95/4 14/39/4 13/33/4
f 65/78/5 1/18/5 10/17/5
f 92/70/3 28/5/3 27/8/3
f 81/102/4 15/44/4 14/39/4
f 67/112/4 2/55/4 16/50/4
f 120/113/3 49/41/3 55/52/3
f 116/105/6 52/11/6 51/43/6
f 82/108/4 16/50/4 15/44/4
f 69/65/6 4/126/6 22/1/6
f 115/106/4 56/48/4 50/49/4
f 68/119/6 17/57/6 2/55/6
f 71/68/3 3/6/3 28/5/3
f 122/115/3 51/43/3 57/54/3
f 83/120/6 18/58/6 17/57/6
f 106/97/6 42/36/6 41/34/6
f 72/127/5 5/4/5 3/6/5
f 111/74/4 58/13/4 52/11/4
f 95/84/6 31/30/6 30/21/6
f 118/109/6 54/47/6 53/46/6
f 84/122/6 19/60/6 18/58/6
f 73/67/5 6/25/5 5/4/5
f 124/118/3 53/46/3 59/56/3
f 85/123/6 20/61/6 19/60/6
f 74/87/5 7/24/5 6/25/5
f 119/110/4 60/51/4 54/47/4
f 112/107/3 41/34/3 47/45/3
f 86/124/6 21/63/6 20/61/6
f 75/85/5 8/22/5 7/24/5
f 126/121/3 55/52/3 61/59/3
f 117/76/5 57/54/5 58/13/5
f 107/98/4 48/40/4 42/36/4
f 87/125/6 22/1/6 21/63/6
f 76/83/5 9/20/5 8/22/5
f 121/111/4 62/53/4 56/48/4
f 70/128/3 23/2/3 4/126/3
f 101/96/3 30/21/3 36/35/3
f 77/81/5 10/17/5 9/20/5
f 22/1/1 4/126/1 23/2/1
f 5/4/1 34/7/1 28/5/1
f 34/7/1 40/10/1 27/8/1
f 46/9/1 26/12/1 27/8/1
f 52/11/1 25/14/1 26/12/1
f 58/13/1 24/15/1 25/14/1
f 64/3/1 23/2/1 24/15/1
f 11/16/1 29/19/1 10/17/1
f 29/19/1 30/21/1 9/20/1
f 30/21/1 31/30/1 8/22/1
f 8/22/1 31/30/1 32/23/1
f 32/23/1 33/26/1 6/25/1
f 33/26/1 34/7/1 5/4/1
f 12/27/1 35/28/1 29/19/1
f 35/28/1 36/35/1 30/21/1
f 37/29/1 38/31/1 32/23/1
f 38/31/1 39/32/1 33/26/1
f 39/32/1 40/10/1 34/7/1
f 13/33/1 41/34/1 35/28/1
f 41/34/1 42/36/1 36/35/1
f 42/36/1 43/37/1 37/29/1
f 43/37/1 44/42/1 38/31/1
f 38/31/1 44/42/1 45/38/1
f 45/38/1 46/9/1 40/10/1
f 14/39/1 47/45/1 41/34/1
f 48/40/1 49/41/1 43/37/1
f 49/41/1 50/49/1 44/42/1
f 44/42/1 50/49/1 51/43/1
f 51/43/1 52/11/1 46/9/1
f 15/44/1 53/46/1 47/45/1
f 53/46/1 54/47/1 48/40/1
f 54/47/1 55/52/1 49/41/1
f 56/48/1 57/54/1 51/43/1
f 16/50/1 59/56/1 53/46/1
f 60/51/1 61/59/1 55/52/1
f 62/53/1 63/62/1 57/54/1
f 57/54/1 63/62/1 64/3/1
f 2/55/1 17/57/1 59/56/1
f 17/57/1 18/58/1 60/51/1
f 18/58/1 19/60/1 61/59/1
f 19/60/1 20/61/1 62/53/1
f 20/61/1 21/63/1 63/62/1
f 21/63/1 22/1/1 64/3/1
f 88/64/2 70/128/2 69/65/2
f 73/67/2 72/127/2 71/68/2
f 93/69/2 71/68/2 92/70/2
f 92/70/2 91/73/2 105/72/2
f 91/73/2 90/75/2 111/74/2
f 90/75/2 89/77/2 117/76/2
f 89/77/2 88/64/2 123/66/2
f 65/78/2 94/82/2 78/79/2
f 77/81/2 95/84/2 94/82/2
f 76/83/2 96/86/2 95/84/2
f 75/85/2 97/88/2 96/86/2
f 74/87/2 98/89/2 97/88/2
f 73/67/2 93/69/2 98/89/2
f 94/82/2 100/91/2 79/90/2
f 95/84/2 101/96/2 100/91/2
f 97/88/2 103/93/2 102/92/2
f 98/89/2 104/94/2 103/93/2
f 93/69/2 99/71/2 104/94/2
f 100/91/2 106/97/2 80/95/2
f 101/96/2 107/98/2 106/97/2
f 102/92/2 108/99/2 107/98/2
f 103/93/2 109/101/2 108/99/2
f 103/93/2 104/94/2 110/100/2
f 99/71/2 105/72/2 110/100/2
f 106/97/2 112/107/2 81/102/2
f 108/99/2 114/104/2 113/103/2
f 109/101/2 115/106/2 114/104/2
f 109/101/2 110/100/2 116/105/2
f 110/100/2 105/72/2 111/74/2
f 112/107/2 118/109/2 82/108/2
f 113/103/2 119/110/2 118/109/2
f 114/104/2 120/113/2 119/110/2
f 116/105/2 122/115/2 121/111/2
f 118/109/2 124/118/2 67/112/2
f 120/113/2 126/121/2 125/114/2
f 122/115/2 128/117/2 127/116/2
f 122/115/2 117/76/2 123/66/2
f 124/118/2 83/120/2 68/119/2
f 125/114/2 84/122/2 83/120/2
f 126/121/2 85/123/2 84/122/2
f 127/116/2 86/124/2 85/123/2
f 128/117/2 87/125/2 86/124/2
f 123/66/2 69/65/2 87/125/2
f 88/64/3 89/77/3 24/15/3
f 96/86/4 102/92/4 37/29/4
f 66/80/4 78/79/4 11/16/4
f 125/114/5 124/118/5 59/56/5
f 89/77/3 90/75/3 25/14/3
f 113/103/5 112/107/5 47/45/5
f 78/79/4 79/90/4 12/27/4
f 102/92/5 101/96/5 36/35/5
f 90/75/3 91/73/3 26/12/3
f 79/90/4 80/95/4 13/33/4
f 127/116/5 126/121/5 61/59/5
f 91/73/3 92/70/3 27/8/3
f 114/104/6 115/106/6 50/49/6
f 80/95/4 81/102/4 14/39/4
f 65/78/5 66/80/5 1/18/5
f 92/70/3 71/68/3 28/5/3
f 81/102/4 82/108/4 15/44/4
f 67/112/4 68/119/4 2/55/4
f 120/113/3 114/104/3 49/41/3
f 116/105/6 111/74/6 52/11/6
f 82/108/4 67/112/4 16/50/4
f 69/65/6 70/128/6 4/126/6
f 115/106/4 121/111/4 56/48/4
f 68/119/6 83/120/6 17/57/6
f 71/68/3 72/127/3 3/6/3
f 122/115/3 116/105/3 51/43/3
f 83/120/6 84/122/6 18/58/6
f 106/97/6 107/98/6 42/36/6
f 72/127/5 73/67/5 5/4/5
f 111/74/4 117/76/4 58/13/4
f 95/84/6 96/86/6 31/30/6
f 118/109/6 119/110/6 54/47/6
f 84/122/6 85/123/6 19/60/6
f 73/67/5 74/87/5 6/25/5
f 124/118/3 118/109/3 53/46/3
f 85/123/6 86/124/6 20/61/6
f 74/87/5 75/85/5 7/24/5
f 119/110/4 125/114/4 60/51/4
f 112/107/3 106/97/3 41/34/3
f 86/124/6 87/125/6 21/63/6
f 75/85/5 76/83/5 8/22/5
f 126/121/3 120/113/3 55/52/3
f 117/76/5 122/115/5 57/54/5
f 107/98/4 113/103/4 48/40/4
f 87/125/6 69/65/6 22/1/6
f 76/83/5 77/81/5 9/20/5
f 121/111/4 127/116/4 62/53/4
f 70/128/3 88/64/3 23/2/3
f 101/96/3 95/84/3 30/21/3
f 77/81/5 65/78/5 10/17/5
