# Blender v3.1.2 OBJ File: 'Cut markers.blend'
# www.blender.org
v -0.070000 -0.070000 0.000000
v 0.070000 -0.070000 0.000000
v -0.070000 0.070000 0.000000
v 0.070000 0.070000 0.000000
v -0.070000 0.050000 0.000000
v -0.070000 0.030000 0.000000
v -0.070000 0.010000 0.000000
v -0.070000 -0.010000 0.000000
v -0.070000 -0.030000 0.000000
v -0.070000 -0.050000 0.000000
v -0.050000 -0.070000 0.000000
v -0.030000 -0.070000 0.000000
v -0.010000 -0.070000 0.000000
v 0.010000 -0.070000 0.000000
v 0.030000 -0.070000 0.000000
v 0.050000 -0.070000 0.000000
v 0.070000 -0.050000 0.000000
v 0.070000 -0.030000 0.000000
v 0.070000 -0.010000 0.000000
v 0.070000 0.010000 0.000000
v 0.070000 0.030000 0.000000
v 0.070000 0.050000 0.000000
v 0.050000 0.070000 0.000000
v 0.030000 0.070000 0.000000
v 0.010000 0.070000 0.000000
v -0.010000 0.070000 0.000000
v -0.030000 0.070000 0.000000
v -0.050000 0.070000 0.000000
v -0.050000 -0.050000 0.000000
v -0.050000 -0.030000 0.000000
v -0.050000 -0.010000 0.000000
v -0.050000 0.010000 0.000000
v -0.050000 0.030000 0.000000
v -0.050000 0.050000 0.000000
v -0.030000 -0.050000 0.000000
v -0.030000 -0.030000 0.000000
v -0.030000 -0.010000 0.000000
v -0.030000 0.010000 0.000000
v -0.030000 0.030000 0.000000
v -0.030000 0.050000 0.000000
v -0.010000 -0.050000 0.000000
v -0.010000 -0.030000 0.000000
v -0.010000 -0.010000 0.000000
v -0.010000 0.010000 0.000000
v -0.010000 0.030000 0.000000
v -0.010000 0.050000 0.000000
v 0.010000 -0.050000 0.000000
v 0.010000 -0.030000 0.000000
v 0.010000 -0.010000 0.000000
v 0.010000 0.010000 0.000000
v 0.010000 0.030000 0.000000
v 0.010000 0.050000 0.000000
v 0.030000 -0.050000 0.000000
v 0.030000 -0.030000 0.000000
v 0.030000 -0.010000 0.000000
v 0.030000 0.010000 0.000000
v 0.030000 0.030000 0.000000
v 0.030000 0.050000 0.000000
v 0.050000 -0.050000 0.000000
v 0.050000 -0.030000 0.000000
v 0.050000 -0.010000 0.000000
v 0.050000 0.010000 0.000000
v 0.050000 0.030000 0.000000
v 0.050000 0.050000 0.000000
v -0.070000 -0.050000 -0.003000
v -0.070000 -0.070000 -0.003000
v 0.050000 -0.070000 -0.003000
v 0.070000 -0.070000 -0.003000
v 0.070000 0.050000 -0.003000
v 0.070000 0.070000 -0.003000
v -0.050000 0.070000 -0.003000
v -0.070000 0.070000 -0.003000
v -0.070000 0.050000 -0.003000
v -0.070000 0.030000 -0.003000
v -0.070000 0.010000 -0.003000
v -0.070000 -0.010000 -0.003000
v -0.070000 -0.030000 -0.003000
v -0.050000 -0.070000 -0.003000
v -0.030000 -0.070000 -0.003000
v -0.010000 -0.070000 -0.003000
v 0.010000 -0.070000 -0.003000
v 0.030000 -0.070000 -0.003000
v 0.070000 -0.050000 -0.003000
v 0.070000 -0.030000 -0.003000
v 0.070000 -0.010000 -0.003000
v 0.070000 0.010000 -0.003000
v 0.070000 0.030000 -0.003000
v 0.050000 0.070000 -0.003000
v 0.030000 0.070000 -0.003000
v 0.010000 0.070000 -0.003000
v -0.010000 0.070000 -0.003000
v -0.030000 0.070000 -0.003000
v -0.050000 0.050000 -0.003000
v -0.050000 -0.050000 -0.003000
v -0.050000 -0.030000 -0.003000
v -0.050000 -0.010000 -0.003000
v -0.050000 0.010000 -0.003000
v -0.050000 0.030000 -0.003000
v -0.030000 0.050000 -0.003000
v -0.030000 -0.050000 -0.003000
v -0.030000 -0.030000 -0.003000
v -0.030000 -0.010000 -0.003000
v -0.030000 0.010000 -0.003000
v -0.030000 0.030000 -0.003000
v -0.010000 0.050000 -0.003000
v -0.010000 -0.050000 -0.003000
v -0.010000 -0.030000 -0.003000
v -0.010000 -0.010000 -0.003000
v -0.010000 0.010000 -0.003000
v -0.010000 0.030000 -0.003000
v 0.010000 0.050000 -0.003000
v 0.010000 -0.050000 -0.003000
v 0.010000 -0.030000 -0.003000
v 0.010000 -0.010000 -0.003000
v 0.010000 0.010000 -0.003000
v 0.010000 0.030000 -0.003000
v 0.030000 0.050000 -0.003000
v 0.030000 -0.050000 -0.003000
v 0.030000 -0.030000 -0.003000
v 0.030000 -0.010000 -0.003000
v 0.030000 0.010000 -0.003000
v 0.030000 0.030000 -0.003000
v 0.050000 0.050000 -0.003000
v 0.050000 -0.050000 -0.003000
v 0.050000 -0.030000 -0.003000
v 0.050000 -0.010000 -0.003000
v 0.050000 0.010000 -0.003000
v 0.050000 0.030000 -0.003000
vt 1.000000 0.857143
vt 0.857143 1.000000
vt 0.857143 0.857143
vt 0.000000 0.857143
vt 0.142857 1.000000
vt 0.000000 1.000000
vt 0.142857 0.857143
vt 0.285714 1.000000
vt 0.428571 0.857143
vt 0.285714 0.857143
vt 0.571429 0.857143
vt 0.428571 1.000000
vt 0.714286 0.857143
vt 0.571429 1.000000
vt 0.714286 1.000000
vt 0.142857 0.000000
vt 0.000000 0.142857
vt 0.000000 0.000000
vt 0.142857 0.142857
vt 0.000000 0.285714
vt 0.142857 0.285714
vt 0.000000 0.428571
vt 0.142857 0.571429
vt 0.000000 0.571429
vt 0.000000 0.714286
vt 0.142857 0.714286
vt 0.285714 0.000000
vt 0.285714 0.142857
vt 0.428571 0.000000
vt 0.428571 0.428571
vt 0.285714 0.571429
vt 0.285714 0.428571
vt 0.428571 0.714286
vt 0.285714 0.714286
vt 0.571429 0.000000
vt 0.428571 0.142857
vt 0.571429 0.142857
vt 0.428571 0.285714
vt 0.571429 0.285714
vt 0.571429 0.428571
vt 0.428571 0.571429
vt 0.571429 0.714286
vt 0.714286 0.000000
vt 0.714286 0.142857
vt 0.714286 0.285714
vt 0.714286 0.571429
vt 0.571429 0.571429
vt 0.857143 0.000000
vt 0.857143 0.142857
vt 0.857143 0.285714
vt 0.714286 0.428571
vt 0.857143 0.428571
vt 0.857143 0.571429
vt 0.714286 0.714286
vt 1.000000 0.000000
vt 1.000000 0.142857
vt 1.000000 0.285714
vt 1.000000 0.428571
vt 1.000000 0.571429
vt 0.857143 0.714286
vt 1.000000 0.714286
vt 0.857143 1.000000
vt 1.000000 0.857143
vt 0.857143 0.857143
vt 0.000000 0.857143
vt 0.142857 1.000000
vt 0.142857 0.857143
vt 0.285714 1.000000
vt 0.285714 0.857143
vt 0.428571 0.857143
vt 0.428571 1.000000
vt 0.571429 0.857143
vt 0.571429 1.000000
vt 0.714286 0.857143
vt 0.714286 1.000000
vt 0.000000 0.142857
vt 0.142857 0.000000
vt 0.000000 0.000000
vt 0.000000 0.285714
vt 0.142857 0.142857
vt 0.000000 0.428571
vt 0.142857 0.285714
vt 0.000000 0.571429
vt 0.142857 0.428571
vt 0.000000 0.714286
vt 0.142857 0.571429
vt 0.142857 0.714286
vt 0.285714 0.000000
vt 0.285714 0.142857
vt 0.428571 0.000000
vt 0.285714 0.571429
vt 0.428571 0.428571
vt 0.285714 0.428571
vt 0.428571 0.714286
vt 0.428571 0.571429
vt 0.428571 0.142857
vt 0.571429 0.000000
vt 0.428571 0.285714
vt 0.571429 0.142857
vt 0.571429 0.285714
vt 0.571429 0.428571
vt 0.571429 0.714286
vt 0.571429 0.571429
vt 0.714286 0.000000
vt 0.714286 0.142857
vt 0.714286 0.285714
vt 0.714286 0.571429
vt 0.857143 0.000000
vt 0.857143 0.142857
vt 0.714286 0.428571
vt 0.857143 0.285714
vt 0.857143 0.428571
vt 0.714286 0.714286
vt 0.857143 0.571429
vt 0.857143 0.714286
vt 1.000000 0.000000
vt 1.000000 0.142857
vt 1.000000 0.285714
vt 1.000000 0.428571
vt 1.000000 0.571429
vt 1.000000 0.714286
vt 0.000000 1.000000
vt 0.142857 0.428571
vt 0.285714 0.285714
vt 0.285714 0.714286
vt 1.000000 1.000000
vt 1.000000 1.000000
vt 0.285714 0.285714
vn 0.0000 0.0000 1.0000
vn 0.0000 0.0000 -1.0000
vn -1.0000 0.0000 0.0000
vn 1.0000 0.0000 0.0000
vn 0.0000 -1.0000 0.0000
vn 0.0000 1.0000 0.0000
s off
f 22/1/1 23/2/1 64/3/1
f 5/4/1 28/5/1 3/6/1
f 34/7/1 27/8/1 28/5/1
f 46/9/1 27/8/1 40/10/1
f 52/11/1 26/12/1 46/9/1
f 58/13/1 25/14/1 52/11/1
f 64/3/1 24/15/1 58/13/1
f 11/16/1 10/17/1 1/18/1
f 29/19/1 9/20/1 10/17/1
f 30/21/1 8/22/1 9/20/1
f 8/22/1 32/23/1 7/24/1
f 32/23/1 6/25/1 7/24/1
f 33/26/1 5/4/1 6/25/1
f 12/27/1 29/19/1 11/16/1
f 35/28/1 30/21/1 29/19/1
f 13/29/1 35/28/1 12/27/1
f 43/30/1 38/31/1 37/32/1
f 38/31/1 45/33/1 39/34/1
f 14/35/1 41/36/1 13/29/1
f 47/37/1 42/38/1 41/36/1
f 48/39/1 43/30/1 42/38/1
f 49/40/1 44/41/1 43/30/1
f 44/41/1 51/42/1 45/33/1
f 51/42/1 46/9/1 45/33/1
f 15/43/1 47/37/1 14/35/1
f 53/44/1 48/39/1 47/37/1
f 54/45/1 49/40/1 48/39/1
f 56/46/1 51/42/1 50/47/1
f 16/48/1 53/44/1 15/43/1
f 59/49/1 54/45/1 53/44/1
f 60/50/1 55/51/1 54/45/1
f 61/52/1 56/46/1 55/51/1
f 62/53/1 57/54/1 56/46/1
f 57/54/1 64/3/1 58/13/1
f 2/55/1 59/49/1 16/48/1
f 17/56/1 60/50/1 59/49/1
f 18/57/1 61/52/1 60/50/1
f 19/58/1 62/53/1 61/52/1
f 20/59/1 63/60/1 62/53/1
f 21/61/1 64/3/1 63/60/1
f 88/62/2 69/63/2 123/64/2
f 73/65/2 71/66/2 93/67/2
f 93/67/2 92/68/2 99/69/2
f 92/68/2 105/70/2 99/69/2
f 91/71/2 111/72/2 105/70/2
f 90/73/2 117/74/2 111/72/2
f 89/75/2 123/64/2 117/74/2
f 65/76/2 78/77/2 66/78/2
f 77/79/2 94/80/2 65/76/2
f 76/81/2 95/82/2 77/79/2
f 75/83/2 96/84/2 76/81/2
f 74/85/2 97/86/2 75/83/2
f 73/65/2 98/87/2 74/85/2
f 94/80/2 79/88/2 78/77/2
f 95/82/2 100/89/2 94/80/2
f 100/89/2 80/90/2 79/88/2
f 103/91/2 108/92/2 102/93/2
f 103/91/2 110/94/2 109/95/2
f 106/96/2 81/97/2 80/90/2
f 107/98/2 112/99/2 106/96/2
f 108/92/2 113/100/2 107/98/2
f 109/95/2 114/101/2 108/92/2
f 109/95/2 116/102/2 115/103/2
f 110/94/2 111/72/2 116/102/2
f 112/99/2 82/104/2 81/97/2
f 113/100/2 118/105/2 112/99/2
f 114/101/2 119/106/2 113/100/2
f 116/102/2 121/107/2 115/103/2
f 118/105/2 67/108/2 82/104/2
f 119/106/2 124/109/2 118/105/2
f 120/110/2 125/111/2 119/106/2
f 121/107/2 126/112/2 120/110/2
f 122/113/2 127/114/2 121/107/2
f 122/113/2 123/64/2 128/115/2
f 124/109/2 68/116/2 67/108/2
f 125/111/2 83/117/2 124/109/2
f 126/112/2 84/118/2 125/111/2
f 127/114/2 85/119/2 126/112/2
f 128/115/2 86/120/2 127/114/2
f 123/64/2 87/121/2 128/115/2
f 72/122/3 5/4/3 3/6/3
f 95/82/4 31/123/4 30/21/4
f 73/65/3 6/25/3 5/4/3
f 121/107/3 55/51/3 56/46/3
f 96/84/4 32/23/4 31/123/4
f 74/85/3 7/24/3 6/25/3
f 97/86/4 33/26/4 32/23/4
f 75/83/3 8/22/3 7/24/3
f 117/74/3 57/54/3 58/13/3
f 98/87/4 34/7/4 33/26/4
f 76/81/3 9/20/3 8/22/3
f 77/79/3 10/17/3 9/20/3
f 66/78/5 11/16/5 1/18/5
f 100/89/4 36/124/4 35/28/4
f 78/77/5 12/27/5 11/16/5
f 120/110/6 49/40/6 55/51/6
f 103/91/3 37/32/3 38/31/3
f 79/88/5 13/29/5 12/27/5
f 115/103/5 56/46/5 50/47/5
f 104/125/3 38/31/3 39/34/3
f 80/90/5 14/35/5 13/29/5
f 122/113/6 51/42/6 57/54/6
f 81/97/5 15/43/5 14/35/5
f 111/72/5 58/13/5 52/11/5
f 82/104/5 16/48/5 15/43/5
f 107/98/3 41/36/3 42/38/3
f 68/116/4 17/56/4 2/55/4
f 108/92/3 42/38/3 43/30/3
f 83/117/4 18/57/4 17/56/4
f 84/118/4 19/58/4 18/57/4
f 85/119/4 20/59/4 19/58/4
f 105/70/3 45/33/3 46/9/3
f 86/120/4 21/61/4 20/59/4
f 87/121/4 22/1/4 21/61/4
f 70/126/6 23/2/6 4/127/6
f 101/128/6 30/21/6 36/124/6
f 88/62/6 24/15/6 23/2/6
f 93/67/5 40/10/5 34/7/5
f 89/75/6 25/14/6 24/15/6
f 106/96/6 35/28/6 41/36/6
f 114/101/4 50/47/4 49/40/4
f 90/73/6 26/12/6 25/14/6
f 102/93/5 43/30/5 37/32/5
f 91/71/6 27/8/6 26/12/6
f 65/76/3 1/18/3 10/17/3
f 116/102/4 52/11/4 51/42/4
f 92/68/6 28/5/6 27/8/6
f 67/108/5 2/55/5 16/48/5
f 110/94/6 39/34/6 45/33/6
f 69/63/4 4/127/4 22/1/4
f 99/69/5 46/9/5 40/10/5
f 71/66/6 3/6/6 28/5/6
f 22/1/1 4/127/1 23/2/1
f 5/4/1 34/7/1 28/5/1
f 34/7/1 40/10/1 27/8/1
f 46/9/1 26/12/1 27/8/1
f 52/11/1 25/14/1 26/12/1
f 58/13/1 24/15/1 25/14/1
f 64/3/1 23/2/1 24/15/1
f 11/16/1 29/19/1 10/17/1
f 29/19/1 30/21/1 9/20/1
f 30/21/1 31/123/1 8/22/1
f 8/22/1 31/123/1 32/23/1
f 32/23/1 33/26/1 6/25/1
f 33/26/1 34/7/1 5/4/1
f 12/27/1 35/28/1 29/19/1
f 35/28/1 36/124/1 30/21/1
f 13/29/1 41/36/1 35/28/1
f 43/30/1 44/41/1 38/31/1
f 38/31/1 44/41/1 45/33/1
f 14/35/1 47/37/1 41/36/1
f 47/37/1 48/39/1 42/38/1
f 48/39/1 49/40/1 43/30/1
f 49/40/1 50/47/1 44/41/1
f 44/41/1 50/47/1 51/42/1
f 51/42/1 52/11/1 46/9/1
f 15/43/1 53/44/1 47/37/1
f 53/44/1 54/45/1 48/39/1
f 54/45/1 55/51/1 49/40/1
f 56/46/1 57/54/1 51/42/1
f 16/48/1 59/49/1 53/44/1
f 59/49/1 60/50/1 54/45/1
f 60/50/1 61/52/1 55/51/1
f 61/52/1 62/53/1 56/46/1
f 62/53/1 63/60/1 57/54/1
f 57/54/1 63/60/1 64/3/1
f 2/55/1 17/56/1 59/49/1
f 17/56/1 18/57/1 60/50/1
f 18/57/1 19/58/1 61/52/1
f 19/58/1 20/59/1 62/53/1
f 20/59/1 21/61/1 63/60/1
f 21/61/1 22/1/1 64/3/1
f 88/62/2 70/126/2 69/63/2
f 73/65/2 72/122/2 71/66/2
f 93/67/2 71/66/2 92/68/2
f 92/68/2 91/71/2 105/70/2
f 91/71/2 90/73/2 111/72/2
f 90/73/2 89/75/2 117/74/2
f 89/75/2 88/62/2 123/64/2
f 65/76/2 94/80/2 78/77/2
f 77/79/2 95/82/2 94/80/2
f 76/81/2 96/84/2 95/82/2
f 75/83/2 97/86/2 96/84/2
f 74/85/2 98/87/2 97/86/2
f 73/65/2 93/67/2 98/87/2
f 94/80/2 100/89/2 79/88/2
f 95/82/2 101/128/2 100/89/2
f 100/89/2 106/96/2 80/90/2
f 103/91/2 109/95/2 108/92/2
f 103/91/2 104/125/2 110/94/2
f 106/96/2 112/99/2 81/97/2
f 107/98/2 113/100/2 112/99/2
f 108/92/2 114/101/2 113/100/2
f 109/95/2 115/103/2 114/101/2
f 109/95/2 110/94/2 116/102/2
f 110/94/2 105/70/2 111/72/2
f 112/99/2 118/105/2 82/104/2
f 113/100/2 119/106/2 118/105/2
f 114/101/2 120/110/2 119/106/2
f 116/102/2 122/113/2 121/107/2
f 118/105/2 124/109/2 67/108/2
f 119/106/2 125/111/2 124/109/2
f 120/110/2 126/112/2 125/111/2
f 121/107/2 127/114/2 126/112/2
f 122/113/2 128/115/2 127/114/2
f 122/113/2 117/74/2 123/64/2
f 124/109/2 83/117/2 68/116/2
f 125/111/2 84/118/2 83/117/2
f 126/112/2 85/119/2 84/118/2
f 127/114/2 86/120/2 85/119/2
f 128/115/2 87/121/2 86/120/2
f 123/64/2 69/63/2 87/121/2
f 72/122/3 73/65/3 5/4/3
f 95/82/4 96/84/4 31/123/4
f 73/65/3 74/85/3 6/25/3
f 121/107/3 120/110/3 55/51/3
f 96/84/4 97/86/4 32/23/4
f 74/85/3 75/83/3 7/24/3
f 97/86/4 98/87/4 33/26/4
f 75/83/3 76/81/3 8/22/3
f 117/74/3 122/113/3 57/54/3
f 98/87/4 93/67/4 34/7/4
f 76/81/3 77/79/3 9/20/3
f 77/79/3 65/76/3 10/17/3
f 66/78/5 78/77/5 11/16/5
f 100/89/4 101/128/4 36/124/4
f 78/77/5 79/88/5 12/27/5
f 120/110/6 114/101/6 49/40/6
f 103/91/3 102/93/3 37/32/3
f 79/88/5 80/90/5 13/29/5
f 115/103/5 121/107/5 56/46/5
f 104/125/3 103/91/3 38/31/3
f 80/90/5 81/97/5 14/35/5
f 122/113/6 116/102/6 51/42/6
f 81/97/5 82/104/5 15/43/5
f 111/72/5 117/74/5 58/13/5
f 82/104/5 67/108/5 16/48/5
f 107/98/3 106/96/3 41/36/3
f 68/116/4 83/117/4 17/56/4
f 108/92/3 107/98/3 42/38/3
f 83/117/4 84/118/4 18/57/4
f 84/118/4 85/119/4 19/58/4
f 85/119/4 86/120/4 20/59/4
f 105/70/3 110/94/3 45/33/3
f 86/120/4 87/121/4 21/61/4
f 87/121/4 69/63/4 22/1/4
f 70/126/6 88/62/6 23/2/6
f 101/128/6 95/82/6 30/21/6
f 88/62/6 89/75/6 24/15/6
f 93/67/5 99/69/5 40/10/5
f 89/75/6 90/73/6 25/14/6
f 106/96/6 100/89/6 35/28/6
f 114/101/4 115/103/4 50/47/4
f 90/73/6 91/71/6 26/12/6
f 102/93/5 108/92/5 43/30/5
f 91/71/6 92/68/6 27/8/6
f 65/76/3 66/78/3 1/18/3
f 116/102/4 111/72/4 52/11/4
f 92/68/6 71/66/6 28/5/6
f 67/108/5 68/116/5 2/55/5
f 110/94/6 104/125/6 39/34/6
f 69/63/4 70/126/4 4/127/4
f 99/69/5 105/70/5 46/9/5
f 71/66/6 72/122/6 3/6/6
