# Blender v2.93.5 OBJ File: 'pilot_structure.blend'
# www.blender.org
v 0.083000 -1.249984 -0.724991
v 0.083000 -1.249984 0.724991
v 0.136899 -1.045889 -0.724991
v 0.136899 -1.045889 0.724991
v 0.181161 -0.839490 -0.724991
v 0.181161 -0.839490 0.724991
v 0.215689 -0.631242 -0.724991
v 0.215688 -0.631242 0.724991
v 0.240406 -0.421602 -0.724991
v 0.240405 -0.421602 0.724991
v 0.255258 -0.211033 -0.724991
v 0.255257 -0.211033 0.724991
v 0.260212 -0.000000 -0.724991
v 0.260212 -0.000000 0.724991
v 0.255258 0.211033 -0.724991
v 0.255257 0.211033 0.724991
v 0.240405 0.421602 -0.724991
v 0.240405 0.421602 0.724991
v 0.215688 0.631242 -0.724991
v 0.215688 0.631242 0.724991
v 0.181161 0.839490 -0.724991
v 0.181161 0.839490 0.724991
v 0.136899 1.045889 -0.724991
v 0.136899 1.045889 0.724991
v 0.083000 1.249984 -0.724991
v 0.083000 1.249984 0.724991
v 0.080000 -1.249984 -0.724991
v 0.080000 -1.249984 0.724991
v 0.133899 -1.045889 -0.724991
v 0.133899 -1.045889 0.724991
v 0.178161 -0.839490 -0.724991
v 0.178161 -0.839490 0.724991
v 0.212689 -0.631242 -0.724991
v 0.212688 -0.631242 0.724991
v 0.237406 -0.421602 -0.724991
v 0.237405 -0.421602 0.724991
v 0.252258 -0.211033 -0.724991
v 0.252257 -0.211033 0.724991
v 0.257212 -0.000000 -0.724991
v 0.257212 -0.000000 0.724991
v 0.252258 0.211033 -0.724991
v 0.252257 0.211033 0.724991
v 0.237405 0.421602 -0.724991
v 0.237405 0.421602 0.724991
v 0.212688 0.631242 -0.724991
v 0.212688 0.631242 0.724991
v 0.178161 0.839490 -0.724991
v 0.178161 0.839490 0.724991
v 0.133899 1.045889 -0.724991
v 0.133899 1.045889 0.724991
v 0.080000 1.249984 -0.724991
v 0.080000 1.249984 0.724991
v 0.000000 -1.249984 -0.724991
v 0.000000 -1.249984 0.724991
v 0.000000 1.249984 -0.724991
v -0.000000 1.249984 0.724991
v 0.000000 0.000000 -0.724991
v 0.000000 0.000000 0.724991
v 0.243947 -0.000000 0.724991
v 0.220100 -0.000000 0.724991
v 0.185725 0.000000 0.724991
v 0.140897 0.000000 0.724991
v 0.085714 0.000000 0.724991
v 0.243947 -0.000000 -0.724991
v 0.220100 -0.000000 -0.724991
v 0.185725 0.000000 -0.724991
v 0.140897 0.000000 -0.724991
v 0.085715 0.000000 -0.724991
v 0.240406 -0.421602 -0.724991
v 0.255258 -0.211033 -0.724991
v 0.083000 -1.249984 -0.724991
v 0.083000 -1.249984 -0.724991
v 0.083000 -1.249984 0.724991
v 0.083000 -1.249984 0.724991
v 0.136899 -1.045889 -0.724991
v 0.083000 1.249984 -0.724991
v 0.083000 1.249984 -0.724991
v 0.083000 1.249984 0.724991
v 0.083000 1.249984 0.724991
v 0.240405 0.421602 -0.724991
v 0.215688 0.631242 -0.724991
v 0.240405 -0.421602 0.724991
v 0.255257 -0.211033 0.724991
v 0.136899 -1.045889 0.724991
v 0.240405 0.421602 0.724991
v 0.215688 0.631242 0.724991
v 0.260212 -0.000000 -0.724991
v 0.181161 -0.839490 -0.724991
v 0.181161 0.839490 -0.724991
v 0.260212 -0.000000 0.724991
v 0.181161 -0.839490 0.724991
v 0.181161 0.839490 0.724991
v 0.255258 0.211033 -0.724991
v 0.215689 -0.631242 -0.724991
v 0.136899 1.045889 -0.724991
v 0.255257 0.211033 0.724991
v 0.215688 -0.631242 0.724991
v 0.136899 1.045889 0.724991
v 0.080000 -1.249984 -0.724991
v 0.080000 -1.249984 0.724991
v 0.080000 1.249984 0.724991
v 0.080000 1.249984 -0.724991
v 0.000000 -1.249984 -0.724991
v 0.000000 -1.249984 -0.724991
v 0.000000 -1.249984 0.724991
v 0.000000 -1.249984 0.724991
v 0.000000 1.249984 -0.724991
v 0.000000 1.249984 -0.724991
v -0.000000 1.249984 0.724991
v -0.000000 1.249984 0.724991
v 0.000000 0.000000 -0.724991
v 0.000000 0.000000 0.724991
vn 0.9668 -0.2553 0.0000
vn 0.9726 -0.2326 0.0000
vn 0.9824 -0.1867 0.0000
vn 0.9901 -0.1404 0.0000
vn 0.9956 -0.0937 0.0000
vn 0.9989 -0.0469 0.0000
vn 1.0000 0.0000 0.0000
vn 0.9989 0.0469 0.0000
vn 0.9956 0.0937 0.0000
vn 0.9901 0.1404 0.0000
vn 0.9824 0.1867 0.0000
vn 0.9726 0.2326 0.0000
vn 0.9668 0.2553 0.0000
vn 0.0000 0.0000 1.0000
vn 0.0000 -1.0000 0.0000
vn 0.0000 0.0000 -1.0000
vn 0.0000 1.0000 0.0000
vn -1.0000 0.0000 0.0000
s 1
f 73//1 71//1 75//2
f 73//1 75//2 84//2
f 84//2 75//2 88//3
f 84//2 88//3 91//3
f 91//3 88//3 94//4
f 91//3 94//4 97//4
f 97//4 94//4 69//5
f 97//4 69//5 82//5
f 82//5 69//5 70//6
f 82//5 70//6 83//6
f 83//6 70//6 87//7
f 83//6 87//7 90//7
f 90//7 87//7 93//8
f 90//7 93//8 96//8
f 96//8 93//8 80//9
f 96//8 80//9 85//9
f 85//9 80//9 81//10
f 85//9 81//10 86//10
f 86//10 81//10 89//11
f 86//10 89//11 92//11
f 92//11 89//11 95//12
f 92//11 95//12 98//12
f 98//12 95//12 76//13
f 98//12 76//13 78//13
f 22//14 46//14 20//14
f 74//15 99//15 72//15
f 16//14 40//14 14//14
f 2//14 30//14 28//14
f 7//16 35//16 9//16
f 1//16 29//16 3//16
f 21//16 45//16 47//16
f 79//14 50//14 24//14
f 15//16 39//16 41//16
f 77//17 101//17 26//17
f 6//14 34//14 32//14
f 20//14 44//14 18//14
f 25//16 49//16 51//16
f 12//14 40//14 38//14
f 5//16 33//16 7//16
f 19//16 43//16 45//16
f 24//14 48//14 22//14
f 11//16 39//16 13//16
f 18//14 42//14 16//14
f 4//14 32//14 30//14
f 17//16 41//16 43//16
f 23//16 47//16 49//16
f 10//14 38//14 36//14
f 9//16 37//16 11//16
f 3//16 31//16 5//16
f 8//14 36//14 34//14
f 102//17 109//17 101//17
f 100//15 103//15 99//15
f 110//18 111//18 112//18
f 112//18 104//18 106//18
f 38//14 59//14 36//14
f 42//14 59//14 40//14
f 36//14 60//14 34//14
f 44//14 60//14 59//14
f 34//14 61//14 32//14
f 46//14 61//14 60//14
f 32//14 62//14 30//14
f 48//14 62//14 61//14
f 30//14 63//14 28//14
f 50//14 63//14 62//14
f 28//14 58//14 54//14
f 52//14 58//14 63//14
f 64//16 37//16 35//16
f 64//16 41//16 39//16
f 65//16 35//16 33//16
f 65//16 43//16 64//16
f 66//16 33//16 31//16
f 66//16 45//16 65//16
f 67//16 31//16 29//16
f 67//16 47//16 66//16
f 68//16 29//16 27//16
f 68//16 49//16 67//16
f 57//16 27//16 53//16
f 57//16 51//16 68//16
f 22//14 48//14 46//14
f 74//15 100//15 99//15
f 16//14 42//14 40//14
f 2//14 4//14 30//14
f 7//16 33//16 35//16
f 1//16 27//16 29//16
f 21//16 19//16 45//16
f 79//14 52//14 50//14
f 15//16 13//16 39//16
f 77//17 102//17 101//17
f 6//14 8//14 34//14
f 20//14 46//14 44//14
f 25//16 23//16 49//16
f 12//14 14//14 40//14
f 5//16 31//16 33//16
f 19//16 17//16 43//16
f 24//14 50//14 48//14
f 11//16 37//16 39//16
f 18//14 44//14 42//14
f 4//14 6//14 32//14
f 17//16 15//16 41//16
f 23//16 21//16 47//16
f 10//14 12//14 38//14
f 9//16 35//16 37//16
f 3//16 29//16 31//16
f 8//14 10//14 36//14
f 102//17 107//17 109//17
f 100//15 105//15 103//15
f 110//18 108//18 111//18
f 112//18 111//18 104//18
f 38//14 40//14 59//14
f 42//14 44//14 59//14
f 36//14 59//14 60//14
f 44//14 46//14 60//14
f 34//14 60//14 61//14
f 46//14 48//14 61//14
f 32//14 61//14 62//14
f 48//14 50//14 62//14
f 30//14 62//14 63//14
f 50//14 52//14 63//14
f 28//14 63//14 58//14
f 52//14 56//14 58//14
f 64//16 39//16 37//16
f 64//16 43//16 41//16
f 65//16 64//16 35//16
f 65//16 45//16 43//16
f 66//16 65//16 33//16
f 66//16 47//16 45//16
f 67//16 66//16 31//16
f 67//16 49//16 47//16
f 68//16 67//16 29//16
f 68//16 51//16 49//16
f 57//16 68//16 27//16
f 57//16 55//16 51//16
